InterKhmerLoopless.glyphspackage
{
category = Letter;
glyphname = "ka-khmer";
layers = (
{
anchors = (
{
name = bottom;
pos = (607,0);
},
{
name = bottomright;
pos = (993,0);
},
{
name = top;
pos = (607,1233);
},
{
name = topright;
pos = (993,1233);
}
);
layerId = "B1F27B51-9973-4381-9301-4FE46FE1CA59";
shapes = (
{
closed = 1;
nodes = (
(221,0,l),
(268,0,l),
(268,582,ls),
(268,783,o),
(396,908,o),
(607,908,cs),
(819,908,o),
(947,783,o),
(947,582,cs),
(947,0,l),
(993,0,l),
(993,582,ls),
(993,810,o),
(844,954,o),
(607,954,cs),
(371,954,o),
(221,810,o),
(221,582,cs)
);
},
{
closed = 1;
nodes = (
(1001,1187,l),
(1001,1233,l),
(214,1233,l),
(214,1187,l)
);
}
);
width = 1215;
},
{
anchors = (
{
name = bottom;
pos = (646,0);
},
{
name = bottomright;
pos = (1089,0);
},
{
name = top;
pos = (646,1233);
},
{
name = topright;
pos = (1089,1233);
}
);
layerId = "C698F293-3EC0-4A5A-A3A0-0FDB1F5CF265";
shapes = (
{
closed = 1;
nodes = (
(202,0,l),
(369,0,l),
(369,505,ls),
(369,661,o),
(481,768,o),
(646,768,cs),
(810,768,o),
(922,661,o),
(922,505,cs),
(922,0,l),
(1089,0,l),
(1089,513,ls),
(1089,755,o),
(910,919,o),
(646,919,cs),
(382,919,o),
(202,755,o),
(202,513,cs)
);
},
{
closed = 1;
nodes = (
(1097,1076,l),
(1097,1233,l),
(195,1233,l),
(195,1076,l)
);
}
);
width = 1292;
},
{
anchors = (
{
name = bottom;
pos = (672,0);
},
{
name = bottomright;
pos = (1207,0);
},
{
name = top;
pos = (672,1233);
},
{
name = topright;
pos = (1207,1233);
}
);
layerId = "5C20EF92-B63D-42A8-8878-93C2863E0093";
shapes = (
{
closed = 1;
nodes = (
(137,0,l),
(531,0,l),
(531,400,ls),
(531,484,o),
(585,540,o),
(671,540,cs),
(758,540,o),
(813,484,o),
(813,400,cs),
(813,0,l),
(1207,0,l),
(1207,417,ls),
(1207,674,o),
(1022,833,o),
(671,833,cs),
(321,833,o),
(137,674,o),
(137,417,cs)
);
},
{
closed = 1;
nodes = (
(1215,895,l),
(1215,1233,l),
(129,1233,l),
(129,895,l)
);
}
);
width = 1344;
}
);
script = khmer;
subCategory = Other;
unicode = 6016;
}
{
category = Letter;
glyphname = "kha-khmer";
kernLeft = KH_KHA;
layers = (
{
anchors = (
{
name = bottom;
pos = (596,0);
},
{
name = bottomright;
pos = (963,-1);
},
{
name = top;
pos = (605,1233);
},
{
name = topright;
pos = (991,1233);
}
);
layerId = "B1F27B51-9973-4381-9301-4FE46FE1CA59";
shapes = (
{
closed = 1;
nodes = (
(820,-15,o),
(977,132,o),
(977,346,cs),
(977,468,l),
(931,468,l),
(931,346,ls),
(931,159,o),
(793,31,o),
(590,31,cs),
(388,31,o),
(249,159,o),
(249,346,cs),
(249,570,l),
(586,570,ls),
(849,570,o),
(1005,695,o),
(1005,907,cs),
(1005,1110,o),
(842,1248,o),
(604,1248,cs),
(364,1248,o),
(201,1104,o),
(201,894,c),
(247,894,l),
(247,1078,o),
(392,1203,o),
(604,1203,cs),
(815,1203,o),
(959,1083,o),
(959,907,cs),
(959,723,o),
(820,614,o),
(585,614,cs),
(203,614,l),
(203,346,ls),
(203,132,o),
(360,-15,o),
(591,-15,cs)
);
}
);
width = 1191;
},
{
anchors = (
{
name = bottom;
pos = (628,0);
},
{
name = bottomright;
pos = (1039,0);
},
{
name = top;
pos = (649,1233);
},
{
name = topright;
pos = (1055,1233);
}
);
layerId = "C698F293-3EC0-4A5A-A3A0-0FDB1F5CF265";
shapes = (
{
closed = 1;
nodes = (
(877,-15,o),
(1054,140,o),
(1054,375,cs),
(1054,423,l),
(887,423,l),
(887,375,ls),
(887,226,o),
(777,128,o),
(610,128,cs),
(446,128,o),
(337,226,o),
(337,375,cs),
(337,509,l),
(615,509,ls),
(927,509,o),
(1076,655,o),
(1076,860,cs),
(1076,1111,o),
(888,1248,o),
(631,1248,cs),
(352,1248,o),
(172,1097,o),
(172,832,c),
(340,832,l),
(340,1010,o),
(449,1105,o),
(631,1105,cs),
(793,1105,o),
(908,1020,o),
(908,858,cs),
(908,740,o),
(819,644,o),
(615,644,cs),
(170,644,l),
(170,375,ls),
(170,140,o),
(345,-15,o),
(609,-15,cs)
);
}
);
width = 1258;
},
{
anchors = (
{
name = bottom;
pos = (641,0);
},
{
name = bottomright;
pos = (1147,0);
},
{
name = top;
pos = (652,1233);
},
{
name = topright;
pos = (1172,1233);
}
);
layerId = "5C20EF92-B63D-42A8-8878-93C2863E0093";
shapes = (
{
closed = 1;
nodes = (
(992,-15,o),
(1169,122,o),
(1169,392,cs),
(1169,403,l),
(776,403,l),
(776,397,ls),
(776,325,o),
(721,275,o),
(641,275,cs),
(561,275,o),
(506,325,o),
(506,397,cs),
(506,465,l),
(655,465,ls),
(1014,465,o),
(1193,604,o),
(1193,849,cs),
(1193,1100,o),
(993,1248,o),
(657,1248,cs),
(312,1248,o),
(113,1098,o),
(113,796,c),
(508,796,l),
(508,902,o),
(570,954,o),
(652,954,cs),
(735,954,o),
(789,901,o),
(789,817,cs),
(789,735,o),
(737,683,o),
(635,683,cs),
(113,683,l),
(113,392,ls),
(113,121,o),
(291,-15,o),
(641,-15,cs)
);
}
);
width = 1312;
}
);
script = khmer;
subCategory = Other;
unicode = 6017;
}
{
category = Letter;
glyphname = "ko-khmer";
layers = (
{
anchors = (
{
name = bottom;
pos = (607,0);
},
{
name = bottomright;
pos = (993,0);
},
{
name = top;
pos = (607,1233);
},
{
name = topright;
pos = (993,1233);
}
);
layerId = "B1F27B51-9973-4381-9301-4FE46FE1CA59";
shapes = (
{
closed = 1;
nodes = (
(221,0,l),
(268,0,l),
(268,25,ls),
(268,257,o),
(378,374,o),
(572,374,cs),
(620,374,l),
(620,417,l),
(572,417,ls),
(410,417,o),
(302,345,o),
(272,212,c),
(268,212,l),
(268,582,ls),
(268,783,o),
(396,908,o),
(607,908,cs),
(819,908,o),
(947,783,o),
(947,582,cs),
(947,0,l),
(993,0,l),
(993,582,ls),
(993,810,o),
(844,954,o),
(607,954,cs),
(371,954,o),
(221,810,o),
(221,582,cs)
);
},
{
closed = 1;
nodes = (
(1001,1187,l),
(1001,1233,l),
(214,1233,l),
(214,1187,l)
);
}
);
width = 1215;
},
{
anchors = (
{
name = bottom;
pos = (646,0);
},
{
name = bottomright;
pos = (1089,0);
},
{
name = top;
pos = (646,1233);
},
{
name = topright;
pos = (1089,1233);
}
);
layerId = "C698F293-3EC0-4A5A-A3A0-0FDB1F5CF265";
shapes = (
{
closed = 1;
nodes = (
(202,0,l),
(369,0,l),
(369,107,ls),
(369,222,o),
(429,312,o),
(566,312,cs),
(678,312,l),
(678,455,l),
(577,455,ls),
(491,455,o),
(415,421,o),
(377,321,c),
(369,321,l),
(369,505,ls),
(369,661,o),
(481,768,o),
(646,768,cs),
(810,768,o),
(922,661,o),
(922,505,cs),
(922,0,l),
(1089,0,l),
(1089,513,ls),
(1089,755,o),
(910,919,o),
(646,919,cs),
(382,919,o),
(202,755,o),
(202,513,cs)
);
},
{
closed = 1;
nodes = (
(1097,1076,l),
(1097,1233,l),
(195,1233,l),
(195,1076,l)
);
}
);
width = 1292;
},
{
anchors = (
{
name = bottom;
pos = (672,0);
},
{
name = bottomright;
pos = (1207,0);
},
{
name = top;
pos = (672,1233);
},
{
name = topright;
pos = (1207,1233);
}
);
layerId = "5C20EF92-B63D-42A8-8878-93C2863E0093";
shapes = (
{
closed = 1;
nodes = (
(137,0,l),
(528,0,l),
(528,53,ls),
(528,96,o),
(557,120,o),
(607,120,cs),
(754,120,l),
(754,393,l),
(681,393,ls),
(597,393,o),
(553,352,o),
(537,282,c),
(531,282,l),
(531,400,ls),
(531,484,o),
(585,540,o),
(671,540,cs),
(758,540,o),
(813,484,o),
(813,400,cs),
(813,0,l),
(1207,0,l),
(1207,417,ls),
(1207,674,o),
(1022,833,o),
(671,833,cs),
(321,833,o),
(137,674,o),
(137,417,cs)
);
},
{
closed = 1;
nodes = (
(1215,895,l),
(1215,1233,l),
(129,1233,l),
(129,895,l)
);
}
);
width = 1344;
}
);
script = khmer;
subCategory = Other;
unicode = 6018;
}
{
category = Letter;
glyphname = "kho-khmer";
layers = (
{
anchors = (
{
name = bottom;
pos = (1268,0);
},
{
name = bottomright;
pos = (1617,0);
},
{
name = top;
pos = (1268,1233);
},
{
name = topright;
pos = (1632,1233);
}
);
layerId = "B1F27B51-9973-4381-9301-4FE46FE1CA59";
shapes = (
{
closed = 1;
nodes = (
(759,-15,o),
(887,76,o),
(930,218,c),
(937,218,l),
(979,76,o),
(1104,-15,o),
(1271,-15,cs),
(1484,-15,o),
(1632,124,o),
(1632,329,cs),
(1632,896,ls),
(1632,916,o),
(1624,925,o),
(1608,931,cs),
(1461,983,l),
(1475,962,l),
(1475,1055,ls),
(1475,1152,o),
(1522,1187,o),
(1601,1187,cs),
(1695,1187,l),
(1695,1233,l),
(1601,1233,ls),
(1500,1233,o),
(1431,1184,o),
(1431,1055,cs),
(1431,950,l),
(1585,894,l),
(1585,329,ls),
(1585,153,o),
(1460,32,o),
(1271,32,cs),
(1081,32,o),
(957,153,o),
(957,329,cs),
(957,896,ls),
(957,916,o),
(949,925,o),
(933,931,cs),
(786,983,l),
(800,962,l),
(800,1055,ls),
(800,1152,o),
(847,1187,o),
(927,1187,cs),
(1020,1187,l),
(1020,1233,l),
(927,1233,ls),
(825,1233,o),
(756,1184,o),
(756,1055,cs),
(756,950,l),
(911,894,l),
(911,329,ls),
(911,153,o),
(783,32,o),
(588,32,cs),
(394,32,o),
(268,153,o),
(268,329,cs),
(268,721,ls),
(268,871,o),
(364,947,o),
(364,1084,cs),
(364,1180,o),
(312,1241,o),
(217,1241,cs),
(196,1241,o),
(171,1237,o),
(138,1229,c),
(138,1185,l),
(171,1195,o),
(201,1197,o),
(217,1197,cs),
(284,1197,o),
(317,1152,o),
(317,1084,cs),
(317,948,o),
(221,887,o),
(221,721,cs),
(221,329,ls),
(221,124,o),
(369,-15,o),
(588,-15,cs)
);
}
);
width = 1853;
},
{
anchors = (
{
name = bottom;
pos = (1322,0);
},
{
name = bottomright;
pos = (1737,0);
},
{
name = top;
pos = (1323,1233);
},
{
name = topright;
pos = (1751,1233);
}
);
layerId = "C698F293-3EC0-4A5A-A3A0-0FDB1F5CF265";
shapes = (
{
closed = 1;
nodes = (
(784,-15,o),
(906,49,o),
(973,175,c),
(980,175,l),
(1047,49,o),
(1169,-15,o),
(1329,-15,cs),
(1586,-15,o),
(1751,144,o),
(1751,377,cs),
(1751,813,ls),
(1751,856,o),
(1737,872,o),
(1695,891,cs),
(1584,939,l),
(1599,879,l),
(1599,966,ls),
(1599,1037,o),
(1636,1076,o),
(1718,1076,cs),
(1808,1076,l),
(1808,1233,l),
(1706,1233,ls),
(1543,1233,o),
(1462,1151,o),
(1462,977,cs),
(1462,855,l),
(1584,799,l),
(1584,388,ls),
(1584,240,o),
(1487,137,o),
(1322,137,cs),
(1157,137,o),
(1060,240,o),
(1060,388,cs),
(1060,813,ls),
(1060,856,o),
(1047,872,o),
(1004,891,cs),
(893,939,l),
(908,879,l),
(908,966,ls),
(908,1037,o),
(945,1076,o),
(1027,1076,cs),
(1117,1076,l),
(1117,1233,l),
(1015,1233,ls),
(852,1233,o),
(771,1151,o),
(771,977,cs),
(771,855,l),
(893,799,l),
(893,388,ls),
(893,240,o),
(796,137,o),
(631,137,cs),
(466,137,o),
(369,240,o),
(369,388,cs),
(369,657,ls),
(369,847,o),
(451,905,o),
(451,1062,cs),
(451,1153,o),
(396,1241,o),
(252,1241,cs),
(217,1241,o),
(183,1237,o),
(143,1228,c),
(143,1091,l),
(164,1095,o),
(190,1098,o),
(209,1098,cs),
(272,1098,o),
(288,1057,o),
(288,1018,cs),
(288,942,o),
(202,849,o),
(202,670,cs),
(202,377,ls),
(202,144,o),
(367,-15,o),
(624,-15,cs)
);
}
);
width = 1953;
},
{
anchors = (
{
name = bottom;
pos = (1326,0);
},
{
name = bottomright;
pos = (1832,0);
},
{
name = top;
pos = (1326,1233);
},
{
name = topright;
pos = (1855,1233);
}
);
layerId = "5C20EF92-B63D-42A8-8878-93C2863E0093";
shapes = (
{
closed = 1;
nodes = (
(777,-15,o),
(929,20,o),
(991,132,c),
(999,132,l),
(1061,20,o),
(1212,-15,o),
(1363,-15,cs),
(1683,-15,o),
(1855,139,o),
(1855,388,cs),
(1855,695,ls),
(1855,756,o),
(1823,774,o),
(1769,790,cs),
(1596,842,l),
(1641,783,l),
(1641,852,ls),
(1641,880,o),
(1665,895,o),
(1709,895,cs),
(1884,895,l),
(1884,1233,l),
(1657,1233,ls),
(1420,1233,o),
(1354,1116,o),
(1354,953,cs),
(1354,737,l),
(1461,693,l),
(1461,419,ls),
(1461,335,o),
(1405,279,o),
(1326,279,cs),
(1247,279,o),
(1193,335,o),
(1193,419,cs),
(1193,695,ls),
(1193,761,o),
(1153,776,o),
(1107,790,cs),
(934,842,l),
(979,783,l),
(979,852,ls),
(979,880,o),
(1002,895,o),
(1047,895,cs),
(1221,895,l),
(1221,1233,l),
(995,1233,ls),
(757,1233,o),
(692,1116,o),
(692,953,cs),
(692,737,l),
(799,693,l),
(799,419,ls),
(799,335,o),
(743,279,o),
(664,279,cs),
(585,279,o),
(530,335,o),
(530,419,cs),
(530,702,ls),
(530,831,o),
(581,868,o),
(581,1035,cs),
(581,1183,o),
(474,1241,o),
(300,1241,cs),
(217,1241,o),
(129,1230,o),
(87,1219,c),
(87,959,l),
(111,964,o),
(119,965,o),
(133,965,cs),
(170,965,o),
(189,942,o),
(189,902,cs),
(189,848,o),
(136,816,o),
(136,677,cs),
(136,388,ls),
(136,139,o),
(307,-15,o),
(627,-15,cs)
);
}
);
width = 1991;
}
);
script = khmer;
subCategory = Other;
unicode = 6019;
}
{
category = Letter;
glyphname = "ngo-khmer";
layers = (
{
anchors = (
{
name = bottom;
pos = (607,0);
},
{
name = bottomright;
pos = (994,0);
},
{
name = top;
pos = (607,1233);
},
{
name = topright;
pos = (929,1233);
}
);
background = {
anchors = (
{
name = bottom;
pos = (599,0);
},
{
name = bottomright;
pos = (985,0);
},
{
name = top;
pos = (599,1233);
},
{
name = topright;
pos = (920,1233);
}
);
shapes = (
{
closed = 1;
nodes = (
(894,1007,o),
(920,1050,o),
(920,1103,cs),
(920,1180,o),
(865,1233,o),
(783,1233,c),
(658,1175,l),
(658,1135,l),
(781,1193,l),
(836,1193,o),
(873,1156,o),
(873,1103,cs),
(873,1003,o),
(760,923,o),
(567,923,cs),
(364,923,o),
(251,1012,o),
(251,1181,cs),
(251,1373,l),
(204,1373,l),
(204,1181,ls),
(204,985,o),
(335,879,o),
(567,879,cs),
(660,879,o),
(756,905,o),
(820,943,c),
(895,920,o),
(938,861,o),
(938,780,cs),
(938,71,l),
(935,71,l),
(613,425,l),
(584,425,l),
(262,71,l),
(259,71,l),
(259,647,ls),
(259,681,o),
(241,698,o),
(206,698,cs),
(92,698,l),
(92,655,l),
(212,655,l),
(212,0,l),
(257,0,l),
(597,374,l),
(600,374,l),
(940,0,l),
(985,0,l),
(985,780,ls),
(985,872,o),
(937,941,o),
(854,969,c),
(854,973,l)
);
}
);
};
layerId = "B1F27B51-9973-4381-9301-4FE46FE1CA59";
shapes = (
{
closed = 1;
nodes = (
(267,0,l),
(607,374,l),
(609,374,l),
(949,0,l),
(993,0,l),
(993,779,ls),
(993,871,o),
(944,940,o),
(861,969,c),
(864,972,l),
(904,1007,o),
(929,1071,o),
(929,1153,cs),
(929,1233,l),
(882,1233,l),
(882,1156,ls),
(882,1004,o),
(767,923,o),
(572,923,cs),
(372,923,o),
(260,1011,o),
(260,1180,cs),
(260,1373,l),
(213,1373,l),
(213,1183,ls),
(213,986,o),
(345,879,o),
(578,879,cs),
(677,879,o),
(780,908,o),
(843,950,c),
(821,946,l),
(902,926,o),
(947,866,o),
(947,782,cs),
(947,71,l),
(943,71,l),
(621,425,l),
(592,425,l),
(270,71,l),
(268,71,l),
(268,645,ls),
(268,680,o),
(249,698,o),
(213,698,cs),
(100,698,l),
(100,655,l),
(221,655,l),
(221,0,l)
);
}
);
width = 1215;
},
{
anchors = (
{
name = bottom;
pos = (646,0);
},
{
name = bottomright;
pos = (1089,0);
},
{
name = top;
pos = (646,1233);
},
{
name = topright;
pos = (1018,1233);
}
);
layerId = "C698F293-3EC0-4A5A-A3A0-0FDB1F5CF265";
shapes = (
{
closed = 1;
nodes = (
(368,0,l),
(643,284,l),
(649,284,l),
(924,0,l),
(1089,0,l),
(1089,785,ls),
(1089,916,o),
(1041,993,o),
(961,1031,c),
(961,1034,l),
(1001,1064,o),
(1018,1112,o),
(1018,1169,cs),
(1018,1233,l),
(847,1233,l),
(847,1176,ls),
(847,1065,o),
(758,1001,o),
(601,1001,cs),
(441,1001,o),
(349,1079,o),
(349,1212,cs),
(349,1373,l),
(182,1373,l),
(182,1212,ls),
(182,992,o),
(332,866,o),
(594,866,cs),
(753,866,o),
(876,921,o),
(929,1017,c),
(822,967,l),
(869,956,o),
(922,910,o),
(922,783,cs),
(922,204,l),
(913,204,l),
(667,459,l),
(625,459,l),
(378,204,l),
(369,204,l),
(369,561,ls),
(369,634,o),
(329,675,o),
(260,675,cs),
(102,675,l),
(102,538,l),
(202,538,l),
(202,0,l)
);
}
);
width = 1292;
},
{
anchors = (
{
name = bottom;
pos = (671,0);
},
{
name = bottomright;
pos = (1207,0);
},
{
name = top;
pos = (671,1233);
},
{
name = topright;
pos = (1209,1233);
}
);
background = {
anchors = (
{
name = bottom;
pos = (660,0);
},
{
name = bottomright;
pos = (1191,0);
},
{
name = top;
pos = (660,1233);
},
{
name = topright;
pos = (1191,1233);
}
);
shapes = (
{
closed = 1;
nodes = (
(512,0,l),
(655,191,l),
(664,191,l),
(807,0,l),
(1191,0,l),
(1191,700,ls),
(1191,836,o),
(1129,897,o),
(1041,921,c),
(1041,932,l),
(1112,967,o),
(1150,1037,o),
(1150,1130,cs),
(1150,1233,l),
(761,1233,l),
(761,1153,ls),
(761,1079,o),
(713,1044,o),
(623,1044,cs),
(535,1044,o),
(484,1087,o),
(484,1160,cs),
(484,1335,l),
(113,1335,l),
(113,1138,ls),
(113,925,o),
(257,796,o),
(601,796,cs),
(718,796,o),
(839,825,o),
(943,875,c),
(675,895,l),
(760,871,o),
(806,819,o),
(806,728,cs),
(806,352,l),
(797,352,l),
(692,487,l),
(628,487,l),
(522,352,l),
(513,352,l),
(513,545,ls),
(513,630,o),
(460,679,o),
(365,679,cs),
(48,679,l),
(48,481,l),
(128,481,l),
(128,0,l)
);
}
);
};
layerId = "5C20EF92-B63D-42A8-8878-93C2863E0093";
shapes = (
{
closed = 1;
nodes = (
(529,0,l),
(667,186,l),
(676,186,l),
(814,0,l),
(1207,0,l),
(1207,697,ls),
(1207,833,o),
(1144,895,o),
(1055,919,c),
(1055,929,l),
(1127,965,o),
(1166,1035,o),
(1166,1129,cs),
(1166,1233,l),
(769,1233,l),
(769,1152,ls),
(769,1081,o),
(722,1047,o),
(634,1047,cs),
(549,1047,o),
(500,1088,o),
(500,1159,cs),
(500,1335,l),
(121,1335,l),
(121,1136,ls),
(121,923,o),
(265,793,o),
(612,793,cs),
(727,793,o),
(850,823,o),
(955,871,c),
(681,892,l),
(767,869,o),
(812,816,o),
(812,727,cs),
(812,359,l),
(804,359,l),
(703,489,l),
(639,489,l),
(539,359,l),
(530,359,l),
(530,543,ls),
(530,629,o),
(475,679,o),
(380,679,cs),
(57,679,l),
(57,477,l),
(136,477,l),
(136,0,l)
);
}
);
width = 1343;
}
);
script = khmer;
subCategory = Other;
unicode = 6020;
}
{
category = Letter;
glyphname = "ca-khmer";
kernLeft = KH_CA;
layers = (
{
anchors = (
{
name = bottom;
pos = (616,0);
},
{
name = bottomright;
pos = (988,0);
},
{
name = top;
pos = (616,1233);
},
{
name = topright;
pos = (1002,1233);
}
);
layerId = "B1F27B51-9973-4381-9301-4FE46FE1CA59";
shapes = (
{
closed = 1;
nodes = (
(845,-15,o),
(1002,128,o),
(1002,336,cs),
(1002,796,ls),
(1002,900,o),
(944,961,o),
(841,961,cs),
(809,961,o),
(791,957,o),
(761,951,c),
(761,908,l),
(794,917,o),
(807,920,o),
(836,920,cs),
(911,920,o),
(956,875,o),
(956,796,cs),
(956,336,ls),
(956,156,o),
(820,32,o),
(615,32,cs),
(411,32,o),
(276,156,o),
(276,336,cs),
(276,915,ls),
(276,935,o),
(268,945,o),
(251,950,cs),
(142,983,l),
(156,962,l),
(156,1039,ls),
(156,1147,o),
(214,1187,o),
(308,1187,cs),
(1002,1187,l),
(1002,1233,l),
(308,1233,ls),
(185,1233,o),
(112,1177,o),
(112,1039,cs),
(112,950,l),
(230,911,l),
(230,336,ls),
(230,128,o),
(386,-15,o),
(615,-15,cs)
);
}
);
width = 1223;
},
{
anchors = (
{
name = bottom;
pos = (659,0);
},
{
name = bottomright;
pos = (1088,0);
},
{
name = top;
pos = (659,1233);
},
{
name = topright;
pos = (1103,1233);
}
);
layerId = "C698F293-3EC0-4A5A-A3A0-0FDB1F5CF265";
shapes = (
{
closed = 1;
nodes = (
(932,-15,o),
(1103,144,o),
(1103,377,cs),
(1103,705,ls),
(1103,830,o),
(1036,919,o),
(867,919,cs),
(844,919,o),
(787,912,o),
(768,904,c),
(768,768,l),
(789,775,o),
(811,777,o),
(833,777,cs),
(901,777,o),
(935,758,o),
(935,701,cs),
(935,385,ls),
(935,233,o),
(832,127,o),
(659,127,cs),
(485,127,o),
(383,233,o),
(383,385,cs),
(383,813,ls),
(383,856,o),
(368,871,o),
(326,891,cs),
(207,949,l),
(243,887,l),
(243,973,ls),
(243,1044,o),
(276,1076,o),
(348,1076,cs),
(1110,1076,l),
(1110,1233,l),
(351,1233,ls),
(180,1233,o),
(99,1156,o),
(99,977,cs),
(99,862,l),
(215,801,l),
(215,377,ls),
(215,144,o),
(386,-15,o),
(659,-15,cs)
);
}
);
width = 1305;
},
{
anchors = (
{
name = bottom;
pos = (684,0);
},
{
name = bottomright;
pos = (1198,0);
},
{
name = top;
pos = (684,1233);
},
{
name = topright;
pos = (1220,1233);
}
);
layerId = "5C20EF92-B63D-42A8-8878-93C2863E0093";
shapes = (
{
closed = 1;
nodes = (
(1018,-15,o),
(1220,134,o),
(1220,385,cs),
(1220,547,ls),
(1220,720,o),
(1100,815,o),
(892,815,cs),
(837,815,o),
(756,807,o),
(689,780,c),
(689,525,l),
(718,532,o),
(742,534,o),
(755,534,cs),
(802,534,o),
(825,511,o),
(825,473,cs),
(825,409,ls),
(825,327,o),
(773,278,o),
(684,278,cs),
(596,278,o),
(543,326,o),
(543,409,cs),
(543,684,ls),
(543,750,o),
(512,769,o),
(457,788,cs),
(292,843,l),
(343,735,l),
(343,838,ls),
(343,876,o),
(366,895,o),
(411,895,cs),
(1220,895,l),
(1220,1233,l),
(378,1233,ls),
(118,1233,o),
(51,1096,o),
(51,906,cs),
(51,737,l),
(149,692,l),
(149,385,ls),
(149,134,o),
(345,-15,o),
(684,-15,cs)
);
}
);
width = 1356;
}
);
script = khmer;
subCategory = Other;
unicode = 6021;
}
{
category = Letter;
glyphname = "cha-khmer";
kernLeft = KH_CHA;
layers = (
{
anchors = (
{
name = bottom;
pos = (616,0);
},
{
name = bottomright;
pos = (988,0);
},
{
name = top;
pos = (616,1233);
},
{
name = topright;
pos = (1002,1233);
}
);
background = {
shapes = (
{
closed = 1;
nodes = (
(927,-7,o),
(993,70,o),
(993,205,cs),
(993,624,l),
(947,624,l),
(947,205,ls),
(947,96,o),
(897,33,o),
(810,33,cs),
(561,33,o),
(634,333,o),
(271,333,cs),
(249,333,l),
(249,289,l),
(272,289,ls),
(615,289,o),
(514,-7,o),
(810,-7,cs)
);
}
);
};
layerId = "B1F27B51-9973-4381-9301-4FE46FE1CA59";
shapes = (
{
closed = 1;
nodes = (
(933,-9,o),
(1002,68,o),
(1002,204,cs),
(1002,796,ls),
(1002,900,o),
(944,961,o),
(841,961,cs),
(809,961,o),
(791,957,o),
(761,951,c),
(761,908,l),
(794,917,o),
(807,920,o),
(836,920,cs),
(911,920,o),
(956,875,o),
(956,796,cs),
(956,204,ls),
(956,97,o),
(903,36,o),
(813,36,cs),
(597,36,o),
(607,356,o),
(306,356,cs),
(262,356,l),
(262,312,l),
(302,312,ls),
(580,312,o),
(564,-9,o),
(812,-9,cs)
);
},
{
closed = 1;
nodes = (
(276,0,l),
(276,334,l),
(276,915,ls),
(276,935,o),
(268,945,o),
(251,950,cs),
(142,983,l),
(156,962,l),
(156,1039,ls),
(156,1147,o),
(214,1187,o),
(308,1187,cs),
(1002,1187,l),
(1002,1233,l),
(308,1233,ls),
(185,1233,o),
(112,1177,o),
(112,1039,cs),
(112,950,l),
(230,911,l),
(230,334,l),
(236,355,l),
(201,334,o),
(173,313,o),
(173,250,cs),
(173,161,o),
(199,76,o),
(237,0,c)
);
}
);
width = 1223;
},
{
anchors = (
{
name = bottom;
pos = (659,0);
},
{
name = bottomright;
pos = (1088,0);
},
{
name = top;
pos = (659,1233);
},
{
name = topright;
pos = (1103,1233);
}
);
layerId = "C698F293-3EC0-4A5A-A3A0-0FDB1F5CF265";
shapes = (
{
closed = 1;
nodes = (
(1009,-12,o),
(1103,80,o),
(1103,241,cs),
(1103,705,ls),
(1103,830,o),
(1036,919,o),
(867,919,cs),
(844,919,o),
(787,912,o),
(768,904,c),
(768,768,l),
(789,775,o),
(811,777,o),
(833,777,cs),
(901,777,o),
(935,758,o),
(935,701,cs),
(935,241,ls),
(935,175,o),
(899,132,o),
(836,132,cs),
(680,132,o),
(634,397,o),
(400,397,cs),
(356,397,l),
(356,252,l),
(393,252,ls),
(576,252,o),
(595,-12,o),
(855,-12,cs)
);
},
{
closed = 1;
nodes = (
(383,0,l),
(383,336,l),
(383,813,ls),
(383,856,o),
(368,871,o),
(326,891,cs),
(207,949,l),
(243,887,l),
(243,973,ls),
(243,1044,o),
(276,1076,o),
(348,1076,cs),
(1110,1076,l),
(1110,1233,l),
(351,1233,ls),
(180,1233,o),
(99,1156,o),
(99,977,cs),
(99,862,l),
(215,801,l),
(215,328,l),
(234,399,l),
(161,380,o),
(120,329,o),
(120,254,cs),
(120,172,o),
(165,97,o),
(225,0,c)
);
}
);
width = 1305;
},
{
anchors = (
{
name = bottom;
pos = (688,0);
},
{
name = bottomright;
pos = (1216,0);
},
{
name = top;
pos = (695,1233);
},
{
name = topright;
pos = (1231,1233);
}
);
background = {
anchors = (
{
name = bottom;
pos = (675,0);
},
{
name = bottomright;
pos = (1199,0);
},
{
name = top;
pos = (682,1233);
},
{
name = topright;
pos = (1214,1233);
}
);
hints = (
{
name = "_cap.caHair-khmer";
origin = (1,2);
type = Cap;
}
);
shapes = (
{
closed = 1;
nodes = (
(1118,-12,o),
(1214,101,o),
(1214,255,cs),
(1214,529,ls),
(1214,700,o),
(1096,794,o),
(889,794,cs),
(834,794,o),
(755,786,o),
(691,761,c),
(691,511,l),
(719,517,o),
(741,519,o),
(756,519,cs),
(804,519,o),
(828,497,o),
(828,457,cs),
(828,319,ls),
(828,289,o),
(815,268,o),
(783,268,cs),
(717,268,o),
(647,393,o),
(497,393,cs),
(403,393,l),
(403,160,l),
(485,160,ls),
(641,160,o),
(663,-12,o),
(941,-12,cs)
);
},
{
closed = 1;
nodes = (
(521,0,l),
(536,216,l),
(536,655,l),
(151,655,l),
(151,243,l),
(204,439,l),
(100,429,o),
(41,369,o),
(41,273,cs),
(41,187,o),
(93,87,o),
(183,0,c)
);
}
);
};
layerId = "5C20EF92-B63D-42A8-8878-93C2863E0093";
shapes = (
{
closed = 1;
nodes = (
(1134,-12,o),
(1231,102,o),
(1231,256,cs),
(1231,547,ls),
(1231,720,o),
(1111,815,o),
(903,815,cs),
(848,815,o),
(767,807,o),
(700,780,c),
(700,525,l),
(729,532,o),
(753,534,o),
(766,534,cs),
(813,534,o),
(836,511,o),
(836,473,cs),
(836,345,ls),
(836,317,o),
(825,297,o),
(794,297,cs),
(732,297,o),
(660,417,o),
(514,417,cs),
(417,417,l),
(417,156,l),
(501,156,ls),
(655,156,o),
(677,-12,o),
(956,-12,cs)
);
},
{
closed = 1;
nodes = (
(540,0,l),
(554,212,l),
(554,684,ls),
(554,750,o),
(523,769,o),
(468,788,cs),
(303,843,l),
(354,735,l),
(354,838,ls),
(354,876,o),
(377,895,o),
(422,895,cs),
(1231,895,l),
(1231,1233,l),
(389,1233,ls),
(129,1233,o),
(62,1096,o),
(62,906,cs),
(62,737,l),
(160,692,l),
(160,240,l),
(215,441,l),
(111,431,o),
(51,370,o),
(51,274,cs),
(51,188,o),
(103,87,o),
(193,0,c)
);
}
);
width = 1367;
}
);
script = khmer;
subCategory = Other;
unicode = 6022;
}
{
category = Letter;
glyphname = "co-khmer";
kernLeft = KH_CA;
layers = (
{
anchors = (
{
name = bottom;
pos = (612,0);
},
{
name = bottomright;
pos = (995,0);
},
{
name = top;
pos = (609,1233);
},
{
name = topright;
pos = (995,1233);
}
);
layerId = "B1F27B51-9973-4381-9301-4FE46FE1CA59";
shapes = (
{
closed = 1;
nodes = (
(275,0,l),
(611,374,l),
(614,374,l),
(950,0,l),
(995,0,l),
(995,908,l),
(948,908,l),
(948,71,l),
(945,71,l),
(627,424,l),
(598,424,l),
(279,71,l),
(276,71,l),
(276,915,ls),
(276,935,o),
(268,945,o),
(251,950,cs),
(142,983,l),
(156,962,l),
(156,1039,ls),
(156,1147,o),
(214,1187,o),
(308,1187,cs),
(900,1187,ls),
(966,1187,o),
(995,1212,o),
(995,1273,cs),
(995,1373,l),
(950,1373,l),
(950,1273,ls),
(950,1245,o),
(939,1233,o),
(901,1233,cs),
(308,1233,ls),
(185,1233,o),
(112,1177,o),
(112,1039,cs),
(112,950,l),
(230,911,l),
(230,0,l)
);
}
);
width = 1216;
},
{
anchors = (
{
name = bottom;
pos = (659,0);
},
{
name = bottomright;
pos = (1103,0);
},
{
name = top;
pos = (659,1233);
},
{
name = topright;
pos = (1103,1233);
}
);
layerId = "C698F293-3EC0-4A5A-A3A0-0FDB1F5CF265";
shapes = (
{
closed = 1;
nodes = (
(383,0,l),
(655,305,l),
(663,305,l),
(935,0,l),
(1103,0,l),
(1103,883,l),
(935,883,l),
(935,209,l),
(928,209,l),
(694,471,l),
(624,471,l),
(390,209,l),
(383,209,l),
(383,813,ls),
(383,856,o),
(368,871,o),
(326,891,cs),
(207,949,l),
(236,887,l),
(236,973,ls),
(236,1044,o),
(271,1076,o),
(348,1076,cs),
(916,1076,ls),
(1039,1076,o),
(1110,1131,o),
(1110,1247,cs),
(1110,1373,l),
(945,1373,l),
(945,1266,ls),
(945,1242,o),
(936,1233,o),
(911,1233,cs),
(351,1233,ls),
(180,1233,o),
(99,1156,o),
(99,977,cs),
(99,862,l),
(215,801,l),
(215,0,l)
);
}
);
width = 1305;
},
{
anchors = (
{
name = bottom;
pos = (684,0);
},
{
name = bottomright;
pos = (1220,0);
},
{
name = top;
pos = (679,1233);
},
{
name = topright;
pos = (1220,1233);
}
);
layerId = "5C20EF92-B63D-42A8-8878-93C2863E0093";
shapes = (
{
closed = 1;
nodes = (
(542,0,l),
(680,186,l),
(689,186,l),
(827,0,l),
(1220,0,l),
(1220,742,l),
(825,742,l),
(825,359,l),
(817,359,l),
(717,489,l),
(652,489,l),
(552,359,l),
(543,359,l),
(543,678,ls),
(543,743,o),
(512,761,o),
(457,782,cs),
(292,843,l),
(343,751,l),
(343,838,ls),
(343,876,o),
(366,895,o),
(411,895,cs),
(951,895,ls),
(1130,895,o),
(1227,993,o),
(1227,1171,cs),
(1227,1335,l),
(841,1335,l),
(841,1256,ls),
(841,1242,o),
(831,1233,o),
(817,1233,cs),
(378,1233,ls),
(118,1233,o),
(51,1096,o),
(51,906,cs),
(51,737,l),
(149,687,l),
(149,0,l)
);
}
);
width = 1356;
}
);
script = khmer;
subCategory = Other;
unicode = 6023;
}
{
category = Letter;
glyphname = "cho-khmer";
kernLeft = KH_LO;
layers = (
{
anchors = (
{
name = bottom;
pos = (1926,0);
},
{
name = bottomright;
pos = (2271,0);
},
{
name = top;
pos = (1926,1233);
},
{
name = topright;
pos = (2285,1233);
}
);
layerId = "B1F27B51-9973-4381-9301-4FE46FE1CA59";
shapes = (
{
closed = 1;
nodes = (
(415,-15,o),
(433,-11,o),
(462,-4,c),
(462,38,l),
(429,29,o),
(416,26,o),
(388,26,cs),
(312,26,o),
(268,71,o),
(268,151,cs),
(268,890,ls),
(268,1082,o),
(388,1201,o),
(585,1201,cs),
(783,1201,o),
(903,1082,o),
(903,890,cs),
(903,329,ls),
(903,124,o),
(1047,-15,o),
(1260,-15,cs),
(1424,-15,o),
(1548,76,o),
(1591,217,c),
(1599,217,l),
(1641,76,o),
(1767,-15,o),
(1927,-15,cs),
(2139,-15,o),
(2285,124,o),
(2285,329,cs),
(2285,896,ls),
(2285,916,o),
(2277,925,o),
(2261,931,cs),
(2114,983,l),
(2128,962,l),
(2128,1055,ls),
(2128,1152,o),
(2175,1187,o),
(2255,1187,cs),
(2348,1187,l),
(2348,1233,l),
(2255,1233,ls),
(2153,1233,o),
(2084,1184,o),
(2084,1055,cs),
(2084,950,l),
(2239,894,l),
(2239,329,ls),
(2239,153,o),
(2115,32,o),
(1927,32,cs),
(1745,32,o),
(1617,153,o),
(1617,329,cs),
(1617,896,ls),
(1617,916,o),
(1609,925,o),
(1593,931,cs),
(1447,983,l),
(1460,962,l),
(1460,1055,ls),
(1460,1152,o),
(1508,1187,o),
(1587,1187,cs),
(1680,1187,l),
(1680,1233,l),
(1587,1233,ls),
(1485,1233,o),
(1417,1184,o),
(1417,1055,cs),
(1417,950,l),
(1571,894,l),
(1571,329,ls),
(1571,153,o),
(1447,32,o),
(1260,32,cs),
(1072,32,o),
(950,153,o),
(950,329,cs),
(950,890,ls),
(950,1110,o),
(809,1248,o),
(585,1248,cs),
(362,1248,o),
(221,1110,o),
(221,890,cs),
(221,151,ls),
(221,46,o),
(279,-15,o),
(383,-15,cs)
);
}
);
width = 2506;
},
{
anchors = (
{
name = bottom;
pos = (1969,0);
},
{
name = bottomright;
pos = (2364,0);
},
{
name = top;
pos = (1969,1233);
},
{
name = topright;
pos = (2372,1233);
}
);
layerId = "C698F293-3EC0-4A5A-A3A0-0FDB1F5CF265";
shapes = (
{
closed = 1;
nodes = (
(461,-15,o),
(518,-7,o),
(537,1,c),
(537,137,l),
(516,130,o),
(494,127,o),
(471,127,cs),
(404,127,o),
(369,147,o),
(369,204,cs),
(369,847,ls),
(369,998,o),
(471,1097,o),
(625,1097,cs),
(780,1097,o),
(881,998,o),
(881,847,cs),
(881,368,ls),
(881,140,o),
(1039,-15,o),
(1285,-15,cs),
(1440,-15,o),
(1556,47,o),
(1623,162,c),
(1631,162,l),
(1697,47,o),
(1813,-15,o),
(1969,-15,cs),
(2215,-15,o),
(2372,140,o),
(2372,368,cs),
(2372,813,ls),
(2372,856,o),
(2359,872,o),
(2316,891,cs),
(2205,939,l),
(2220,879,l),
(2220,966,ls),
(2220,1037,o),
(2257,1076,o),
(2339,1076,cs),
(2429,1076,l),
(2429,1233,l),
(2327,1233,ls),
(2164,1233,o),
(2083,1151,o),
(2083,977,cs),
(2083,855,l),
(2205,799,l),
(2205,377,ls),
(2205,234,o),
(2114,134,o),
(1961,134,cs),
(1803,134,o),
(1711,234,o),
(1711,377,cs),
(1711,813,ls),
(1711,856,o),
(1697,872,o),
(1654,891,cs),
(1543,939,l),
(1558,879,l),
(1558,966,ls),
(1558,1037,o),
(1595,1076,o),
(1677,1076,cs),
(1767,1076,l),
(1767,1233,l),
(1665,1233,ls),
(1503,1233,o),
(1421,1151,o),
(1421,977,cs),
(1421,855,l),
(1543,799,l),
(1543,377,ls),
(1543,234,o),
(1450,134,o),
(1292,134,cs),
(1139,134,o),
(1049,234,o),
(1049,377,cs),
(1049,853,ls),
(1049,1092,o),
(880,1248,o),
(625,1248,cs),
(370,1248,o),
(202,1092,o),
(202,853,cs),
(202,200,ls),
(202,75,o),
(269,-15,o),
(438,-15,cs)
);
}
);
width = 2582;
},
{
anchors = (
{
name = bottom;
pos = (1992,0);
},
{
name = bottomright;
pos = (2499,0);
},
{
name = top;
pos = (1993,1233);
},
{
name = topright;
pos = (2521,1233);
}
);
layerId = "5C20EF92-B63D-42A8-8878-93C2863E0093";
shapes = (
{
closed = 1;
nodes = (
(523,-7,o),
(603,1,o),
(667,27,c),
(667,282,l),
(639,276,o),
(615,273,o),
(601,273,cs),
(555,273,o),
(531,296,o),
(531,335,cs),
(531,815,ls),
(531,898,o),
(582,954,o),
(665,954,cs),
(747,954,o),
(801,898,o),
(801,815,cs),
(801,403,ls),
(801,144,o),
(960,-15,o),
(1283,-15,cs),
(1441,-15,o),
(1599,23,o),
(1657,142,c),
(1666,142,l),
(1725,23,o),
(1870,-15,o),
(2037,-15,cs),
(2354,-15,o),
(2521,145,o),
(2521,403,cs),
(2521,695,ls),
(2521,756,o),
(2489,774,o),
(2436,790,cs),
(2263,842,l),
(2308,783,l),
(2308,852,ls),
(2308,880,o),
(2331,895,o),
(2375,895,cs),
(2550,895,l),
(2550,1233,l),
(2324,1233,ls),
(2086,1233,o),
(2020,1116,o),
(2020,953,cs),
(2020,737,l),
(2127,693,l),
(2127,420,ls),
(2127,335,o),
(2075,279,o),
(1992,279,cs),
(1910,279,o),
(1858,335,o),
(1858,420,cs),
(1858,695,ls),
(1858,756,o),
(1826,774,o),
(1773,790,cs),
(1599,842,l),
(1645,783,l),
(1645,852,ls),
(1645,880,o),
(1668,895,o),
(1712,895,cs),
(1887,895,l),
(1887,1233,l),
(1660,1233,ls),
(1423,1233,o),
(1358,1116,o),
(1358,953,cs),
(1358,737,l),
(1464,693,l),
(1464,420,ls),
(1464,335,o),
(1411,279,o),
(1327,279,cs),
(1245,279,o),
(1195,335,o),
(1195,420,cs),
(1195,831,ls),
(1195,1089,o),
(1011,1248,o),
(665,1248,cs),
(318,1248,o),
(137,1089,o),
(137,831,cs),
(137,260,ls),
(137,87,o),
(257,-7,o),
(465,-7,cs)
);
}
);
width = 2657;
}
);
script = khmer;
subCategory = Other;
unicode = 6024;
}
{
category = Letter;
glyphname = "nyo-khmer";
kernLeft = KH_PO;
layers = (
{
anchors = (
{
name = bottom;
pos = (1114,-559);
},
{
name = bottomright;
pos = (1612,-559);
},
{
name = top;
pos = (1281,1233);
},
{
name = topright;
pos = (1619,1233);
}
);
layerId = "B1F27B51-9973-4381-9301-4FE46FE1CA59";
shapes = (
{
closed = 1;
nodes = (
(1526,-570,o),
(1633,-438,o),
(1633,-237,cs),
(1633,-105,l),
(1587,-105,l),
(1587,-237,ls),
(1587,-410,o),
(1499,-524,o),
(1317,-524,cs),
(1043,-524,o),
(879,-293,o),
(517,-293,cs),
(430,-293,o),
(345,-306,o),
(257,-330,c),
(257,-378,l),
(345,-352,o),
(430,-340,o),
(517,-340,cs),
(870,-340,o),
(1025,-570,o),
(1314,-570,cs)
);
},
{
ref = "nyo-khmer.less";
}
);
width = 1855;
},
{
anchors = (
{
name = bottom;
pos = (1334,-559);
},
{
name = bottomright;
pos = (1737,-559);
},
{
name = top;
pos = (1329,1233);
},
{
name = topright;
pos = (1737,1233);
}
);
layerId = "C698F293-3EC0-4A5A-A3A0-0FDB1F5CF265";
shapes = (
{
closed = 1;
nodes = (
(1626,-573,o),
(1751,-458,o),
(1751,-225,cs),
(1751,-105,l),
(1584,-105,l),
(1584,-225,ls),
(1584,-364,o),
(1517,-422,o),
(1382,-422,cs),
(1104,-422,o),
(918,-216,o),
(530,-216,cs),
(433,-216,o),
(340,-229,o),
(243,-255,c),
(243,-407,l),
(340,-380,o),
(433,-367,o),
(530,-367,cs),
(884,-367,o),
(1068,-573,o),
(1382,-573,cs)
);
},
{
ref = "nyo-khmer.less";
}
);
width = 1953;
},
{
anchors = (
{
name = bottom;
pos = (1336,-559);
},
{
name = bottomright;
pos = (1843,-559);
},
{
name = top;
pos = (1334,1233);
},
{
name = topright;
pos = (1842,1233);
}
);
layerId = "5C20EF92-B63D-42A8-8878-93C2863E0093";
shapes = (
{
closed = 1;
nodes = (
(1724,-573,o),
(1857,-444,o),
(1857,-196,cs),
(1857,-92,l),
(1463,-92,l),
(1463,-175,ls),
(1463,-228,o),
(1428,-263,o),
(1365,-263,cs),
(1129,-263,o),
(920,-127,o),
(535,-127,cs),
(383,-127,o),
(286,-148,o),
(188,-180,c),
(188,-476,l),
(286,-444,o),
(384,-423,o),
(489,-423,cs),
(927,-423,o),
(1100,-573,o),
(1451,-573,cs)
);
},
{
ref = "nyo-khmer.less";
}
);
width = 1994;
}
);
script = khmer;
subCategory = Other;
unicode = 6025;
}
{
category = Letter;
glyphname = "da-khmer";
kernLeft = KH_DA;
layers = (
{
anchors = (
{
name = bottom;
pos = (607,0);
},
{
name = bottomright;
pos = (993,0);
},
{
name = top;
pos = (607,1233);
},
{
name = topright;
pos = (993,1233);
}
);
layerId = "B1F27B51-9973-4381-9301-4FE46FE1CA59";
shapes = (
{
closed = 1;
nodes = (
(266,0,l),
(606,374,l),
(609,374,l),
(948,0,l),
(993,0,l),
(993,745,l),
(947,745,l),
(947,71,l),
(944,71,l),
(622,424,l),
(593,424,l),
(271,71,l),
(268,71,l),
(268,745,l),
(221,745,l),
(221,0,l)
);
},
{
closed = 1;
nodes = (
(852,873,o),
(1001,995,o),
(1001,1207,cs),
(1001,1373,l),
(954,1373,l),
(954,1207,ls),
(954,1024,o),
(823,919,o),
(596,919,cs),
(381,919,o),
(260,1004,o),
(260,1153,cs),
(260,1233,l),
(214,1233,l),
(214,1153,ls),
(214,975,o),
(351,873,o),
(596,873,cs)
);
}
);
width = 1215;
},
{
anchors = (
{
name = bottom;
pos = (646,0);
},
{
name = bottomright;
pos = (1089,0);
},
{
name = top;
pos = (643,1233);
},
{
name = topright;
pos = (1084,1233);
}
);
layerId = "C698F293-3EC0-4A5A-A3A0-0FDB1F5CF265";
shapes = (
{
closed = 1;
nodes = (
(368,0,l),
(644,291,l),
(648,291,l),
(924,0,l),
(1089,0,l),
(1089,745,l),
(922,745,l),
(922,208,l),
(915,208,l),
(681,448,l),
(610,448,l),
(377,208,l),
(369,208,l),
(369,745,l),
(202,745,l),
(202,0,l)
);
},
{
closed = 1;
nodes = (
(929,829,o),
(1097,986,o),
(1097,1260,cs),
(1097,1373,l),
(929,1373,l),
(929,1231,ls),
(929,1065,o),
(824,970,o),
(639,970,cs),
(464,970,o),
(364,1049,o),
(364,1187,cs),
(364,1233,l),
(196,1233,l),
(196,1180,ls),
(196,957,o),
(357,829,o),
(637,829,cs)
);
}
);
width = 1292;
},
{
anchors = (
{
name = bottom;
pos = (672,0);
},
{
name = bottomright;
pos = (1207,0);
},
{
name = top;
pos = (672,1233);
},
{
name = topright;
pos = (1207,1233);
}
);
background = {
shapes = (
{
closed = 1;
nodes = (
(512,0,l),
(655,191,l),
(664,191,l),
(807,0,l),
(1191,0,l),
(1191,711,l),
(806,711,l),
(806,352,l),
(797,352,l),
(692,487,l),
(628,487,l),
(522,352,l),
(513,352,l),
(513,708,l),
(128,708,l),
(128,0,l)
);
},
{
closed = 1;
nodes = (
(1015,803,o),
(1201,933,o),
(1201,1216,cs),
(1201,1350,l),
(815,1350,l),
(815,1186,ls),
(815,1100,o),
(754,1058,o),
(656,1058,cs),
(559,1058,o),
(507,1100,o),
(507,1172,cs),
(507,1233,l),
(121,1233,l),
(121,1121,ls),
(121,889,o),
(295,803,o),
(657,803,cs)
);
}
);
};
layerId = "5C20EF92-B63D-42A8-8878-93C2863E0093";
shapes = (
{
closed = 1;
nodes = (
(529,0,l),
(668,186,l),
(676,186,l),
(815,0,l),
(1207,0,l),
(1207,721,l),
(813,721,l),
(813,359,l),
(804,359,l),
(704,489,l),
(640,489,l),
(540,359,l),
(531,359,l),
(531,721,l),
(137,721,l),
(137,0,l)
);
},
{
closed = 1;
nodes = (
(1030,801,o),
(1217,932,o),
(1217,1215,cs),
(1217,1335,l),
(823,1335,l),
(823,1185,ls),
(823,1101,o),
(763,1062,o),
(668,1062,cs),
(575,1062,o),
(524,1102,o),
(524,1172,cs),
(524,1233,l),
(130,1233,l),
(130,1120,ls),
(130,915,o),
(258,801,o),
(670,801,cs)
);
}
);
width = 1344;
}
);
script = khmer;
subCategory = Other;
unicode = 6026;
}
{
category = Letter;
glyphname = "ttha-khmer";
layers = (
{
anchors = (
{
name = bottom;
pos = (607,-1);
},
{
name = bottomright;
pos = (979,0);
},
{
name = top;
pos = (603,1233);
},
{
name = topright;
pos = (993,1233);
}
);
layerId = "B1F27B51-9973-4381-9301-4FE46FE1CA59";
shapes = (
{
closed = 1;
nodes = (
(836,-15,o),
(993,124,o),
(993,329,cs),
(993,896,ls),
(993,916,o),
(985,926,o),
(968,931,cs),
(799,983,l),
(806,962,l),
(806,1076,ls),
(806,1158,o),
(847,1188,o),
(914,1188,cs),
(1017,1188,ls),
(1040,1188,o),
(1052,1199,o),
(1052,1222,cs),
(1052,1373,l),
(1008,1373,l),
(1008,1233,l),
(914,1233,ls),
(819,1233,o),
(762,1188,o),
(762,1076,cs),
(762,951,l),
(947,895,l),
(947,329,ls),
(947,153,o),
(812,32,o),
(607,32,cs),
(401,32,o),
(268,153,o),
(268,329,cs),
(268,722,ls),
(268,873,o),
(364,964,o),
(364,1093,cs),
(364,1188,o),
(312,1241,o),
(220,1241,cs),
(195,1241,o),
(171,1237,o),
(138,1229,c),
(138,1185,l),
(171,1195,o),
(201,1197,o),
(217,1197,cs),
(284,1197,o),
(317,1163,o),
(317,1091,cs),
(317,968,o),
(221,889,o),
(221,721,cs),
(221,329,ls),
(221,132,o),
(377,-15,o),
(607,-15,cs)
);
}
);
width = 1215;
},
{
anchors = (
{
name = bottom;
pos = (641,0);
},
{
name = bottomright;
pos = (1068,0);
},
{
name = top;
pos = (643,1233);
},
{
name = topright;
pos = (1082,1233);
}
);
layerId = "C698F293-3EC0-4A5A-A3A0-0FDB1F5CF265";
shapes = (
{
closed = 1;
nodes = (
(904,-15,o),
(1082,147,o),
(1082,384,cs),
(1082,816,ls),
(1082,859,o),
(1069,879,o),
(1025,894,cs),
(828,962,l),
(876,887,l),
(876,977,ls),
(876,1047,o),
(908,1078,o),
(975,1078,cs),
(1073,1078,ls),
(1143,1078,o),
(1174,1108,o),
(1174,1178,cs),
(1174,1373,l),
(1014,1373,l),
(1014,1233,l),
(965,1233,ls),
(808,1233,o),
(732,1163,o),
(732,1001,cs),
(732,853,l),
(915,792,l),
(915,393,ls),
(915,241,o),
(804,137,o),
(642,137,cs),
(480,137,o),
(369,241,o),
(369,393,cs),
(369,657,ls),
(369,847,o),
(451,905,o),
(451,1062,cs),
(451,1153,o),
(396,1241,o),
(252,1241,cs),
(217,1241,o),
(183,1237,o),
(143,1228,c),
(143,1091,l),
(164,1095,o),
(190,1098,o),
(209,1098,cs),
(272,1098,o),
(288,1057,o),
(288,1018,cs),
(288,942,o),
(202,857,o),
(202,677,cs),
(202,384,ls),
(202,147,o),
(380,-15,o),
(642,-15,cs)
);
}
);
width = 1284;
},
{
anchors = (
{
name = bottom;
pos = (674,0);
},
{
name = bottomright;
pos = (1185,0);
},
{
name = top;
pos = (675,1233);
},
{
name = topright;
pos = (1206,1233);
}
);
layerId = "5C20EF92-B63D-42A8-8878-93C2863E0093";
shapes = (
{
closed = 1;
nodes = (
(1022,-15,o),
(1207,144,o),
(1207,403,cs),
(1207,729,ls),
(1207,796,o),
(1175,818,o),
(1121,833,cs),
(851,908,l),
(935,773,l),
(935,889,ls),
(935,935,o),
(951,945,o),
(992,945,cs),
(1094,945,ls),
(1204,945,o),
(1269,1010,o),
(1269,1123,cs),
(1269,1334,l),
(894,1334,l),
(894,1233,l),
(855,1233,ls),
(721,1233,o),
(643,1152,o),
(643,1011,cs),
(643,741,l),
(812,681,l),
(812,419,ls),
(812,335,o),
(757,279,o),
(671,279,cs),
(584,279,o),
(530,335,o),
(530,419,cs),
(530,705,ls),
(530,817,o),
(581,851,o),
(581,998,cs),
(581,1177,o),
(478,1248,o),
(307,1248,cs),
(220,1248,o),
(130,1237,o),
(87,1226,c),
(87,951,l),
(109,956,o),
(116,958,o),
(133,958,cs),
(164,958,o),
(181,940,o),
(181,909,cs),
(181,857,o),
(136,822,o),
(136,680,cs),
(136,403,ls),
(136,144,o),
(319,-15,o),
(671,-15,cs)
);
}
);
width = 1353;
}
);
script = khmer;
subCategory = Other;
unicode = 6027;
}
{
category = Letter;
glyphname = "do-khmer";
kernLeft = KH_DO;
layers = (
{
anchors = (
{
name = bottom;
pos = (604,0);
},
{
name = bottomright;
pos = (970,0);
},
{
name = top;
pos = (600,1233);
},
{
name = topright;
pos = (985,1233);
}
);
layerId = "B1F27B51-9973-4381-9301-4FE46FE1CA59";
shapes = (
{
closed = 1;
nodes = (
(745,-15,o),
(867,97,o),
(920,241,c),
(924,241,l),
(924,0,l),
(970,0,l),
(970,469,l),
(926,469,l),
(926,446,ls),
(926,249,o),
(807,31,o),
(549,31,cs),
(360,31,o),
(252,145,o),
(252,343,cs),
(252,571,l),
(640,571,ls),
(880,571,o),
(999,671,o),
(999,875,cs),
(999,1041,ls),
(999,1167,o),
(932,1239,o),
(814,1239,cs),
(720,1239,o),
(644,1183,o),
(604,1087,c),
(600,1087,l),
(561,1183,o),
(485,1239,o),
(391,1239,cs),
(273,1239,o),
(205,1169,o),
(205,1049,cs),
(205,894,l),
(252,894,l),
(252,1049,ls),
(252,1143,o),
(303,1196,o),
(393,1196,cs),
(475,1196,o),
(545,1134,o),
(587,1025,c),
(617,1025,l),
(659,1134,o),
(730,1196,o),
(812,1196,cs),
(902,1196,o),
(953,1140,o),
(953,1041,cs),
(953,875,ls),
(953,703,o),
(849,617,o),
(639,617,cs),
(205,617,l),
(205,343,ls),
(205,116,o),
(330,-15,o),
(549,-15,cs)
);
}
);
width = 1174;
},
{
anchors = (
{
name = bottom;
pos = (634,0);
},
{
name = bottomright;
pos = (1060,0);
},
{
name = top;
pos = (634,1233);
},
{
name = topright;
pos = (1063,1233);
}
);
layerId = "C698F293-3EC0-4A5A-A3A0-0FDB1F5CF265";
shapes = (
{
closed = 1;
nodes = (
(703,-15,o),
(824,37,o),
(886,148,c),
(895,148,l),
(895,0,l),
(1060,0,l),
(1060,423,l),
(893,423,l),
(893,417,ls),
(893,262,o),
(777,135,o),
(609,135,cs),
(446,135,o),
(348,225,o),
(348,380,cs),
(348,508,l),
(639,508,ls),
(950,508,o),
(1087,625,o),
(1087,873,cs),
(1087,989,ls),
(1087,1141,o),
(985,1241,o),
(836,1241,cs),
(748,1241,o),
(668,1197,o),
(636,1120,c),
(631,1120,l),
(599,1197,o),
(519,1241,o),
(431,1241,cs),
(275,1241,o),
(180,1140,o),
(180,989,cs),
(180,832,l),
(348,832,l),
(348,971,ls),
(348,1041,o),
(391,1084,o),
(452,1084,cs),
(525,1084,o),
(584,1031,o),
(603,951,c),
(664,951,l),
(684,1036,o),
(740,1091,o),
(809,1091,cs),
(874,1091,o),
(919,1046,o),
(919,971,cs),
(919,873,ls),
(919,720,o),
(827,644,o),
(647,644,cs),
(180,644,l),
(180,360,ls),
(180,135,o),
(326,-15,o),
(561,-15,cs)
);
}
);
width = 1263;
},
{
anchors = (
{
name = bottom;
pos = (663,0);
},
{
name = bottomright;
pos = (1178,0);
},
{
name = top;
pos = (665,1233);
},
{
name = topright;
pos = (1191,1233);
}
);
layerId = "5C20EF92-B63D-42A8-8878-93C2863E0093";
shapes = (
{
closed = 1;
nodes = (
(653,-15,o),
(742,35,o),
(794,140,c),
(808,140,l),
(808,0,l),
(1178,0,l),
(1178,403,l),
(807,403,l),
(804,391,ls),
(785,310,o),
(738,263,o),
(657,263,cs),
(569,263,o),
(515,319,o),
(515,401,cs),
(515,465,l),
(641,465,ls),
(1111,465,o),
(1204,657,o),
(1204,866,cs),
(1204,967,ls),
(1204,1141,o),
(1100,1241,o),
(916,1241,cs),
(793,1241,o),
(721,1194,o),
(668,1114,c),
(657,1114,l),
(604,1194,o),
(537,1241,o),
(415,1241,cs),
(229,1241,o),
(122,1141,o),
(122,967,cs),
(122,799,l),
(516,799,l),
(516,865,ls),
(516,904,o),
(538,930,o),
(571,930,cs),
(601,930,o),
(629,908,o),
(637,868,c),
(689,868,l),
(697,907,o),
(724,930,o),
(756,930,cs),
(789,930,o),
(810,904,o),
(810,865,cs),
(810,828,ls),
(810,729,o),
(764,684,o),
(625,684,cs),
(122,684,l),
(122,347,ls),
(122,127,o),
(268,-15,o),
(519,-15,cs)
);
}
);
width = 1315;
}
);
script = khmer;
subCategory = Other;
unicode = 6028;
}
{
category = Letter;
glyphname = "ttho-khmer";
kernLeft = KH_PO;
layers = (
{
anchors = (
{
name = bottom;
pos = (1276,0);
},
{
name = bottomright;
pos = (1619,0);
},
{
name = top;
pos = (1276,1233);
},
{
name = topright;
pos = (1633,1233);
}
);
layerId = "B1F27B51-9973-4381-9301-4FE46FE1CA59";
shapes = (
{
closed = 1;
nodes = (
(413,-7,o),
(433,-4,o),
(462,3,c),
(462,45,l),
(429,36,o),
(415,33,o),
(392,33,cs),
(311,33,o),
(268,79,o),
(268,158,cs),
(268,1051,ls),
(268,1142,o),
(317,1197,o),
(390,1197,cs),
(466,1197,o),
(533,1135,o),
(578,1027,c),
(609,1027,l),
(650,1135,o),
(721,1197,o),
(797,1197,cs),
(870,1197,o),
(919,1142,o),
(919,1051,cs),
(919,340,l),
(890,305,o),
(871,276,o),
(871,228,cs),
(871,152,o),
(884,97,o),
(927,0,c),
(961,0,l),
(966,329,l),
(966,1051,ls),
(966,1167,o),
(897,1241,o),
(797,1241,cs),
(711,1241,o),
(641,1185,o),
(596,1089,c),
(591,1089,l),
(544,1185,o),
(476,1241,o),
(390,1241,cs),
(289,1241,o),
(221,1167,o),
(221,1051,cs),
(221,158,ls),
(221,53,o),
(278,-7,o),
(386,-7,cs)
);
},
{
closed = 1;
nodes = (
(1564,-9,o),
(1633,65,o),
(1633,193,cs),
(1633,896,ls),
(1633,916,o),
(1625,925,o),
(1609,931,cs),
(1463,983,l),
(1476,962,l),
(1476,1055,ls),
(1476,1152,o),
(1524,1187,o),
(1603,1187,cs),
(1696,1187,l),
(1696,1233,l),
(1603,1233,ls),
(1501,1233,o),
(1433,1184,o),
(1433,1055,cs),
(1433,950,l),
(1587,894,l),
(1587,192,ls),
(1587,100,o),
(1539,38,o),
(1453,38,cs),
(1253,38,o),
(1280,348,o),
(967,348,cs),
(936,348,l),
(936,301,l),
(969,301,ls),
(1257,301,o),
(1215,-9,o),
(1452,-9,cs)
);
}
);
width = 1855;
},
{
anchors = (
{
name = bottom;
pos = (1334,0);
},
{
name = bottomright;
pos = (1737,0);
},
{
name = top;
pos = (1334,1233);
},
{
name = topright;
pos = (1751,1233);
}
);
layerId = "C698F293-3EC0-4A5A-A3A0-0FDB1F5CF265";
shapes = (
{
closed = 1;
nodes = (
(461,-7,o),
(518,0,o),
(537,8,c),
(537,144,l),
(516,137,o),
(494,135,o),
(471,135,cs),
(404,135,o),
(369,154,o),
(369,211,cs),
(369,971,ls),
(369,1041,o),
(409,1084,o),
(475,1084,cs),
(544,1084,o),
(596,1034,o),
(615,951,c),
(676,951,l),
(696,1039,o),
(748,1091,o),
(817,1091,cs),
(883,1091,o),
(922,1047,o),
(922,971,cs),
(922,388,l),
(867,363,o),
(836,312,o),
(836,239,cs),
(836,162,o),
(881,91,o),
(940,0,c),
(1085,0,l),
(1089,306,l),
(1089,982,ls),
(1089,1144,o),
(1002,1241,o),
(854,1241,cs),
(756,1241,o),
(681,1197,o),
(649,1120,c),
(643,1120,l),
(610,1197,o),
(537,1241,o),
(438,1241,cs),
(289,1241,o),
(202,1144,o),
(202,982,cs),
(202,207,ls),
(202,82,o),
(269,-7,o),
(438,-7,cs)
);
},
{
closed = 1;
nodes = (
(1669,-12,o),
(1751,70,o),
(1751,208,cs),
(1751,813,ls),
(1751,856,o),
(1737,872,o),
(1695,891,cs),
(1584,939,l),
(1599,879,l),
(1599,966,ls),
(1599,1037,o),
(1636,1076,o),
(1718,1076,cs),
(1808,1076,l),
(1808,1233,l),
(1706,1233,ls),
(1543,1233,o),
(1462,1151,o),
(1462,977,cs),
(1462,855,l),
(1584,799,l),
(1584,219,ls),
(1584,162,o),
(1559,134,o),
(1514,134,cs),
(1388,134,o),
(1338,388,o),
(1093,388,cs),
(1014,388,l),
(1014,239,l),
(1100,239,ls),
(1252,239,o),
(1288,-12,o),
(1532,-12,cs)
);
}
);
width = 1954;
},
{
anchors = (
{
name = bottom;
pos = (1337,0);
},
{
name = bottomright;
pos = (1855,0);
},
{
name = top;
pos = (1337,1233);
},
{
name = topright;
pos = (1855,1233);
}
);
layerId = "5C20EF92-B63D-42A8-8878-93C2863E0093";
shapes = (
{
closed = 1;
nodes = (
(521,-7,o),
(601,1,o),
(667,27,c),
(667,282,l),
(639,276,o),
(618,273,o),
(601,273,cs),
(554,273,o),
(529,296,o),
(529,334,cs),
(529,865,ls),
(529,903,o),
(553,930,o),
(585,930,cs),
(615,930,o),
(641,908,o),
(649,868,c),
(701,868,l),
(708,906,o),
(735,930,o),
(767,930,cs),
(799,930,o),
(820,903,o),
(820,865,cs),
(820,425,l),
(765,396,o),
(743,350,o),
(743,282,cs),
(743,213,o),
(775,111,o),
(855,0,c),
(1200,0,l),
(1215,219,l),
(1215,945,ls),
(1215,1127,o),
(1103,1241,o),
(927,1241,cs),
(826,1241,o),
(724,1198,o),
(681,1114,c),
(670,1114,l),
(626,1198,o),
(526,1241,o),
(417,1241,cs),
(249,1241,o),
(137,1127,o),
(137,945,cs),
(137,261,ls),
(137,87,o),
(257,-7,o),
(465,-7,cs)
);
},
{
closed = 1;
nodes = (
(1767,-12,o),
(1857,95,o),
(1857,272,cs),
(1857,695,ls),
(1857,756,o),
(1825,774,o),
(1772,790,cs),
(1599,842,l),
(1644,783,l),
(1644,852,ls),
(1644,880,o),
(1667,895,o),
(1711,895,cs),
(1886,895,l),
(1886,1233,l),
(1660,1233,ls),
(1422,1233,o),
(1356,1116,o),
(1356,953,cs),
(1356,737,l),
(1463,693,l),
(1463,339,ls),
(1463,312,o),
(1450,297,o),
(1425,297,cs),
(1355,297,o),
(1268,431,o),
(1107,431,cs),
(1064,431,l),
(1064,170,l),
(1072,170,ls),
(1279,170,o),
(1313,-12,o),
(1588,-12,cs)
);
}
);
width = 1994;
}
);
metricRight = "=ba-khmer";
script = khmer;
subCategory = Other;
unicode = 6029;
}
{
category = Letter;
glyphname = "nno-khmer";
kernLeft = KH_LO;
layers = (
{
anchors = (
{
name = bottom;
pos = (1253,0);
},
{
name = bottomright;
pos = (1587,0);
},
{
name = top;
pos = (1253,1233);
},
{
name = topright;
pos = (2271,1233);
}
);
layerId = "B1F27B51-9973-4381-9301-4FE46FE1CA59";
shapes = (
{
closed = 1;
nodes = (
(413,-7,o),
(433,-4,o),
(462,3,c),
(462,45,l),
(429,36,o),
(415,33,o),
(392,33,cs),
(311,33,o),
(268,79,o),
(268,158,cs),
(268,893,ls),
(268,1076,o),
(400,1201,o),
(593,1201,cs),
(787,1201,o),
(919,1076,o),
(919,893,cs),
(919,0,l),
(967,0,l),
(1252,337,l),
(1255,337,l),
(1540,0,l),
(1587,0,l),
(1587,893,ls),
(1587,1076,o),
(1719,1201,o),
(1913,1201,cs),
(2109,1201,o),
(2239,1076,o),
(2239,893,cs),
(2239,0,l),
(2285,0,l),
(2285,893,ls),
(2285,1104,o),
(2134,1248,o),
(1913,1248,cs),
(1692,1248,o),
(1540,1104,o),
(1540,893,cs),
(1540,69,l),
(1537,69,l),
(1266,388,l),
(1240,388,l),
(969,69,l),
(966,69,l),
(966,893,ls),
(966,1104,o),
(815,1248,o),
(593,1248,cs),
(372,1248,o),
(221,1104,o),
(221,893,cs),
(221,158,ls),
(221,53,o),
(278,-7,o),
(386,-7,cs)
);
}
);
width = 2506;
},
{
anchors = (
{
name = bottom;
pos = (1291,0);
},
{
name = bottomright;
pos = (1692,0);
},
{
name = top;
pos = (1291,1233);
},
{
name = topright;
pos = (2366,1233);
}
);
layerId = "C698F293-3EC0-4A5A-A3A0-0FDB1F5CF265";
shapes = (
{
closed = 1;
nodes = (
(461,-7,o),
(518,0,o),
(537,8,c),
(537,144,l),
(516,137,o),
(494,135,o),
(471,135,cs),
(404,135,o),
(369,154,o),
(369,211,cs),
(369,845,ls),
(369,997,o),
(476,1097,o),
(630,1097,cs),
(784,1097,o),
(890,997,o),
(890,845,cs),
(890,0,l),
(1055,0,l),
(1288,279,l),
(1293,279,l),
(1527,0,l),
(1692,0,l),
(1692,845,ls),
(1692,997,o),
(1798,1097,o),
(1952,1097,cs),
(2106,1097,o),
(2212,997,o),
(2212,845,cs),
(2212,0,l),
(2380,0,l),
(2380,852,ls),
(2380,1097,o),
(2205,1248,o),
(1952,1248,cs),
(1699,1248,o),
(1524,1097,o),
(1524,852,cs),
(1524,228,l),
(1517,228,l),
(1316,464,l),
(1266,464,l),
(1065,228,l),
(1057,228,l),
(1057,852,ls),
(1057,1097,o),
(883,1248,o),
(630,1248,cs),
(377,1248,o),
(202,1097,o),
(202,852,cs),
(202,207,ls),
(202,82,o),
(269,-7,o),
(438,-7,cs)
);
}
);
width = 2582;
},
{
anchors = (
{
name = bottom;
pos = (1298,0);
},
{
name = bottomright;
pos = (1812,0);
},
{
name = top;
pos = (1298,1233);
},
{
name = topright;
pos = (2445,1233);
}
);
layerId = "5C20EF92-B63D-42A8-8878-93C2863E0093";
shapes = (
{
closed = 1;
nodes = (
(521,-7,o),
(601,1,o),
(667,27,c),
(667,282,l),
(639,276,o),
(618,273,o),
(601,273,cs),
(554,273,o),
(531,296,o),
(531,334,cs),
(531,822,ls),
(531,901,o),
(579,954,o),
(657,954,cs),
(735,954,o),
(784,901,o),
(784,822,cs),
(784,0,l),
(1165,0,l),
(1294,164,l),
(1303,164,l),
(1431,0,l),
(1812,0,l),
(1812,822,ls),
(1812,901,o),
(1860,954,o),
(1939,954,cs),
(2017,954,o),
(2065,901,o),
(2065,822,cs),
(2065,0,l),
(2460,0,l),
(2460,831,ls),
(2460,1089,o),
(2280,1248,o),
(1939,1248,cs),
(1599,1248,o),
(1423,1089,o),
(1423,831,cs),
(1423,369,l),
(1413,369,l),
(1323,474,l),
(1273,474,l),
(1183,369,l),
(1174,369,l),
(1174,831,ls),
(1174,1089,o),
(995,1248,o),
(657,1248,cs),
(316,1248,o),
(137,1089,o),
(137,831,cs),
(137,260,ls),
(137,87,o),
(257,-7,o),
(465,-7,cs)
);
}
);
width = 2596;
}
);
script = khmer;
subCategory = Other;
unicode = 6030;
}
{
category = Letter;
glyphname = "ta-khmer";
layers = (
{
anchors = (
{
name = bottom;
pos = (607,0);
},
{
name = bottomright;
pos = (993,0);
},
{
name = top;
pos = (607,1233);
},
{
name = topright;
pos = (993,1233);
}
);
layerId = "B1F27B51-9973-4381-9301-4FE46FE1CA59";
shapes = (
{
closed = 1;
nodes = (
(413,-7,o),
(433,-4,o),
(462,3,c),
(462,45,l),
(429,36,o),
(415,33,o),
(392,33,cs),
(311,33,o),
(268,79,o),
(268,158,cs),
(268,582,ls),
(268,783,o),
(396,908,o),
(607,908,cs),
(819,908,o),
(947,783,o),
(947,582,cs),
(947,0,l),
(993,0,l),
(993,582,ls),
(993,810,o),
(844,954,o),
(607,954,cs),
(371,954,o),
(221,810,o),
(221,582,cs),
(221,158,ls),
(221,53,o),
(278,-7,o),
(386,-7,cs)
);
},
{
closed = 1;
nodes = (
(1001,1187,l),
(1001,1233,l),
(214,1233,l),
(214,1187,l)
);
}
);
width = 1215;
},
{
anchors = (
{
name = bottom;
pos = (646,0);
},
{
name = bottomright;
pos = (1089,0);
},
{
name = top;
pos = (646,1233);
},
{
name = topright;
pos = (1089,1233);
}
);
background = {
shapes = (
{
ref = "ka-khmer";
}
);
};
layerId = "C698F293-3EC0-4A5A-A3A0-0FDB1F5CF265";
shapes = (
{
closed = 1;
nodes = (
(461,-7,o),
(518,0,o),
(537,8,c),
(537,144,l),
(516,137,o),
(494,135,o),
(471,135,cs),
(404,135,o),
(369,154,o),
(369,211,cs),
(369,505,ls),
(369,661,o),
(481,768,o),
(646,768,cs),
(810,768,o),
(922,661,o),
(922,505,cs),
(922,0,l),
(1089,0,l),
(1089,513,ls),
(1089,755,o),
(910,919,o),
(646,919,cs),
(382,919,o),
(202,755,o),
(202,513,cs),
(202,207,ls),
(202,82,o),
(269,-7,o),
(438,-7,cs)
);
},
{
closed = 1;
nodes = (
(1097,1076,l),
(1097,1233,l),
(195,1233,l),
(195,1076,l)
);
}
);
width = 1292;
},
{
anchors = (
{
name = bottom;
pos = (672,0);
},
{
name = bottomright;
pos = (1207,0);
},
{
name = top;
pos = (672,1233);
},
{
name = topright;
pos = (1207,1233);
}
);
layerId = "5C20EF92-B63D-42A8-8878-93C2863E0093";
shapes = (
{
closed = 1;
nodes = (
(521,-7,o),
(601,1,o),
(667,27,c),
(667,282,l),
(639,276,o),
(618,273,o),
(601,273,cs),
(554,273,o),
(531,296,o),
(531,334,cs),
(531,397,ls),
(531,481,o),
(585,536,o),
(671,536,cs),
(758,536,o),
(813,481,o),
(813,397,cs),
(813,0,l),
(1207,0,l),
(1207,413,ls),
(1207,671,o),
(1022,831,o),
(671,831,cs),
(321,831,o),
(137,671,o),
(137,413,cs),
(137,260,ls),
(137,87,o),
(257,-7,o),
(465,-7,cs)
);
},
{
closed = 1;
nodes = (
(1215,895,l),
(1215,1233,l),
(129,1233,l),
(129,895,l)
);
}
);
width = 1344;
}
);
script = khmer;
subCategory = Other;
unicode = 6031;
}
{
category = Letter;
glyphname = "tha-khmer";
kernLeft = KH_CA;
layers = (
{
anchors = (
{
name = bottom;
pos = (616,0);
},
{
name = bottomright;
pos = (995,0);
},
{
name = top;
pos = (616,1233);
},
{
name = topright;
pos = (1002,1233);
}
);
layerId = "B1F27B51-9973-4381-9301-4FE46FE1CA59";
shapes = (
{
closed = 1;
nodes = (
(845,-15,o),
(1002,128,o),
(1002,336,cs),
(1002,796,ls),
(1002,900,o),
(945,961,o),
(837,961,cs),
(810,961,o),
(791,957,o),
(761,951,c),
(761,908,l),
(794,917,o),
(809,920,o),
(831,920,cs),
(913,920,o),
(956,875,o),
(956,796,cs),
(956,336,ls),
(956,156,o),
(820,32,o),
(615,32,cs),
(411,32,o),
(276,156,o),
(276,336,cs),
(276,915,ls),
(276,935,o),
(268,945,o),
(251,950,cs),
(142,983,l),
(156,962,l),
(156,1039,ls),
(156,1147,o),
(214,1187,o),
(308,1187,cs),
(908,1187,ls),
(973,1187,o),
(1002,1212,o),
(1002,1273,cs),
(1002,1373,l),
(957,1373,l),
(957,1273,ls),
(957,1245,o),
(946,1233,o),
(908,1233,cs),
(308,1233,ls),
(185,1233,o),
(112,1177,o),
(112,1039,cs),
(112,950,l),
(230,911,l),
(230,336,ls),
(230,128,o),
(386,-15,o),
(615,-15,cs)
);
}
);
width = 1223;
},
{
anchors = (
{
name = bottom;
pos = (659,0);
},
{
name = bottomright;
pos = (1088,0);
},
{
name = top;
pos = (659,1233);
},
{
name = topright;
pos = (1110,1233);
}
);
layerId = "C698F293-3EC0-4A5A-A3A0-0FDB1F5CF265";
shapes = (
{
closed = 1;
nodes = (
(932,-15,o),
(1103,144,o),
(1103,377,cs),
(1103,719,ls),
(1103,844,o),
(1036,933,o),
(867,933,cs),
(844,933,o),
(787,926,o),
(768,918,c),
(768,782,l),
(789,788,o),
(811,791,o),
(833,791,cs),
(901,791,o),
(935,772,o),
(935,715,cs),
(935,385,ls),
(935,233,o),
(832,127,o),
(659,127,cs),
(485,127,o),
(383,233,o),
(383,385,cs),
(383,813,ls),
(383,856,o),
(368,871,o),
(326,891,cs),
(207,949,l),
(236,887,l),
(236,973,ls),
(236,1044,o),
(271,1076,o),
(348,1076,cs),
(916,1076,ls),
(1039,1076,o),
(1110,1131,o),
(1110,1247,cs),
(1110,1373,l),
(945,1373,l),
(945,1266,ls),
(945,1242,o),
(936,1233,o),
(911,1233,cs),
(351,1233,ls),
(180,1233,o),
(99,1156,o),
(99,977,cs),
(99,862,l),
(215,801,l),
(215,377,ls),
(215,144,o),
(386,-15,o),
(659,-15,cs)
);
}
);
width = 1305;
},
{
anchors = (
{
name = bottom;
pos = (684,0);
},
{
name = bottomright;
pos = (1198,0);
},
{
name = top;
pos = (684,1233);
},
{
name = topright;
pos = (1220,1233);
}
);
layerId = "5C20EF92-B63D-42A8-8878-93C2863E0093";
shapes = (
{
closed = 1;
nodes = (
(1018,-15,o),
(1220,134,o),
(1220,385,cs),
(1220,548,ls),
(1220,720,o),
(1100,815,o),
(892,815,cs),
(834,815,o),
(755,807,o),
(689,780,c),
(689,526,l),
(716,532,o),
(739,534,o),
(755,534,cs),
(802,534,o),
(825,511,o),
(825,473,cs),
(825,409,ls),
(825,327,o),
(773,278,o),
(684,278,cs),
(596,278,o),
(543,326,o),
(543,409,cs),
(543,678,ls),
(543,743,o),
(512,761,o),
(457,782,cs),
(292,843,l),
(343,751,l),
(343,838,ls),
(343,876,o),
(366,895,o),
(411,895,cs),
(951,895,ls),
(1129,895,o),
(1227,993,o),
(1227,1171,cs),
(1227,1335,l),
(841,1335,l),
(841,1256,ls),
(841,1242,o),
(831,1233,o),
(817,1233,cs),
(378,1233,ls),
(118,1233,o),
(51,1096,o),
(51,906,cs),
(51,737,l),
(149,687,l),
(149,385,ls),
(149,134,o),
(345,-15,o),
(684,-15,cs)
);
}
);
width = 1356;
}
);
metricLeft = "=ca-khmer";
script = khmer;
subCategory = Other;
unicode = 6032;
}
{
category = Letter;
glyphname = "to-khmer";
kernLeft = KH_TO;
kernRight = KH_TO;
layers = (
{
anchors = (
{
name = bottom;
pos = (572,0);
},
{
name = bottomright;
pos = (889,0);
},
{
name = top;
pos = (587,1233);
},
{
name = topright;
pos = (956,1233);
}
);
background = {
anchors = (
{
name = bottom;
pos = (570,0);
},
{
name = bottomright;
pos = (881,0);
},
{
name = top;
pos = (578,1233);
},
{
name = topright;
pos = (947,1233);
}
);
shapes = (
{
closed = 1;
nodes = (
(759,-15,o),
(888,105,o),
(888,288,cs),
(888,390,ls),
(888,495,o),
(862,542,o),
(823,569,c),
(823,572,l),
(959,577,l),
(959,615,l),
(571,615,ls),
(321,615,o),
(205,723,o),
(205,892,cs),
(205,1077,o),
(352,1203,o),
(567,1203,cs),
(775,1203,o),
(917,1078,o),
(917,894,c),
(964,894,l),
(964,1104,o),
(802,1248,o),
(567,1248,cs),
(324,1248,o),
(159,1104,o),
(159,892,cs),
(159,687,o),
(290,572,o),
(570,572,cs),
(711,572,ls),
(804,572,o),
(841,494,o),
(841,388,cs),
(841,288,ls),
(841,133,o),
(731,31,o),
(570,31,cs),
(395,31,o),
(284,133,o),
(284,288,cs),
(284,400,l),
(237,400,l),
(237,288,ls),
(237,105,o),
(367,-15,o),
(569,-15,cs)
);
}
);
};
layerId = "B1F27B51-9973-4381-9301-4FE46FE1CA59";
shapes = (
{
closed = 1;
nodes = (
(780,-15,o),
(904,100,o),
(904,295,cs),
(904,390,ls),
(904,495,o),
(878,542,o),
(839,569,c),
(839,572,l),
(964,577,l),
(964,615,l),
(580,615,ls),
(330,615,o),
(214,723,o),
(214,892,cs),
(214,1076,o),
(361,1201,o),
(575,1201,cs),
(783,1201,o),
(925,1077,o),
(925,894,c),
(972,894,l),
(972,1104,o),
(810,1248,o),
(575,1248,cs),
(333,1248,o),
(167,1104,o),
(167,892,cs),
(167,687,o),
(299,572,o),
(579,572,cs),
(727,572,ls),
(820,572,o),
(857,494,o),
(857,388,cs),
(857,295,ls),
(857,129,o),
(751,32,o),
(572,32,cs),
(383,32,o),
(271,129,o),
(271,295,cs),
(271,400,l),
(224,400,l),
(224,295,ls),
(224,100,o),
(353,-15,o),
(571,-15,cs)
);
}
);
width = 1172;
},
{
anchors = (
{
name = bottom;
pos = (624,0);
},
{
name = bottomright;
pos = (972,0);
},
{
name = top;
pos = (605,1233);
},
{
name = topright;
pos = (1009,1233);
}
);
layerId = "C698F293-3EC0-4A5A-A3A0-0FDB1F5CF265";
shapes = (
{
closed = 1;
nodes = (
(839,-15,o),
(988,110,o),
(988,299,cs),
(988,410,ls),
(988,460,o),
(967,494,o),
(921,511,c),
(921,519,l),
(1057,524,l),
(1057,643,l),
(623,643,ls),
(417,643,o),
(329,737,o),
(329,866,cs),
(329,1017,o),
(443,1105,o),
(607,1105,cs),
(788,1105,o),
(897,1010,o),
(897,832,c),
(1065,832,l),
(1065,1097,o),
(885,1248,o),
(607,1248,cs),
(327,1248,o),
(160,1092,o),
(160,865,cs),
(160,625,o),
(346,509,o),
(623,509,cs),
(743,509,ls),
(808,509,o),
(822,485,o),
(822,428,cs),
(822,308,ls),
(822,199,o),
(740,127,o),
(615,127,cs),
(489,127,o),
(407,199,o),
(407,308,cs),
(407,409,l),
(241,409,l),
(241,299,ls),
(241,110,o),
(388,-15,o),
(612,-15,cs)
);
}
);
width = 1233;
},
{
anchors = (
{
name = bottom;
pos = (651,0);
},
{
name = bottomright;
pos = (1094,0);
},
{
name = top;
pos = (639,1233);
},
{
name = topright;
pos = (1167,1233);
}
);
background = {
shapes = (
{
closed = 1;
nodes = (
(945,-15,o),
(1119,97,o),
(1119,289,cs),
(1119,365,o),
(1088,422,o),
(1032,454,c),
(1032,462,l),
(1172,471,l),
(1172,667,l),
(691,667,ls),
(535,667,o),
(473,726,o),
(473,828,cs),
(473,911,o),
(529,960,o),
(623,960,cs),
(713,960,o),
(780,906,o),
(780,799,c),
(1165,799,l),
(1165,1101,o),
(979,1248,o),
(625,1248,cs),
(260,1248,o),
(79,1088,o),
(79,831,cs),
(79,585,o),
(247,453,o),
(641,453,cs),
(747,453,l),
(747,367,ls),
(747,305,o),
(708,269,o),
(639,269,cs),
(569,269,o),
(530,305,o),
(530,367,cs),
(530,404,l),
(158,404,l),
(158,340,ls),
(158,88,o),
(321,-15,o),
(639,-15,cs)
);
}
);
};
layerId = "5C20EF92-B63D-42A8-8878-93C2863E0093";
shapes = (
{
closed = 1;
nodes = (
(927,-15,o),
(1116,87,o),
(1116,287,cs),
(1116,334,ls),
(1116,383,o),
(1097,425,o),
(1029,460,c),
(1029,468,l),
(1151,477,l),
(1151,676,l),
(694,676,ls),
(543,676,o),
(481,728,o),
(481,819,cs),
(481,904,o),
(535,954,o),
(620,954,cs),
(715,954,o),
(764,891,o),
(764,796,c),
(1158,796,l),
(1158,1084,o),
(968,1248,o),
(627,1248,cs),
(284,1248,o),
(87,1096,o),
(87,830,cs),
(87,583,o),
(252,450,o),
(642,450,cs),
(711,450,ls),
(723,450,o),
(735,444,o),
(735,424,cs),
(735,358,ls),
(735,290,o),
(700,256,o),
(640,256,cs),
(580,256,o),
(545,291,o),
(545,351,cs),
(545,404,l),
(164,404,l),
(164,327,ls),
(164,104,o),
(326,-15,o),
(638,-15,cs)
);
}
);
width = 1299;
}
);
script = khmer;
subCategory = Other;
unicode = 6033;
}
{
category = Letter;
glyphname = "tho-khmer";
kernLeft = KH_CA;
layers = (
{
anchors = (
{
name = bottom;
pos = (616,0);
},
{
name = bottomright;
pos = (1002,0);
},
{
name = top;
pos = (616,1233);
},
{
name = topright;
pos = (1002,1233);
}
);
layerId = "B1F27B51-9973-4381-9301-4FE46FE1CA59";
shapes = (
{
closed = 1;
nodes = (
(275,0,l),
(615,374,l),
(617,374,l),
(957,0,l),
(1002,0,l),
(1002,796,ls),
(1002,900,o),
(944,961,o),
(841,961,cs),
(809,961,o),
(791,957,o),
(761,951,c),
(761,908,l),
(794,917,o),
(807,920,o),
(836,920,cs),
(911,920,o),
(956,875,o),
(956,796,cs),
(956,71,l),
(953,71,l),
(631,424,l),
(601,424,l),
(279,71,l),
(276,71,l),
(276,915,ls),
(276,935,o),
(268,945,o),
(251,950,cs),
(142,983,l),
(156,962,l),
(156,1039,ls),
(156,1147,o),
(214,1187,o),
(308,1187,cs),
(1002,1187,l),
(1002,1233,l),
(308,1233,ls),
(185,1233,o),
(112,1177,o),
(112,1039,cs),
(112,950,l),
(230,911,l),
(230,0,l)
);
}
);
width = 1223;
},
{
anchors = (
{
name = bottom;
pos = (659,0);
},
{
name = bottomright;
pos = (1103,0);
},
{
name = top;
pos = (659,1233);
},
{
name = topright;
pos = (1103,1233);
}
);
background = {
anchors = (
{
name = bottom;
pos = (650,0);
},
{
name = bottomright;
pos = (1079,0);
},
{
name = top;
pos = (650,1233);
},
{
name = topright;
pos = (1094,1233);
}
);
shapes = (
{
closed = 1;
nodes = (
(374,0,l),
(647,305,l),
(654,305,l),
(927,0,l),
(1094,0,l),
(1094,578,l),
(927,578,l),
(927,212,l),
(919,212,l),
(685,468,l),
(615,468,l),
(381,212,l),
(374,212,l),
(374,675,l),
(207,675,l),
(207,0,l)
);
},
{
angle = 180;
pos = (1554,1263);
ref = "_mainLoop-khmer";
},
{
pos = (48,0);
ref = "_caHair-khmer";
}
);
};
layerId = "C698F293-3EC0-4A5A-A3A0-0FDB1F5CF265";
shapes = (
{
closed = 1;
nodes = (
(383,0,l),
(655,265,l),
(663,265,l),
(935,0,l),
(1103,0,l),
(1103,719,ls),
(1103,844,o),
(1036,933,o),
(867,933,cs),
(844,933,o),
(787,926,o),
(768,918,c),
(768,782,l),
(789,788,o),
(811,791,o),
(833,791,cs),
(901,791,o),
(935,772,o),
(935,715,cs),
(935,201,l),
(928,201,l),
(694,424,l),
(624,424,l),
(390,201,l),
(383,201,l),
(383,813,ls),
(383,856,o),
(368,871,o),
(326,891,cs),
(207,949,l),
(243,887,l),
(243,973,ls),
(243,1044,o),
(276,1076,o),
(348,1076,cs),
(1110,1076,l),
(1110,1233,l),
(351,1233,ls),
(180,1233,o),
(99,1156,o),
(99,977,cs),
(99,862,l),
(215,801,l),
(215,0,l)
);
}
);
width = 1305;
},
{
anchors = (
{
name = bottom;
pos = (684,0);
},
{
name = bottomright;
pos = (1220,0);
},
{
name = top;
pos = (684,1233);
},
{
name = topright;
pos = (1220,1233);
}
);
layerId = "5C20EF92-B63D-42A8-8878-93C2863E0093";
shapes = (
{
closed = 1;
nodes = (
(557,0,l),
(680,142,l),
(689,142,l),
(812,0,l),
(1220,0,l),
(1220,548,ls),
(1220,720,o),
(1100,815,o),
(892,815,cs),
(834,815,o),
(755,807,o),
(689,780,c),
(689,526,l),
(716,532,o),
(739,534,o),
(755,534,cs),
(802,534,o),
(825,511,o),
(825,473,cs),
(825,313,l),
(817,313,l),
(716,422,l),
(652,422,l),
(552,313,l),
(543,313,l),
(543,684,ls),
(543,750,o),
(512,769,o),
(457,788,cs),
(292,843,l),
(343,735,l),
(343,838,ls),
(343,876,o),
(366,895,o),
(411,895,cs),
(1220,895,l),
(1220,1233,l),
(378,1233,ls),
(118,1233,o),
(51,1096,o),
(51,906,cs),
(51,737,l),
(149,692,l),
(149,0,l)
);
}
);
width = 1356;
}
);
metricLeft = "=ca-khmer";
script = khmer;
subCategory = Other;
unicode = 6034;
}
{
category = Letter;
glyphname = "no-khmer";
kernLeft = KH_NO;
kernRight = KH_NO;
layers = (
{
anchors = (
{
name = bottom;
pos = (588,0);
},
{
name = bottomright;
pos = (982,0);
},
{
name = top;
pos = (590,1233);
},
{
name = topright;
pos = (977,1233);
}
);
layerId = "B1F27B51-9973-4381-9301-4FE46FE1CA59";
shapes = (
{
closed = 1;
nodes = (
(919,-9,o),
(989,76,o),
(989,225,cs),
(989,615,l),
(599,615,ls),
(341,615,o),
(234,740,o),
(234,905,cs),
(234,1082,o),
(378,1203,o),
(588,1203,cs),
(801,1203,o),
(945,1078,o),
(945,894,c),
(992,894,l),
(992,1104,o),
(828,1248,o),
(588,1248,cs),
(351,1248,o),
(188,1109,o),
(188,905,cs),
(188,714,o),
(313,572,o),
(598,572,cs),
(943,572,l),
(943,225,ls),
(943,106,o),
(891,38,o),
(783,38,cs),
(558,38,o),
(585,334,o),
(299,334,cs),
(240,334,l),
(240,290,l),
(295,290,ls),
(557,290,o),
(529,-9,o),
(784,-9,cs)
);
},
{
closed = 1;
nodes = (
(256,0,l),
(256,443,l),
(209,443,l),
(209,0,l)
);
}
);
width = 1191;
},
{
anchors = (
{
name = bottom;
pos = (644,0);
},
{
name = bottomright;
pos = (1071,0);
},
{
name = top;
pos = (628,1233);
},
{
name = topright;
pos = (1061,1233);
}
);
layerId = "C698F293-3EC0-4A5A-A3A0-0FDB1F5CF265";
shapes = (
{
closed = 1;
nodes = (
(1005,-12,o),
(1085,92,o),
(1085,241,cs),
(1085,644,l),
(641,644,ls),
(436,644,o),
(348,737,o),
(348,866,cs),
(348,1017,o),
(462,1105,o),
(625,1105,cs),
(806,1105,o),
(916,1010,o),
(916,832,c),
(1083,832,l),
(1083,1097,o),
(903,1248,o),
(625,1248,cs),
(346,1248,o),
(179,1092,o),
(179,865,cs),
(179,625,o),
(365,509,o),
(641,509,cs),
(918,509,l),
(918,241,ls),
(918,175,o),
(883,131,o),
(817,131,cs),
(666,131,o),
(615,346,o),
(383,346,cs),
(353,346,l),
(353,202,l),
(375,202,ls),
(556,202,o),
(583,-12,o),
(833,-12,cs)
);
},
{
closed = 1;
nodes = (
(361,0,l),
(361,430,l),
(200,430,l),
(200,0,l)
);
}
);
width = 1279;
},
{
anchors = (
{
name = bottom;
pos = (664,0);
},
{
name = bottomright;
pos = (1159,0);
},
{
name = top;
pos = (649,1233);
},
{
name = topright;
pos = (1160,1233);
}
);
background = {
anchors = (
{
name = bottom;
pos = (652,0);
},
{
name = bottomright;
pos = (1150,0);
},
{
name = top;
pos = (647,1233);
},
{
name = topright;
pos = (1173,1233);
}
);
shapes = (
{
closed = 1;
nodes = (
(1060,-12,o),
(1166,94,o),
(1166,248,cs),
(1166,682,l),
(668,682,ls),
(557,682,o),
(495,738,o),
(495,825,cs),
(495,905,o),
(547,960,o),
(633,960,cs),
(717,960,o),
(780,906,o),
(780,799,c),
(1166,799,l),
(1166,1101,o),
(975,1248,o),
(637,1248,cs),
(281,1248,o),
(101,1085,o),
(101,841,cs),
(101,597,o),
(283,468,o),
(623,468,cs),
(782,468,l),
(782,312,ls),
(782,282,o),
(766,261,o),
(732,261,cs),
(661,261,o),
(620,344,o),
(509,344,cs),
(489,344,l),
(489,111,l),
(513,111,ls),
(601,111,o),
(652,-12,o),
(858,-12,cs)
);
},
{
closed = 1;
nodes = (
(499,0,l),
(499,404,l),
(122,404,l),
(122,0,l)
);
}
);
};
layerId = "5C20EF92-B63D-42A8-8878-93C2863E0093";
shapes = (
{
closed = 1;
nodes = (
(1074,-12,o),
(1181,95,o),
(1181,249,cs),
(1181,684,l),
(681,684,ls),
(571,684,o),
(508,738,o),
(508,823,cs),
(508,900,o),
(559,954,o),
(645,954,cs),
(725,954,o),
(787,902,o),
(787,796,c),
(1181,796,l),
(1181,1101,o),
(989,1248,o),
(649,1248,cs),
(321,1248,o),
(111,1089,o),
(111,840,cs),
(111,595,o),
(294,465,o),
(635,465,cs),
(788,465,l),
(788,314,ls),
(788,287,o),
(773,267,o),
(740,267,cs),
(673,267,o),
(632,344,o),
(526,344,cs),
(506,344,l),
(506,106,l),
(529,106,ls),
(615,106,o),
(667,-12,o),
(871,-12,cs)
);
},
{
closed = 1;
nodes = (
(516,0,l),
(516,403,l),
(131,403,l),
(131,0,l)
);
}
);
width = 1318;
}
);
script = khmer;
subCategory = Other;
unicode = 6035;
}
{
category = Letter;
glyphname = "ba-khmer";
kernLeft = KH_BA;
layers = (
{
anchors = (
{
name = bottom;
pos = (619,0);
},
{
name = bottomright;
pos = (983,0);
},
{
name = indpTail;
pos = (998,73);
},
{
name = top;
pos = (619,1233);
},
{
name = topright;
pos = (998,1233);
}
);
layerId = "B1F27B51-9973-4381-9301-4FE46FE1CA59";
shapes = (
{
closed = 1;
nodes = (
(843,-15,o),
(998,124,o),
(998,329,cs),
(998,896,ls),
(998,916,o),
(990,925,o),
(974,931,cs),
(827,983,l),
(841,962,l),
(841,1055,ls),
(841,1152,o),
(888,1187,o),
(967,1187,cs),
(1060,1187,l),
(1060,1233,l),
(967,1233,ls),
(865,1233,o),
(797,1184,o),
(797,1055,cs),
(797,950,l),
(951,894,l),
(951,329,ls),
(951,153,o),
(819,32,o),
(618,32,cs),
(417,32,o),
(287,153,o),
(287,329,cs),
(287,896,ls),
(287,916,o),
(279,925,o),
(263,931,cs),
(116,983,l),
(129,962,l),
(129,1055,ls),
(129,1152,o),
(177,1187,o),
(256,1187,cs),
(349,1187,l),
(349,1233,l),
(256,1233,ls),
(154,1233,o),
(86,1184,o),
(86,1055,cs),
(86,950,l),
(240,894,l),
(240,329,ls),
(240,124,o),
(393,-15,o),
(618,-15,cs)
);
}
);
width = 1219;
},
{
anchors = (
{
name = bottom;
pos = (652,0);
},
{
name = bottomright;
pos = (1078,0);
},
{
name = indpTail;
pos = (1092,73);
},
{
name = top;
pos = (653,1233);
},
{
name = topright;
pos = (1092,1233);
}
);
layerId = "C698F293-3EC0-4A5A-A3A0-0FDB1F5CF265";
shapes = (
{
closed = 1;
nodes = (
(914,-15,o),
(1092,147,o),
(1092,384,cs),
(1092,813,ls),
(1092,856,o),
(1079,872,o),
(1036,891,cs),
(925,939,l),
(940,879,l),
(940,966,ls),
(940,1037,o),
(977,1076,o),
(1059,1076,cs),
(1149,1076,l),
(1149,1233,l),
(1047,1233,ls),
(884,1233,o),
(803,1151,o),
(803,977,cs),
(803,855,l),
(925,799,l),
(925,393,ls),
(925,241,o),
(815,137,o),
(652,137,cs),
(490,137,o),
(380,241,o),
(380,393,cs),
(380,813,ls),
(380,856,o),
(366,872,o),
(323,891,cs),
(212,939,l),
(227,879,l),
(227,966,ls),
(227,1037,o),
(264,1076,o),
(346,1076,cs),
(436,1076,l),
(436,1233,l),
(335,1233,ls),
(172,1233,o),
(90,1151,o),
(90,977,cs),
(90,855,l),
(212,799,l),
(212,384,ls),
(212,147,o),
(391,-15,o),
(652,-15,cs)
);
}
);
width = 1295;
},
{
anchors = (
{
name = bottom;
pos = (697,0);
},
{
name = bottomright;
pos = (1215,0);
},
{
name = indpTail;
pos = (1230,73);
},
{
name = top;
pos = (698,1233);
},
{
name = topright;
pos = (1229,1233);
}
);
layerId = "5C20EF92-B63D-42A8-8878-93C2863E0093";
shapes = (
{
closed = 1;
nodes = (
(1036,-15,o),
(1230,137,o),
(1230,403,cs),
(1230,695,ls),
(1230,756,o),
(1198,774,o),
(1144,790,cs),
(971,842,l),
(1017,783,l),
(1017,852,ls),
(1017,880,o),
(1039,895,o),
(1084,895,cs),
(1258,895,l),
(1258,1233,l),
(1032,1233,ls),
(794,1233,o),
(729,1116,o),
(729,953,cs),
(729,737,l),
(836,693,l),
(836,419,ls),
(836,330,o),
(785,279,o),
(695,279,cs),
(604,279,o),
(553,330,o),
(553,419,cs),
(553,695,ls),
(553,756,o),
(521,774,o),
(468,790,cs),
(295,842,l),
(340,783,l),
(340,852,ls),
(340,880,o),
(363,895,o),
(407,895,cs),
(581,895,l),
(581,1233,l),
(356,1233,ls),
(118,1233,o),
(52,1116,o),
(52,953,cs),
(52,737,l),
(159,693,l),
(159,403,ls),
(159,137,o),
(353,-15,o),
(695,-15,cs)
);
}
);
width = 1366;
}
);
script = khmer;
subCategory = Other;
unicode = 6036;
}
{
category = Letter;
glyphname = "pha-khmer";
kernLeft = KH_CA;
layers = (
{
anchors = (
{
name = bottom;
pos = (616,0);
},
{
name = bottomright;
pos = (1002,0);
},
{
name = top;
pos = (616,1233);
},
{
name = topright;
pos = (1002,1233);
}
);
layerId = "B1F27B51-9973-4381-9301-4FE46FE1CA59";
shapes = (
{
closed = 1;
nodes = (
(275,0,l),
(615,374,l),
(617,374,l),
(957,0,l),
(1002,0,l),
(1002,796,ls),
(1002,900,o),
(944,961,o),
(841,961,cs),
(809,961,o),
(791,957,o),
(761,951,c),
(761,908,l),
(794,917,o),
(807,920,o),
(836,920,cs),
(911,920,o),
(956,875,o),
(956,796,cs),
(956,71,l),
(953,71,l),
(631,424,l),
(601,424,l),
(279,71,l),
(276,71,l),
(276,915,ls),
(276,935,o),
(268,945,o),
(251,950,cs),
(142,983,l),
(156,962,l),
(156,1039,ls),
(156,1147,o),
(214,1187,o),
(308,1187,cs),
(908,1187,ls),
(973,1187,o),
(1002,1212,o),
(1002,1273,cs),
(1002,1373,l),
(957,1373,l),
(957,1273,ls),
(957,1245,o),
(946,1233,o),
(908,1233,cs),
(308,1233,ls),
(185,1233,o),
(112,1177,o),
(112,1039,cs),
(112,950,l),
(230,911,l),
(230,0,l)
);
}
);
width = 1223;
},
{
anchors = (
{
name = bottom;
pos = (659,0);
},
{
name = bottomright;
pos = (1103,0);
},
{
name = top;
pos = (659,1233);
},
{
name = topright;
pos = (1103,1233);
}
);
layerId = "C698F293-3EC0-4A5A-A3A0-0FDB1F5CF265";
shapes = (
{
closed = 1;
nodes = (
(383,0,l),
(655,265,l),
(663,265,l),
(935,0,l),
(1103,0,l),
(1103,719,ls),
(1103,844,o),
(1036,933,o),
(867,933,cs),
(844,933,o),
(787,926,o),
(768,918,c),
(768,782,l),
(789,788,o),
(811,791,o),
(833,791,cs),
(901,791,o),
(935,772,o),
(935,715,cs),
(935,201,l),
(928,201,l),
(694,424,l),
(624,424,l),
(390,201,l),
(383,201,l),
(383,813,ls),
(383,856,o),
(368,871,o),
(326,891,cs),
(207,949,l),
(236,887,l),
(236,973,ls),
(236,1044,o),
(271,1076,o),
(348,1076,cs),
(916,1076,ls),
(1039,1076,o),
(1110,1131,o),
(1110,1247,cs),
(1110,1373,l),
(945,1373,l),
(945,1266,ls),
(945,1242,o),
(936,1233,o),
(911,1233,cs),
(351,1233,ls),
(180,1233,o),
(99,1156,o),
(99,977,cs),
(99,862,l),
(215,801,l),
(215,0,l)
);
}
);
width = 1305;
},
{
anchors = (
{
name = bottom;
pos = (684,0);
},
{
name = bottomright;
pos = (1220,0);
},
{
name = top;
pos = (684,1233);
},
{
name = topright;
pos = (1220,1233);
}
);
layerId = "5C20EF92-B63D-42A8-8878-93C2863E0093";
shapes = (
{
closed = 1;
nodes = (
(557,0,l),
(680,142,l),
(689,142,l),
(812,0,l),
(1220,0,l),
(1220,548,ls),
(1220,720,o),
(1100,815,o),
(892,815,cs),
(834,815,o),
(755,807,o),
(689,780,c),
(689,526,l),
(716,532,o),
(739,534,o),
(755,534,cs),
(802,534,o),
(825,511,o),
(825,473,cs),
(825,313,l),
(817,313,l),
(716,422,l),
(652,422,l),
(552,313,l),
(543,313,l),
(543,678,ls),
(543,743,o),
(512,761,o),
(457,782,cs),
(292,843,l),
(343,751,l),
(343,838,ls),
(343,876,o),
(366,895,o),
(411,895,cs),
(951,895,ls),
(1129,895,o),
(1227,993,o),
(1227,1171,cs),
(1227,1334,l),
(841,1334,l),
(841,1256,ls),
(841,1242,o),
(831,1233,o),
(817,1233,cs),
(378,1233,ls),
(118,1233,o),
(51,1096,o),
(51,906,cs),
(51,737,l),
(149,687,l),
(149,0,l)
);
}
);
width = 1356;
}
);
metricLeft = "=ca-khmer";
script = khmer;
subCategory = Other;
unicode = 6037;
}
{
category = Letter;
glyphname = "po-khmer";
kernLeft = KH_PO;
layers = (
{
anchors = (
{
name = bottom;
pos = (607,0);
},
{
name = bottomright;
pos = (993,0);
},
{
name = indpTail;
pos = (993,73);
},
{
name = top;
pos = (607,1233);
},
{
name = topright;
pos = (986,1233);
}
);
layerId = "B1F27B51-9973-4381-9301-4FE46FE1CA59";
shapes = (
{
closed = 1;
nodes = (
(413,-7,o),
(433,-4,o),
(462,3,c),
(462,45,l),
(429,36,o),
(415,33,o),
(392,33,cs),
(311,33,o),
(268,79,o),
(268,158,cs),
(268,1051,ls),
(268,1140,o),
(324,1199,o),
(401,1199,cs),
(483,1199,o),
(549,1136,o),
(592,1027,c),
(623,1027,l),
(665,1136,o),
(735,1199,o),
(814,1199,cs),
(890,1199,o),
(947,1140,o),
(947,1051,cs),
(947,0,l),
(993,0,l),
(993,1051,ls),
(993,1165,o),
(921,1241,o),
(817,1241,cs),
(726,1241,o),
(647,1180,o),
(609,1089,c),
(605,1089,l),
(569,1180,o),
(489,1241,o),
(398,1241,cs),
(294,1241,o),
(221,1165,o),
(221,1051,cs),
(221,158,ls),
(221,53,o),
(278,-7,o),
(386,-7,cs)
);
}
);
width = 1215;
},
{
anchors = (
{
name = bottom;
pos = (646,0);
},
{
name = bottomright;
pos = (1089,0);
},
{
name = indpTail;
pos = (1089,73);
},
{
name = top;
pos = (646,1233);
},
{
name = topright;
pos = (1075,1233);
}
);
layerId = "C698F293-3EC0-4A5A-A3A0-0FDB1F5CF265";
shapes = (
{
closed = 1;
nodes = (
(461,-7,o),
(518,0,o),
(537,8,c),
(537,144,l),
(516,137,o),
(494,135,o),
(471,135,cs),
(404,135,o),
(369,154,o),
(369,211,cs),
(369,971,ls),
(369,1041,o),
(405,1091,o),
(470,1091,cs),
(543,1091,o),
(595,1039,o),
(616,951,c),
(676,951,l),
(697,1039,o),
(753,1091,o),
(822,1091,cs),
(887,1091,o),
(922,1047,o),
(922,971,cs),
(922,0,l),
(1089,0,l),
(1089,989,ls),
(1089,1147,o),
(996,1241,o),
(848,1241,cs),
(749,1241,o),
(681,1199,o),
(649,1127,c),
(642,1127,l),
(608,1199,o),
(540,1241,o),
(443,1241,cs),
(297,1241,o),
(202,1147,o),
(202,989,cs),
(202,207,ls),
(202,82,o),
(269,-7,o),
(438,-7,cs)
);
}
);
width = 1292;
},
{
anchors = (
{
name = bottom;
pos = (676,0);
},
{
name = bottomright;
pos = (1215,0);
},
{
name = indpTail;
pos = (1215,73);
},
{
name = top;
pos = (676,1233);
},
{
name = topright;
pos = (1200,1233);
}
);
layerId = "5C20EF92-B63D-42A8-8878-93C2863E0093";
shapes = (
{
closed = 1;
nodes = (
(521,-7,o),
(601,1,o),
(667,27,c),
(667,282,l),
(639,276,o),
(618,273,o),
(601,273,cs),
(554,273,o),
(531,296,o),
(531,334,cs),
(531,865,ls),
(531,903,o),
(553,930,o),
(585,930,cs),
(614,930,o),
(642,908,o),
(649,868,c),
(702,868,l),
(710,911,o),
(739,930,o),
(767,930,cs),
(799,930,o),
(820,903,o),
(820,865,cs),
(820,0,l),
(1215,0,l),
(1215,983,ls),
(1215,1137,o),
(1122,1241,o),
(935,1241,cs),
(820,1241,o),
(735,1194,o),
(681,1114,c),
(671,1114,l),
(617,1194,o),
(532,1241,o),
(417,1241,cs),
(230,1241,o),
(137,1137,o),
(137,983,cs),
(137,260,ls),
(137,87,o),
(257,-7,o),
(465,-7,cs)
);
}
);
width = 1351;
}
);
script = khmer;
subCategory = Other;
unicode = 6038;
}
{
category = Letter;
glyphname = "pho-khmer";
kernLeft = KH_PHO;
layers = (
{
anchors = (
{
name = bottom;
pos = (607,0);
},
{
name = bottomright;
pos = (993,0);
},
{
name = top;
pos = (607,1233);
},
{
name = topright;
pos = (993,1233);
}
);
background = {
shapes = (
{
ref = "ka-khmer";
}
);
};
layerId = "B1F27B51-9973-4381-9301-4FE46FE1CA59";
shapes = (
{
closed = 1;
nodes = (
(297,-7,o),
(358,56,o),
(358,170,cs),
(358,316,o),
(262,424,o),
(262,591,cs),
(262,782,o),
(402,908,o),
(607,908,cs),
(809,908,o),
(947,775,o),
(947,582,cs),
(947,0,l),
(993,0,l),
(993,582,ls),
(993,803,o),
(837,954,o),
(607,954,cs),
(375,954,o),
(215,809,o),
(215,591,cs),
(215,413,o),
(311,313,o),
(311,170,cs),
(311,84,o),
(270,36,o),
(201,36,cs),
(186,36,o),
(156,39,o),
(132,48,c),
(132,4,l),
(156,-4,o),
(181,-7,o),
(201,-7,cs)
);
},
{
closed = 1;
nodes = (
(1001,1187,l),
(1001,1233,l),
(207,1233,l),
(207,1187,l)
);
}
);
width = 1215;
},
{
anchors = (
{
name = bottom;
pos = (646,0);
},
{
name = bottomright;
pos = (1089,0);
},
{
name = top;
pos = (646,1233);
},
{
name = topright;
pos = (1089,1233);
}
);
layerId = "C698F293-3EC0-4A5A-A3A0-0FDB1F5CF265";
shapes = (
{
closed = 1;
nodes = (
(360,-7,o),
(434,81,o),
(434,215,cs),
(434,338,o),
(369,421,o),
(369,524,cs),
(369,674,o),
(493,768,o),
(646,768,cs),
(813,768,o),
(922,661,o),
(922,505,cs),
(922,0,l),
(1089,0,l),
(1089,513,ls),
(1089,755,o),
(913,919,o),
(646,919,cs),
(407,919,o),
(202,775,o),
(202,529,cs),
(202,393,o),
(268,308,o),
(268,217,cs),
(268,167,o),
(247,127,o),
(184,127,cs),
(164,127,o),
(140,131,o),
(121,138,c),
(121,7,l),
(154,-1,o),
(192,-7,o),
(226,-7,cs)
);
},
{
closed = 1;
nodes = (
(1097,1076,l),
(1097,1233,l),
(195,1233,l),
(195,1076,l)
);
}
);
width = 1292;
},
{
anchors = (
{
name = bottom;
pos = (684,0);
},
{
name = bottomright;
pos = (1222,0);
},
{
name = top;
pos = (684,1233);
},
{
name = topright;
pos = (1222,1233);
}
);
layerId = "5C20EF92-B63D-42A8-8878-93C2863E0093";
shapes = (
{
closed = 1;
nodes = (
(467,-15,o),
(561,53,o),
(561,217,cs),
(561,292,o),
(543,360,o),
(543,406,cs),
(543,484,o),
(599,536,o),
(684,536,cs),
(775,536,o),
(828,479,o),
(828,397,cs),
(828,0,l),
(1222,0,l),
(1222,413,ls),
(1222,672,o),
(1035,831,o),
(685,831,cs),
(338,831,o),
(152,674,o),
(152,472,cs),
(152,403,o),
(174,349,o),
(174,313,cs),
(174,282,o),
(156,266,o),
(124,266,cs),
(108,266,o),
(90,269,o),
(65,276,c),
(65,9,l),
(142,-6,o),
(215,-15,o),
(281,-15,cs)
);
},
{
closed = 1;
nodes = (
(1229,895,l),
(1229,1233,l),
(144,1233,l),
(144,895,l)
);
}
);
width = 1359;
}
);
script = khmer;
subCategory = Other;
unicode = 6039;
}
{
category = Letter;
glyphname = "yo-khmer";
layers = (
{
anchors = (
{
name = bottom;
pos = (1268,0);
},
{
name = bottomright;
pos = (1620,0);
},
{
name = top;
pos = (1268,1233);
},
{
name = topright;
pos = (1633,1233);
}
);
layerId = "B1F27B51-9973-4381-9301-4FE46FE1CA59";
shapes = (
{
closed = 1;
nodes = (
(758,-15,o),
(887,76,o),
(927,202,c),
(929,202,l),
(969,76,o),
(1097,-15,o),
(1270,-15,cs),
(1486,-15,o),
(1635,123,o),
(1635,326,cs),
(1635,896,ls),
(1635,916,o),
(1627,925,o),
(1611,931,cs),
(1464,983,l),
(1478,962,l),
(1478,1055,ls),
(1478,1152,o),
(1525,1187,o),
(1604,1187,cs),
(1697,1187,l),
(1697,1233,l),
(1604,1233,ls),
(1503,1233,o),
(1434,1184,o),
(1434,1055,cs),
(1434,950,l),
(1588,894,l),
(1588,326,ls),
(1588,151,o),
(1462,32,o),
(1270,32,cs),
(1080,32,o),
(951,151,o),
(951,326,cs),
(951,896,ls),
(951,916,o),
(943,925,o),
(927,931,cs),
(780,983,l),
(794,962,l),
(794,1055,ls),
(794,1152,o),
(841,1187,o),
(921,1187,cs),
(1014,1187,l),
(1014,1233,l),
(921,1233,ls),
(819,1233,o),
(751,1184,o),
(751,1055,cs),
(751,950,l),
(905,894,l),
(905,326,ls),
(905,151,o),
(770,32,o),
(585,32,cs),
(393,32,o),
(268,151,o),
(268,326,cs),
(268,1076,ls),
(268,1155,o),
(308,1200,o),
(389,1200,cs),
(414,1200,o),
(431,1196,o),
(463,1188,c),
(463,1230,l),
(433,1237,o),
(415,1241,o),
(388,1241,cs),
(280,1241,o),
(221,1180,o),
(221,1076,cs),
(221,326,ls),
(221,123,o),
(369,-15,o),
(585,-15,cs)
);
}
);
width = 1856;
},
{
anchors = (
{
name = bottom;
pos = (1322,0);
},
{
name = bottomright;
pos = (1737,0);
},
{
name = top;
pos = (1323,1233);
},
{
name = topright;
pos = (1751,1233);
}
);
layerId = "C698F293-3EC0-4A5A-A3A0-0FDB1F5CF265";
shapes = (
{
closed = 1;
nodes = (
(777,-15,o),
(905,49,o),
(972,175,c),
(981,175,l),
(1048,49,o),
(1177,-15,o),
(1337,-15,cs),
(1593,-15,o),
(1751,144,o),
(1751,377,cs),
(1751,813,ls),
(1751,856,o),
(1737,872,o),
(1695,891,cs),
(1584,939,l),
(1599,879,l),
(1599,966,ls),
(1599,1037,o),
(1636,1076,o),
(1718,1076,cs),
(1808,1076,l),
(1808,1233,l),
(1706,1233,ls),
(1543,1233,o),
(1462,1151,o),
(1462,977,cs),
(1462,855,l),
(1584,799,l),
(1584,385,ls),
(1584,244,o),
(1487,137,o),
(1322,137,cs),
(1157,137,o),
(1060,244,o),
(1060,385,cs),
(1060,813,ls),
(1060,856,o),
(1047,872,o),
(1004,891,cs),
(893,939,l),
(908,879,l),
(908,966,ls),
(908,1037,o),
(945,1076,o),
(1027,1076,cs),
(1117,1076,l),
(1117,1233,l),
(1015,1233,ls),
(852,1233,o),
(771,1151,o),
(771,977,cs),
(771,855,l),
(893,799,l),
(893,385,ls),
(893,244,o),
(796,137,o),
(631,137,cs),
(466,137,o),
(369,244,o),
(369,385,cs),
(369,1001,ls),
(369,1063,o),
(401,1099,o),
(455,1099,cs),
(483,1099,o),
(509,1095,o),
(529,1089,c),
(529,1227,l),
(508,1234,o),
(457,1241,o),
(420,1241,cs),
(283,1241,o),
(202,1156,o),
(202,1011,cs),
(202,377,ls),
(202,144,o),
(360,-15,o),
(617,-15,cs)
);
}
);
width = 1954;
},
{
anchors = (
{
name = bottom;
pos = (1329,0);
},
{
name = bottomright;
pos = (1834,0);
},
{
name = top;
pos = (1329,1233);
},
{
name = topright;
pos = (1857,1233);
}
);
layerId = "5C20EF92-B63D-42A8-8878-93C2863E0093";
shapes = (
{
closed = 1;
nodes = (
(785,-15,o),
(921,8,o),
(998,124,c),
(1007,124,l),
(1084,8,o),
(1218,-15,o),
(1367,-15,cs),
(1686,-15,o),
(1856,145,o),
(1856,403,cs),
(1856,695,ls),
(1856,756,o),
(1823,774,o),
(1770,790,cs),
(1597,842,l),
(1642,783,l),
(1642,852,ls),
(1642,880,o),
(1665,895,o),
(1710,895,cs),
(1884,895,l),
(1884,1233,l),
(1658,1233,ls),
(1420,1233,o),
(1355,1116,o),
(1355,953,cs),
(1355,737,l),
(1462,693,l),
(1462,420,ls),
(1462,335,o),
(1406,279,o),
(1329,279,cs),
(1254,279,o),
(1199,335,o),
(1199,420,cs),
(1199,695,ls),
(1199,756,o),
(1167,774,o),
(1113,790,cs),
(940,842,l),
(986,783,l),
(986,852,ls),
(986,880,o),
(1009,895,o),
(1053,895,cs),
(1228,895,l),
(1228,1233,l),
(1001,1233,ls),
(764,1233,o),
(698,1116,o),
(698,953,cs),
(698,737,l),
(805,693,l),
(805,420,ls),
(805,335,o),
(750,279,o),
(668,279,cs),
(588,279,o),
(531,335,o),
(531,420,cs),
(531,895,ls),
(531,929,o),
(543,949,o),
(585,949,cs),
(596,949,o),
(612,947,o),
(636,942,c),
(636,1219,l),
(583,1231,o),
(523,1241,o),
(447,1241,cs),
(206,1241,o),
(137,1113,o),
(137,921,cs),
(137,403,ls),
(137,145,o),
(308,-15,o),
(638,-15,cs)
);
}
);
width = 1992;
}
);
metricRight = "ba-khmer";
script = khmer;
subCategory = Other;
unicode = 6041;
}
{
category = Letter;
glyphname = "ro-khmer";
kernLeft = KH_RO;
layers = (
{
anchors = (
{
name = bottom;
pos = (273,0);
},
{
name = bottomright;
pos = (390,0);
},
{
name = top;
pos = (334,1233);
},
{
name = topright;
pos = (617,1233);
}
);
background = {
anchors = (
{
name = bottom;
pos = (264,0);
},
{
name = bottomright;
pos = (381,0);
},
{
name = top;
pos = (325,1233);
},
{
name = topright;
pos = (608,1233);
}
);
shapes = (
{
closed = 1;
nodes = (
(333,-7,o),
(388,53,o),
(388,158,cs),
(388,896,ls),
(388,916,o),
(381,926,o),
(364,931,cs),
(181,985,l),
(193,962,l),
(193,1047,ls),
(193,1157,o),
(244,1197,o),
(338,1197,cs),
(383,1197,o),
(417,1191,o),
(444,1184,c),
(444,1228,l),
(423,1233,o),
(387,1241,o),
(340,1241,cs),
(223,1241,o),
(151,1187,o),
(151,1047,cs),
(151,952,l),
(342,896,l),
(342,158,ls),
(342,79,o),
(303,33,o),
(236,33,cs),
(191,33,o),
(158,43,o),
(121,57,c),
(121,14,l),
(153,1,o),
(185,-7,o),
(236,-7,cs)
);
}
);
};
layerId = "B1F27B51-9973-4381-9301-4FE46FE1CA59";
shapes = (
{
closed = 1;
nodes = (
(342,-7,o),
(397,53,o),
(397,158,cs),
(397,896,ls),
(397,916,o),
(390,926,o),
(373,931,cs),
(190,985,l),
(202,962,l),
(202,1047,ls),
(202,1154,o),
(252,1187,o),
(347,1187,cs),
(452,1187,l),
(452,1233,l),
(348,1233,ls),
(232,1233,o),
(160,1186,o),
(160,1047,cs),
(160,952,l),
(351,896,l),
(351,158,ls),
(351,79,o),
(312,33,o),
(244,33,cs),
(200,33,o),
(167,43,o),
(129,57,c),
(129,14,l),
(162,1,o),
(193,-7,o),
(245,-7,cs)
);
}
);
width = 618;
},
{
anchors = (
{
name = bottom;
pos = (333,0);
},
{
name = bottomright;
pos = (473,0);
},
{
name = top;
pos = (348,1233);
},
{
name = topright;
pos = (684,1233);
}
);
background = {
anchors = (
{
name = bottom;
pos = (324,0);
},
{
name = bottomright;
pos = (479,0);
},
{
name = top;
pos = (339,1233);
},
{
name = topright;
pos = (675,1233);
}
);
shapes = (
{
closed = 1;
nodes = (
(396,-15,o),
(479,69,o),
(479,215,cs),
(479,820,ls),
(479,863,o),
(465,886,o),
(422,898,cs),
(253,946,l),
(272,887,l),
(272,973,ls),
(272,1044,o),
(308,1084,o),
(387,1084,cs),
(441,1084,o),
(470,1079,o),
(513,1071,c),
(513,1228,l),
(480,1234,o),
(428,1241,o),
(375,1241,cs),
(212,1241,o),
(131,1165,o),
(131,991,cs),
(131,848,l),
(311,793,l),
(311,225,ls),
(311,163,o),
(282,127,o),
(231,127,cs),
(178,127,o),
(147,132,o),
(115,140,c),
(115,2,l),
(160,-8,o),
(212,-15,o),
(257,-15,cs)
);
}
);
};
layerId = "C698F293-3EC0-4A5A-A3A0-0FDB1F5CF265";
shapes = (
{
closed = 1;
nodes = (
(404,-15,o),
(487,69,o),
(487,215,cs),
(487,820,ls),
(487,863,o),
(474,886,o),
(431,898,cs),
(262,946,l),
(281,887,l),
(281,973,ls),
(281,1044,o),
(316,1076,o),
(396,1076,cs),
(522,1076,l),
(522,1233,l),
(384,1233,ls),
(221,1233,o),
(140,1164,o),
(140,991,cs),
(140,848,l),
(320,793,l),
(320,225,ls),
(320,163,o),
(291,127,o),
(239,127,cs),
(187,127,o),
(156,132,o),
(124,140,c),
(124,2,l),
(169,-8,o),
(220,-15,o),
(266,-15,cs)
);
}
);
width = 694;
},
{
anchors = (
{
name = bottom;
pos = (381,0);
},
{
name = bottomright;
pos = (604,0);
},
{
name = top;
pos = (418,1233);
},
{
name = topright;
pos = (815,1233);
}
);
background = {
anchors = (
{
name = bottom;
pos = (369,0);
},
{
name = bottomright;
pos = (609,0);
},
{
name = top;
pos = (405,1233);
},
{
name = topright;
pos = (800,1233);
}
);
shapes = (
{
closed = 1;
nodes = (
(505,-7,o),
(609,86,o),
(609,301,cs),
(609,689,ls),
(609,754,o),
(579,777,o),
(524,792,cs),
(333,847,l),
(383,741,l),
(383,828,ls),
(383,879,o),
(419,909,o),
(495,909,cs),
(548,909,o),
(596,903,o),
(646,894,c),
(646,1221,l),
(577,1233,o),
(515,1241,o),
(449,1241,cs),
(191,1241,o),
(100,1126,o),
(100,916,cs),
(100,727,l),
(224,683,l),
(224,345,ls),
(224,296,o),
(199,272,o),
(150,272,cs),
(127,272,o),
(103,275,o),
(65,284,c),
(65,20,l),
(127,2,o),
(199,-7,o),
(291,-7,cs)
);
}
);
};
layerId = "5C20EF92-B63D-42A8-8878-93C2863E0093";
shapes = (
{
closed = 1;
nodes = (
(542,-7,o),
(625,92,o),
(625,261,cs),
(625,684,ls),
(625,750,o),
(594,772,o),
(539,788,cs),
(347,843,l),
(398,735,l),
(398,823,ls),
(398,877,o),
(433,895,o),
(487,895,cs),
(647,895,l),
(647,1233,l),
(463,1233,ls),
(180,1233,o),
(110,1105,o),
(110,913,cs),
(110,722,l),
(231,678,l),
(231,350,ls),
(231,302,o),
(207,278,o),
(158,278,cs),
(136,278,o),
(111,281,o),
(74,289,c),
(74,21,l),
(136,2,o),
(211,-7,o),
(303,-7,cs)
);
}
);
width = 775;
}
);
script = khmer;
subCategory = Other;
unicode = 6042;
}
{
category = Letter;
glyphname = "lo-khmer";
kernLeft = KH_LO;
layers = (
{
anchors = (
{
name = bottom;
pos = (1276,0);
},
{
name = bottomright;
pos = (1619,0);
},
{
name = top;
pos = (1276,1233);
},
{
name = topright;
pos = (1633,1233);
}
);
layerId = "B1F27B51-9973-4381-9301-4FE46FE1CA59";
shapes = (
{
closed = 1;
nodes = (
(413,-7,o),
(433,-4,o),
(462,3,c),
(462,45,l),
(429,36,o),
(415,33,o),
(392,33,cs),
(311,33,o),
(268,79,o),
(268,158,cs),
(268,893,ls),
(268,1076,o),
(397,1201,o),
(593,1201,cs),
(788,1201,o),
(919,1076,o),
(919,893,cs),
(919,340,ls),
(919,129,o),
(1065,-15,o),
(1276,-15,cs),
(1488,-15,o),
(1633,129,o),
(1633,340,cs),
(1633,896,ls),
(1633,916,o),
(1625,925,o),
(1609,931,cs),
(1463,983,l),
(1476,962,l),
(1476,1055,ls),
(1476,1152,o),
(1524,1187,o),
(1603,1187,cs),
(1696,1187,l),
(1696,1233,l),
(1603,1233,ls),
(1501,1233,o),
(1433,1184,o),
(1433,1055,cs),
(1433,950,l),
(1587,894,l),
(1587,340,ls),
(1587,157,o),
(1463,32,o),
(1276,32,cs),
(1090,32,o),
(966,157,o),
(966,340,cs),
(966,893,ls),
(966,1104,o),
(814,1248,o),
(593,1248,cs),
(372,1248,o),
(221,1104,o),
(221,893,cs),
(221,158,ls),
(221,53,o),
(278,-7,o),
(386,-7,cs)
);
}
);
width = 1855;
},
{
anchors = (
{
name = bottom;
pos = (1322,0);
},
{
name = bottomright;
pos = (1737,0);
},
{
name = top;
pos = (1323,1233);
},
{
name = topright;
pos = (1751,1233);
}
);
layerId = "C698F293-3EC0-4A5A-A3A0-0FDB1F5CF265";
shapes = (
{
closed = 1;
nodes = (
(461,-7,o),
(518,0,o),
(537,8,c),
(537,144,l),
(516,137,o),
(494,135,o),
(471,135,cs),
(404,135,o),
(369,154,o),
(369,211,cs),
(369,848,ls),
(369,996,o),
(476,1097,o),
(633,1097,cs),
(791,1097,o),
(899,996,o),
(899,848,cs),
(899,376,ls),
(899,144,o),
(1071,-15,o),
(1324,-15,cs),
(1578,-15,o),
(1751,144,o),
(1751,376,cs),
(1751,813,ls),
(1751,856,o),
(1737,872,o),
(1695,891,cs),
(1584,939,l),
(1599,879,l),
(1599,966,ls),
(1599,1037,o),
(1636,1076,o),
(1718,1076,cs),
(1808,1076,l),
(1808,1233,l),
(1706,1233,ls),
(1543,1233,o),
(1462,1151,o),
(1462,977,cs),
(1462,855,l),
(1584,799,l),
(1584,385,ls),
(1584,238,o),
(1479,137,o),
(1324,137,cs),
(1171,137,o),
(1066,238,o),
(1066,385,cs),
(1066,857,ls),
(1066,1089,o),
(891,1248,o),
(633,1248,cs),
(377,1248,o),
(202,1089,o),
(202,857,cs),
(202,207,ls),
(202,82,o),
(269,-7,o),
(438,-7,cs)
);
}
);
width = 1954;
},
{
anchors = (
{
name = bottom;
pos = (1329,0);
},
{
name = bottomright;
pos = (1835,0);
},
{
name = top;
pos = (1329,1233);
},
{
name = topright;
pos = (1857,1233);
}
);
layerId = "5C20EF92-B63D-42A8-8878-93C2863E0093";
shapes = (
{
closed = 1;
nodes = (
(521,-7,o),
(601,1,o),
(667,27,c),
(667,282,l),
(639,276,o),
(618,273,o),
(601,273,cs),
(554,273,o),
(531,296,o),
(531,334,cs),
(531,815,ls),
(531,898,o),
(581,954,o),
(664,954,cs),
(747,954,o),
(800,898,o),
(800,815,cs),
(800,403,ls),
(800,144,o),
(982,-15,o),
(1328,-15,cs),
(1675,-15,o),
(1857,145,o),
(1857,403,cs),
(1857,695,ls),
(1857,756,o),
(1825,774,o),
(1772,790,cs),
(1599,842,l),
(1644,783,l),
(1644,852,ls),
(1644,880,o),
(1667,895,o),
(1711,895,cs),
(1886,895,l),
(1886,1233,l),
(1660,1233,ls),
(1422,1233,o),
(1356,1116,o),
(1356,953,cs),
(1356,737,l),
(1463,693,l),
(1463,419,ls),
(1463,335,o),
(1411,279,o),
(1328,279,cs),
(1245,279,o),
(1194,335,o),
(1194,419,cs),
(1194,831,ls),
(1194,1089,o),
(1011,1248,o),
(664,1248,cs),
(319,1248,o),
(137,1089,o),
(137,831,cs),
(137,260,ls),
(137,87,o),
(257,-7,o),
(465,-7,cs)
);
}
);
width = 1994;
}
);
metricRight = "ba-khmer";
script = khmer;
subCategory = Other;
unicode = 6043;
}
{
category = Letter;
glyphname = "vo-khmer";
kernLeft = KH_VO;
layers = (
{
anchors = (
{
name = bottom;
pos = (281,0);
},
{
name = bottomright;
pos = (399,0);
},
{
name = top;
pos = (364,1233);
},
{
name = topright;
pos = (625,1233);
}
);
layerId = "B1F27B51-9973-4381-9301-4FE46FE1CA59";
shapes = (
{
closed = 1;
nodes = (
(351,-7,o),
(406,53,o),
(406,158,cs),
(406,896,ls),
(406,916,o),
(397,926,o),
(380,931,cs),
(198,988,l),
(218,960,l),
(218,1076,ls),
(218,1158,o),
(259,1188,o),
(327,1188,cs),
(433,1188,ls),
(470,1188,o),
(486,1204,o),
(486,1241,cs),
(486,1373,l),
(442,1373,l),
(442,1233,l),
(327,1233,ls),
(231,1233,o),
(175,1188,o),
(175,1076,cs),
(175,951,l),
(359,895,l),
(359,158,ls),
(359,79,o),
(321,33,o),
(253,33,cs),
(209,33,o),
(176,43,o),
(139,57,c),
(139,14,l),
(172,1,o),
(202,-7,o),
(254,-7,cs)
);
}
);
width = 634;
},
{
anchors = (
{
name = bottom;
pos = (342,0);
},
{
name = bottomright;
pos = (481,0);
},
{
name = top;
pos = (356,1233);
},
{
name = topright;
pos = (656,1233);
}
);
layerId = "C698F293-3EC0-4A5A-A3A0-0FDB1F5CF265";
shapes = (
{
closed = 1;
nodes = (
(413,-7,o),
(496,76,o),
(496,222,cs),
(496,816,ls),
(496,859,o),
(483,879,o),
(439,894,cs),
(255,956,l),
(287,902,l),
(287,977,ls),
(287,1047,o),
(320,1078,o),
(389,1078,cs),
(487,1078,ls),
(557,1078,o),
(588,1108,o),
(588,1178,cs),
(588,1373,l),
(428,1373,l),
(428,1233,l),
(379,1233,ls),
(222,1233,o),
(146,1163,o),
(146,1001,cs),
(146,857,l),
(329,793,l),
(329,233,ls),
(329,170,o),
(300,135,o),
(248,135,cs),
(196,135,o),
(164,140,o),
(132,147,c),
(132,9,l),
(177,-1,o),
(229,-7,o),
(275,-7,cs)
);
}
);
width = 703;
},
{
anchors = (
{
name = bottom;
pos = (401,0);
},
{
name = bottomright;
pos = (623,0);
},
{
name = top;
pos = (438,1233);
},
{
name = topright;
pos = (836,1233);
}
);
background = {
shapes = (
{
closed = 1;
nodes = (
(628,697,ls),
(628,762,o),
(596,783,o),
(544,799,cs),
(348,857,l),
(348,864,ls),
(348,906,o),
(359,922,o),
(407,922,cs),
(503,922,ls),
(639,922,o),
(721,1002,o),
(721,1124,cs),
(721,1350,l),
(353,1350,l),
(353,1233,l),
(299,1233,ls),
(155,1233,o),
(73,1134,o),
(73,961,cs),
(73,746,l),
(243,687,l),
(243,613,l),
(628,613,l)
);
}
);
};
layerId = "5C20EF92-B63D-42A8-8878-93C2863E0093";
shapes = (
{
closed = 1;
nodes = (
(562,-7,o),
(645,92,o),
(645,261,cs),
(645,729,ls),
(645,796,o),
(614,818,o),
(560,833,cs),
(194,934,l),
(374,697,l),
(374,897,ls),
(374,935,o),
(390,945,o),
(431,945,cs),
(534,945,ls),
(644,945,o),
(708,1010,o),
(708,1122,cs),
(708,1334,l),
(334,1334,l),
(334,1233,l),
(301,1233,ls),
(161,1233,o),
(81,1146,o),
(81,996,cs),
(81,741,l),
(251,681,l),
(251,349,ls),
(251,302,o),
(227,278,o),
(177,278,cs),
(154,278,o),
(132,281,o),
(95,289,c),
(95,20,l),
(156,2,o),
(229,-7,o),
(323,-7,cs)
);
}
);
width = 794;
}
);
script = khmer;
subCategory = Other;
unicode = 6044;
}
{
category = Letter;
glyphname = "sa-khmer";
kernLeft = KH_SA;
layers = (
{
anchors = (
{
name = bottom;
pos = (1255,0);
},
{
name = bottomright;
pos = (1604,0);
},
{
name = top;
pos = (1264,1233);
},
{
name = topright;
pos = (1619,1233);
}
);
layerId = "B1F27B51-9973-4381-9301-4FE46FE1CA59";
shapes = (
{
closed = 1;
nodes = (
(399,-7,o),
(418,-4,o),
(447,3,c),
(447,45,l),
(415,36,o),
(400,33,o),
(377,33,cs),
(296,33,o),
(253,79,o),
(253,158,cs),
(253,592,ls),
(253,771,o),
(379,893,o),
(570,893,cs),
(761,893,o),
(890,771,o),
(890,592,cs),
(890,330,ls),
(890,125,o),
(1039,-15,o),
(1255,-15,cs),
(1471,-15,o),
(1619,125,o),
(1619,330,cs),
(1619,896,ls),
(1619,916,o),
(1611,925,o),
(1595,931,cs),
(1448,983,l),
(1462,962,l),
(1462,1055,ls),
(1462,1152,o),
(1509,1187,o),
(1588,1187,cs),
(1681,1187,l),
(1681,1233,l),
(1588,1233,ls),
(1487,1233,o),
(1418,1184,o),
(1418,1055,cs),
(1418,950,l),
(1572,894,l),
(1572,330,ls),
(1572,153,o),
(1445,32,o),
(1255,32,cs),
(1064,32,o),
(937,153,o),
(937,330,cs),
(937,592,ls),
(937,799,o),
(787,940,o),
(570,940,cs),
(355,940,o),
(207,799,o),
(207,592,cs),
(207,158,ls),
(207,53,o),
(263,-7,o),
(372,-7,cs)
);
},
{
closed = 1;
nodes = (
(475,921,l),
(311,998,l),
(324,977,l),
(324,1028,ls),
(324,1134,o),
(407,1195,o),
(549,1195,cs),
(662,1195,o),
(764,1170,o),
(854,1135,c),
(871,1177,l),
(772,1217,o),
(660,1241,o),
(549,1241,cs),
(378,1241,o),
(281,1164,o),
(281,1032,cs),
(281,967,l),
(449,887,l)
);
}
);
width = 1840;
},
{
anchors = (
{
name = bottom;
pos = (1309,0);
},
{
name = bottomright;
pos = (1724,0);
},
{
name = top;
pos = (1310,1233);
},
{
name = topright;
pos = (1738,1233);
}
);
layerId = "C698F293-3EC0-4A5A-A3A0-0FDB1F5CF265";
shapes = (
{
closed = 1;
nodes = (
(448,-15,o),
(505,-7,o),
(524,1,c),
(524,137,l),
(503,130,o),
(481,127,o),
(458,127,cs),
(391,127,o),
(356,147,o),
(356,204,cs),
(356,505,ls),
(356,649,o),
(457,750,o),
(620,750,cs),
(785,750,o),
(887,649,o),
(887,505,cs),
(887,369,ls),
(887,141,o),
(1049,-15,o),
(1310,-15,cs),
(1573,-15,o),
(1738,141,o),
(1738,369,cs),
(1738,813,ls),
(1738,856,o),
(1724,872,o),
(1681,891,cs),
(1571,939,l),
(1585,879,l),
(1585,966,ls),
(1585,1037,o),
(1623,1076,o),
(1705,1076,cs),
(1795,1076,l),
(1795,1233,l),
(1693,1233,ls),
(1530,1233,o),
(1449,1151,o),
(1449,977,cs),
(1449,855,l),
(1571,799,l),
(1571,378,ls),
(1571,236,o),
(1471,137,o),
(1310,137,cs),
(1152,137,o),
(1055,236,o),
(1055,378,cs),
(1055,515,ls),
(1055,743,o),
(887,898,o),
(620,898,cs),
(355,898,o),
(189,743,o),
(189,515,cs),
(189,200,ls),
(189,75,o),
(256,-15,o),
(425,-15,cs)
);
},
{
closed = 1;
nodes = (
(510,868,l),
(388,951,l),
(407,887,l),
(407,973,ls),
(407,1068,o),
(476,1097,o),
(609,1097,cs),
(707,1097,o),
(812,1087,o),
(921,1063,c),
(943,1209,l),
(823,1233,o),
(713,1241,o),
(609,1241,cs),
(380,1241,o),
(263,1170,o),
(263,984,cs),
(263,898,l),
(395,804,l)
);
}
);
width = 1941;
},
{
anchors = (
{
name = bottom;
pos = (1319,0);
},
{
name = bottomright;
pos = (1827,-1);
},
{
name = top;
pos = (1319,1233);
},
{
name = topright;
pos = (1849,1233);
}
);
layerId = "5C20EF92-B63D-42A8-8878-93C2863E0093";
shapes = (
{
closed = 1;
nodes = (
(515,-7,o),
(594,1,o),
(658,27,c),
(658,282,l),
(630,276,o),
(608,273,o),
(593,273,cs),
(546,273,o),
(522,296,o),
(522,334,cs),
(522,428,ls),
(522,495,o),
(573,540,o),
(655,540,cs),
(738,540,o),
(792,495,o),
(792,428,cs),
(792,364,ls),
(792,129,o),
(973,-15,o),
(1319,-15,cs),
(1665,-15,o),
(1849,129,o),
(1849,364,cs),
(1849,695,ls),
(1849,756,o),
(1816,774,o),
(1763,790,cs),
(1590,842,l),
(1635,783,l),
(1635,852,ls),
(1635,880,o),
(1658,895,o),
(1703,895,cs),
(1877,895,l),
(1877,1233,l),
(1651,1233,ls),
(1413,1233,o),
(1348,1116,o),
(1348,953,cs),
(1348,737,l),
(1455,693,l),
(1455,389,ls),
(1455,323,o),
(1402,279,o),
(1319,279,cs),
(1236,279,o),
(1186,324,o),
(1186,389,cs),
(1186,481,ls),
(1186,684,o),
(1024,820,o),
(655,820,cs),
(287,820,o),
(128,684,o),
(128,481,cs),
(128,260,ls),
(128,87,o),
(248,-7,o),
(456,-7,cs)
);
},
{
closed = 1;
nodes = (
(561,774,l),
(449,850,l),
(483,772,l),
(483,838,ls),
(483,877,o),
(511,903,o),
(623,903,cs),
(724,903,o),
(785,897,o),
(898,879,c),
(943,1218,l),
(840,1233,o),
(719,1242,o),
(590,1242,cs),
(351,1242,o),
(195,1125,o),
(195,913,cs),
(195,773,l),
(290,700,l)
);
}
);
width = 1985;
}
);
metricRight = "ba-khmer";
script = khmer;
subCategory = Other;
unicode = 6047;
}
{
category = Letter;
glyphname = "ha-khmer";
kernLeft = KH_BA;
layers = (
{
anchors = (
{
name = bottom;
pos = (1283,0);
},
{
name = bottomright;
pos = (1654,0);
},
{
name = top;
pos = (1283,1233);
},
{
name = topright;
pos = (1639,1233);
}
);
layerId = "B1F27B51-9973-4381-9301-4FE46FE1CA59";
shapes = (
{
closed = 1;
nodes = (
(809,-15,o),
(956,129,o),
(956,340,cs),
(956,893,ls),
(956,1077,o),
(1089,1203,o),
(1283,1203,cs),
(1476,1203,o),
(1609,1077,o),
(1609,893,cs),
(1609,0,l),
(1654,0,l),
(1654,893,ls),
(1654,1104,o),
(1503,1248,o),
(1283,1248,cs),
(1063,1248,o),
(911,1104,o),
(911,893,cs),
(911,340,ls),
(911,156,o),
(783,31,o),
(598,31,cs),
(414,31,o),
(287,156,o),
(287,340,cs),
(287,896,ls),
(287,916,o),
(279,925,o),
(263,931,cs),
(116,983,l),
(129,962,l),
(129,1055,ls),
(129,1152,o),
(177,1187,o),
(256,1187,cs),
(349,1187,l),
(349,1233,l),
(256,1233,ls),
(154,1233,o),
(86,1184,o),
(86,1055,cs),
(86,950,l),
(240,894,l),
(240,340,ls),
(240,129,o),
(387,-15,o),
(598,-15,cs)
);
}
);
width = 1875;
},
{
anchors = (
{
name = bottom;
pos = (1326,0);
},
{
name = bottomright;
pos = (1761,0);
},
{
name = top;
pos = (1326,1233);
},
{
name = topright;
pos = (1747,1233);
}
);
layerId = "C698F293-3EC0-4A5A-A3A0-0FDB1F5CF265";
shapes = (
{
closed = 1;
nodes = (
(897,-15,o),
(1056,144,o),
(1056,376,cs),
(1056,848,ls),
(1056,994,o),
(1160,1097,o),
(1326,1097,cs),
(1492,1097,o),
(1594,994,o),
(1594,848,cs),
(1594,0,l),
(1761,0,l),
(1761,857,ls),
(1761,1089,o),
(1594,1248,o),
(1326,1248,cs),
(1057,1248,o),
(889,1089,o),
(889,857,cs),
(889,385,ls),
(889,239,o),
(795,137,o),
(642,137,cs),
(481,137,o),
(380,239,o),
(380,385,cs),
(380,813,ls),
(380,856,o),
(366,872,o),
(323,891,cs),
(212,939,l),
(227,879,l),
(227,966,ls),
(227,1037,o),
(264,1076,o),
(346,1076,cs),
(436,1076,l),
(436,1233,l),
(335,1233,ls),
(172,1233,o),
(90,1151,o),
(90,977,cs),
(90,855,l),
(212,799,l),
(212,376,ls),
(212,144,o),
(378,-15,o),
(642,-15,cs)
);
}
);
width = 1964;
},
{
anchors = (
{
name = bottom;
pos = (1352,0);
},
{
name = bottomright;
pos = (1880,0);
},
{
name = top;
pos = (1351,1233);
},
{
name = topright;
pos = (1857,1233);
}
);
layerId = "5C20EF92-B63D-42A8-8878-93C2863E0093";
shapes = (
{
closed = 1;
nodes = (
(1035,-15,o),
(1217,145,o),
(1217,403,cs),
(1217,815,ls),
(1217,898,o),
(1269,954,o),
(1351,954,cs),
(1434,954,o),
(1486,898,o),
(1486,815,cs),
(1486,0,l),
(1880,0,l),
(1880,831,ls),
(1880,1089,o),
(1698,1248,o),
(1351,1248,cs),
(1005,1248,o),
(823,1089,o),
(823,831,cs),
(823,419,ls),
(823,335,o),
(772,279,o),
(688,279,cs),
(605,279,o),
(553,335,o),
(553,419,cs),
(553,679,ls),
(553,742,o),
(517,757,o),
(468,772,cs),
(295,825,l),
(340,767,l),
(340,836,ls),
(340,863,o),
(362,877,o),
(407,877,cs),
(581,877,l),
(581,1216,l),
(356,1216,ls),
(107,1216,o),
(52,1087,o),
(52,936,cs),
(52,719,l),
(159,676,l),
(159,403,ls),
(159,144,o),
(343,-15,o),
(688,-15,cs)
);
}
);
width = 2017;
}
);
metricLeft = "ba-khmer";
script = khmer;
subCategory = Other;
unicode = 6048;
}
{
category = Letter;
glyphname = "la-khmer";
kernLeft = KH_TO;
layers = (
{
anchors = (
{
name = bottom;
pos = (1141,-559);
},
{
name = bottomright;
pos = (1455,-559);
},
{
name = top;
pos = (1139,1233);
},
{
name = topright;
pos = (1455,1233);
}
);
layerId = "B1F27B51-9973-4381-9301-4FE46FE1CA59";
shapes = (
{
closed = 1;
nodes = (
(873,-559,l),
(1141,-293,l),
(1409,-559,l),
(1455,-559,l),
(1455,896,ls),
(1455,916,o),
(1447,925,o),
(1431,931,cs),
(1284,983,l),
(1297,962,l),
(1297,1055,ls),
(1297,1152,o),
(1345,1187,o),
(1424,1187,cs),
(1517,1187,l),
(1517,1233,l),
(1424,1233,ls),
(1322,1233,o),
(1254,1184,o),
(1254,1055,cs),
(1254,950,l),
(1408,894,l),
(1408,-492,l),
(1405,-492,l),
(1156,-244,l),
(1127,-244,l),
(877,-492,l),
(874,-492,l),
(874,-105,l),
(714,-105,l),
(714,-148,l),
(828,-148,l),
(828,-559,l)
);
},
{
ref = "to-khmer";
}
);
width = 1676;
},
{
anchors = (
{
name = bottom;
pos = (1190,-559);
},
{
name = bottomright;
pos = (1575,-559);
},
{
name = top;
pos = (1216,1233);
},
{
name = topright;
pos = (1575,1233);
}
);
layerId = "C698F293-3EC0-4A5A-A3A0-0FDB1F5CF265";
shapes = (
{
closed = 1;
nodes = (
(967,-559,l),
(1190,-354,l),
(1413,-559,l),
(1575,-559,l),
(1575,813,ls),
(1575,856,o),
(1561,872,o),
(1518,891,cs),
(1407,939,l),
(1422,879,l),
(1422,966,ls),
(1422,1037,o),
(1459,1076,o),
(1541,1076,cs),
(1631,1076,l),
(1631,1233,l),
(1529,1233,ls),
(1367,1233,o),
(1285,1151,o),
(1285,977,cs),
(1285,855,l),
(1407,799,l),
(1407,-381,l),
(1403,-381,l),
(1206,-203,l),
(1174,-203,l),
(977,-381,l),
(972,-381,l),
(972,-105,l),
(705,-105,l),
(705,-218,l),
(804,-218,l),
(804,-559,l)
);
},
{
ref = "to-khmer";
}
);
width = 1777;
},
{
anchors = (
{
name = bottom;
pos = (1265,-559);
},
{
name = bottomright;
pos = (1798,-559);
},
{
name = top;
pos = (1269,1233);
},
{
name = topright;
pos = (1796,1233);
}
);
layerId = "5C20EF92-B63D-42A8-8878-93C2863E0093";
shapes = (
{
closed = 1;
nodes = (
(1128,-559,l),
(1265,-419,l),
(1402,-559,l),
(1796,-559,l),
(1796,695,ls),
(1796,756,o),
(1764,774,o),
(1711,790,cs),
(1538,842,l),
(1583,783,l),
(1583,852,ls),
(1583,880,o),
(1606,895,o),
(1651,895,cs),
(1825,895,l),
(1825,1233,l),
(1599,1233,ls),
(1361,1233,o),
(1296,1116,o),
(1296,953,cs),
(1296,737,l),
(1402,693,l),
(1402,-278,l),
(1393,-278,l),
(1287,-161,l),
(1244,-161,l),
(1137,-278,l),
(1128,-278,l),
(1128,-93,l),
(669,-93,l),
(669,-273,l),
(752,-273,l),
(752,-559,l)
);
},
{
ref = "to-khmer";
}
);
width = 1933;
}
);
metricLeft = "to-khmer";
metricRight = "ba-khmer";
script = khmer;
subCategory = Other;
unicode = 6049;
}
{
category = Letter;
glyphname = "qa-khmer";
layers = (
{
anchors = (
{
name = bottom;
pos = (671,0);
},
{
name = bottomright;
pos = (1093,0);
},
{
name = top;
pos = (671,1233);
},
{
name = topright;
pos = (1093,1233);
}
);
layerId = "B1F27B51-9973-4381-9301-4FE46FE1CA59";
shapes = (
{
closed = 1;
nodes = (
(1040,-7,o),
(1092,53,o),
(1092,158,cs),
(1092,896,ls),
(1092,916,o),
(1085,926,o),
(1068,931,cs),
(885,985,l),
(897,962,l),
(897,1047,ls),
(897,1154,o),
(948,1187,o),
(1042,1187,cs),
(1146,1187,l),
(1146,1233,l),
(1044,1233,ls),
(927,1233,o),
(855,1186,o),
(855,1047,cs),
(855,952,l),
(1046,896,l),
(1046,158,ls),
(1046,79,o),
(1009,33,o),
(933,33,cs),
(897,33,o),
(863,43,o),
(825,57,c),
(825,14,l),
(858,1,o),
(892,-7,o),
(933,-7,cs)
);
},
{
closed = 1;
nodes = (
(344,-7,o),
(396,53,o),
(396,158,cs),
(396,896,ls),
(396,916,o),
(389,926,o),
(372,931,cs),
(189,985,l),
(201,962,l),
(201,1047,ls),
(201,1154,o),
(252,1187,o),
(346,1187,cs),
(450,1187,l),
(450,1233,l),
(348,1233,ls),
(231,1233,o),
(159,1186,o),
(159,1047,cs),
(159,952,l),
(350,896,l),
(350,158,ls),
(350,79,o),
(313,33,o),
(237,33,cs),
(201,33,o),
(167,43,o),
(129,57,c),
(129,14,l),
(162,1,o),
(196,-7,o),
(237,-7,cs)
);
},
{
closed = 1;
nodes = (
(1068,529,l),
(1068,573,l),
(379,573,l),
(379,529,l)
);
}
);
width = 1313;
},
{
anchors = (
{
name = bottom;
pos = (684,0);
},
{
name = bottomright;
pos = (1159,0);
},
{
name = top;
pos = (684,1233);
},
{
name = topright;
pos = (1164,1233);
}
);
background = {
anchors = (
{
name = bottom;
pos = (675,0);
},
{
name = bottomright;
pos = (1151,0);
},
{
name = top;
pos = (675,1233);
},
{
name = topright;
pos = (1155,1233);
}
);
shapes = (
{
closed = 1;
nodes = (
(1082,-15,o),
(1165,69,o),
(1165,215,cs),
(1165,820,ls),
(1165,863,o),
(1152,886,o),
(1108,898,cs),
(940,946,l),
(959,887,l),
(959,973,ls),
(959,1044,o),
(994,1084,o),
(1073,1084,cs),
(1127,1084,o),
(1156,1079,o),
(1200,1071,c),
(1200,1228,l),
(1167,1234,o),
(1115,1241,o),
(1062,1241,cs),
(899,1241,o),
(817,1165,o),
(817,991,cs),
(817,848,l),
(998,793,l),
(998,225,ls),
(998,163,o),
(969,127,o),
(917,127,cs),
(865,127,o),
(833,132,o),
(801,140,c),
(801,2,l),
(847,-8,o),
(898,-15,o),
(944,-15,cs)
);
},
{
closed = 1;
nodes = (
(396,-15,o),
(479,69,o),
(479,215,cs),
(479,820,ls),
(479,863,o),
(465,886,o),
(422,898,cs),
(253,946,l),
(272,887,l),
(272,973,ls),
(272,1044,o),
(308,1084,o),
(387,1084,cs),
(441,1084,o),
(470,1079,o),
(513,1071,c),
(513,1228,l),
(480,1234,o),
(428,1241,o),
(375,1241,cs),
(212,1241,o),
(131,1165,o),
(131,991,cs),
(131,848,l),
(311,793,l),
(311,225,ls),
(311,163,o),
(282,127,o),
(231,127,cs),
(178,127,o),
(147,132,o),
(115,140,c),
(115,2,l),
(160,-8,o),
(212,-15,o),
(257,-15,cs)
);
},
{
closed = 1;
nodes = (
(1035,485,l),
(1035,617,l),
(391,617,l),
(391,485,l)
);
}
);
};
layerId = "C698F293-3EC0-4A5A-A3A0-0FDB1F5CF265";
shapes = (
{
closed = 1;
nodes = (
(1091,-15,o),
(1174,69,o),
(1174,215,cs),
(1174,820,ls),
(1174,863,o),
(1161,886,o),
(1117,898,cs),
(948,946,l),
(967,887,l),
(967,973,ls),
(967,1044,o),
(1003,1076,o),
(1082,1076,cs),
(1209,1076,l),
(1209,1233,l),
(1071,1233,ls),
(908,1233,o),
(826,1164,o),
(826,991,cs),
(826,848,l),
(1007,793,l),
(1007,225,ls),
(1007,163,o),
(977,127,o),
(926,127,cs),
(873,127,o),
(842,132,o),
(810,140,c),
(810,2,l),
(855,-8,o),
(907,-15,o),
(953,-15,cs)
);
},
{
closed = 1;
nodes = (
(404,-15,o),
(487,69,o),
(487,215,cs),
(487,820,ls),
(487,863,o),
(474,886,o),
(431,898,cs),
(262,946,l),
(281,887,l),
(281,973,ls),
(281,1044,o),
(316,1076,o),
(396,1076,cs),
(522,1076,l),
(522,1233,l),
(384,1233,ls),
(221,1233,o),
(140,1164,o),
(140,991,cs),
(140,848,l),
(320,793,l),
(320,225,ls),
(320,163,o),
(291,127,o),
(239,127,cs),
(187,127,o),
(156,132,o),
(124,140,c),
(124,2,l),
(169,-8,o),
(220,-15,o),
(266,-15,cs)
);
},
{
closed = 1;
nodes = (
(1044,485,l),
(1044,617,l),
(399,617,l),
(399,485,l)
);
}
);
width = 1376;
},
{
anchors = (
{
name = bottom;
pos = (731,0);
},
{
name = bottomright;
pos = (1295,0);
},
{
name = top;
pos = (731,1233);
},
{
name = topright;
pos = (1316,1233);
}
);
background = {
shapes = (
{
closed = 1;
nodes = (
(1117,415,l),
(1117,609,l),
(447,609,l),
(447,415,l)
);
},
{
closed = 1;
nodes = (
(608,689,ls),
(608,754,o),
(577,777,o),
(523,792,cs),
(332,847,l),
(381,741,l),
(381,828,ls),
(381,879,o),
(417,909,o),
(494,909,cs),
(547,909,o),
(594,903,o),
(644,894,c),
(644,1221,l),
(575,1233,o),
(513,1241,o),
(448,1241,cs),
(190,1241,o),
(99,1126,o),
(99,916,cs),
(99,727,l),
(223,683,l),
(223,529,l),
(608,529,l)
);
},
{
closed = 1;
nodes = (
(223,337,ls),
(223,289,o),
(198,272,o),
(161,272,cs),
(151,272,o),
(135,273,o),
(79,281,c),
(35,15,l),
(124,-5,o),
(205,-15,o),
(282,-15,cs),
(504,-15,o),
(608,79,o),
(608,294,cs),
(608,537,l),
(223,537,l)
);
},
{
closed = 1;
nodes = (
(1286,689,ls),
(1286,754,o),
(1255,777,o),
(1201,792,cs),
(1009,847,l),
(1059,741,l),
(1059,828,ls),
(1059,879,o),
(1095,909,o),
(1172,909,cs),
(1225,909,o),
(1272,903,o),
(1322,894,c),
(1322,1221,l),
(1253,1233,o),
(1191,1241,o),
(1126,1241,cs),
(868,1241,o),
(777,1126,o),
(777,916,cs),
(777,727,l),
(900,683,l),
(900,529,l),
(1286,529,l)
);
},
{
closed = 1;
nodes = (
(900,337,ls),
(900,289,o),
(876,272,o),
(839,272,cs),
(829,272,o),
(813,273,o),
(757,281,c),
(713,15,l),
(801,-5,o),
(883,-15,o),
(960,-15,cs),
(1182,-15,o),
(1286,79,o),
(1286,294,cs),
(1286,537,l),
(900,537,l)
);
}
);
};
layerId = "5C20EF92-B63D-42A8-8878-93C2863E0093";
shapes = (
{
closed = 1;
nodes = (
(1239,-7,o),
(1316,97,o),
(1316,261,cs),
(1316,684,ls),
(1316,750,o),
(1286,772,o),
(1231,788,cs),
(1039,843,l),
(1089,735,l),
(1089,823,ls),
(1089,879,o),
(1120,895,o),
(1164,895,cs),
(1337,895,l),
(1337,1233,l),
(1154,1233,ls),
(872,1233,o),
(801,1103,o),
(801,913,cs),
(801,722,l),
(922,678,l),
(922,350,ls),
(922,302,o),
(898,278,o),
(849,278,cs),
(825,278,o),
(803,281,o),
(765,289,c),
(765,21,l),
(830,1,o),
(905,-7,o),
(994,-7,cs)
);
},
{
closed = 1;
nodes = (
(540,-7,o),
(624,92,o),
(624,261,cs),
(624,684,ls),
(624,750,o),
(593,772,o),
(537,788,cs),
(345,843,l),
(396,735,l),
(396,823,ls),
(396,879,o),
(428,895,o),
(471,895,cs),
(645,895,l),
(645,1233,l),
(461,1233,ls),
(179,1233,o),
(108,1103,o),
(108,913,cs),
(108,722,l),
(230,678,l),
(230,350,ls),
(230,302,o),
(205,278,o),
(156,278,cs),
(135,278,o),
(110,281,o),
(73,289,c),
(73,21,l),
(135,2,o),
(209,-7,o),
(301,-7,cs)
);
},
{
closed = 1;
nodes = (
(1052,412,l),
(1052,609,l),
(497,609,l),
(497,412,l)
);
}
);
width = 1453;
}
);
script = khmer;
subCategory = Other;
unicode = 6050;
}
{
category = Letter;
glyphname = "qi-khmer";
layers = (
{
layerId = "B1F27B51-9973-4381-9301-4FE46FE1CA59";
shapes = (
{
closed = 1;
nodes = (
(415,-7,o),
(433,-4,o),
(462,3,c),
(462,45,l),
(429,36,o),
(416,33,o),
(388,33,cs),
(312,33,o),
(268,79,o),
(268,158,cs),
(268,582,ls),
(268,783,o),
(396,908,o),
(607,908,cs),
(819,908,o),
(947,783,o),
(947,582,cs),
(947,0,l),
(993,0,l),
(993,582,ls),
(993,810,o),
(844,954,o),
(607,954,cs),
(371,954,o),
(221,810,o),
(221,582,cs),
(221,158,ls),
(221,53,o),
(279,-7,o),
(383,-7,cs)
);
},
{
closed = 1;
nodes = (
(877,1187,ls),
(963,1187,o),
(1001,1220,o),
(1001,1303,cs),
(1001,1373,l),
(956,1373,l),
(956,1303,ls),
(956,1254,o),
(938,1233,o),
(878,1233,cs),
(214,1233,l),
(214,1187,l)
);
}
);
width = 1215;
},
{
layerId = "C698F293-3EC0-4A5A-A3A0-0FDB1F5CF265";
shapes = (
{
closed = 1;
nodes = (
(461,-15,o),
(518,-7,o),
(537,1,c),
(537,137,l),
(516,130,o),
(494,127,o),
(471,127,cs),
(404,127,o),
(369,147,o),
(369,204,cs),
(369,505,ls),
(369,661,o),
(481,768,o),
(646,768,cs),
(810,768,o),
(922,661,o),
(922,505,cs),
(922,0,l),
(1089,0,l),
(1089,513,ls),
(1089,755,o),
(910,919,o),
(646,919,cs),
(382,919,o),
(202,755,o),
(202,513,cs),
(202,200,ls),
(202,75,o),
(269,-15,o),
(438,-15,cs)
);
},
{
closed = 1;
nodes = (
(903,1076,ls),
(1026,1076,o),
(1097,1131,o),
(1097,1247,cs),
(1097,1373,l),
(932,1373,l),
(932,1266,ls),
(932,1242,o),
(923,1233,o),
(898,1233,cs),
(195,1233,l),
(195,1076,l)
);
}
);
width = 1292;
},
{
layerId = "5C20EF92-B63D-42A8-8878-93C2863E0093";
shapes = (
{
closed = 1;
nodes = (
(524,-7,o),
(603,1,o),
(667,27,c),
(667,282,l),
(639,276,o),
(617,273,o),
(601,273,cs),
(554,273,o),
(531,296,o),
(531,334,cs),
(531,397,ls),
(531,481,o),
(585,536,o),
(672,536,cs),
(758,536,o),
(813,481,o),
(813,397,cs),
(813,0,l),
(1207,0,l),
(1207,413,ls),
(1207,671,o),
(1022,831,o),
(672,831,cs),
(321,831,o),
(137,671,o),
(137,413,cs),
(137,260,ls),
(137,87,o),
(257,-7,o),
(465,-7,cs)
);
},
{
closed = 1;
nodes = (
(939,895,ls),
(1117,895,o),
(1215,993,o),
(1215,1171,cs),
(1215,1334,l),
(828,1334,l),
(828,1274,ls),
(828,1249,o),
(812,1233,o),
(788,1233,cs),
(129,1233,l),
(129,895,l)
);
}
);
width = 1344;
}
);
script = khmer;
subCategory = Other;
unicode = 6053;
}
{
category = Letter;
glyphname = "qii-khmer";
layers = (
{
layerId = "B1F27B51-9973-4381-9301-4FE46FE1CA59";
shapes = (
{
closed = 1;
nodes = (
(1167,-559,ls),
(1371,-559,o),
(1465,-467,o),
(1465,-257,cs),
(1465,1471,ls),
(1465,1648,o),
(1351,1769,o),
(1183,1769,cs),
(1041,1769,o),
(964,1686,o),
(941,1621,c),
(935,1621,l),
(935,1815,l),
(890,1815,l),
(890,1473,l),
(934,1466,l),
(934,1624,o),
(1033,1724,o),
(1183,1724,cs),
(1323,1724,o),
(1418,1621,o),
(1418,1471,cs),
(1418,-257,ls),
(1418,-436,o),
(1350,-513,o),
(1167,-513,cs),
(908,-513,l),
(908,-559,l)
);
},
{
closed = 1;
nodes = (
(500,-567,o),
(527,-564,o),
(548,-559,c),
(548,-518,l),
(526,-524,o),
(506,-526,o),
(489,-526,cs),
(383,-526,o),
(324,-449,o),
(324,-356,cs),
(324,-227,o),
(418,-138,o),
(608,-138,cs),
(777,-138,o),
(884,-228,o),
(884,-365,cs),
(884,-559,l),
(929,-559,l),
(929,-365,ls),
(929,-201,o),
(804,-93,o),
(608,-93,cs),
(392,-93,o),
(279,-201,o),
(279,-356,cs),
(279,-476,o),
(357,-567,o),
(480,-567,cs)
);
},
{
closed = 1;
nodes = (
(415,-7,o),
(433,-4,o),
(462,3,c),
(462,45,l),
(429,36,o),
(416,33,o),
(388,33,cs),
(312,33,o),
(268,79,o),
(268,158,cs),
(268,876,ls),
(268,1076,o),
(396,1201,o),
(607,1201,cs),
(819,1201,o),
(947,1076,o),
(947,876,cs),
(947,0,l),
(993,0,l),
(993,876,ls),
(993,1104,o),
(844,1248,o),
(607,1248,cs),
(371,1248,o),
(221,1104,o),
(221,876,cs),
(221,158,ls),
(221,53,o),
(279,-7,o),
(383,-7,cs)
);
}
);
width = 1686;
},
{
background = {
shapes = (
{
closed = 1;
nodes = (
(452,-15,o),
(509,-7,o),
(528,1,c),
(528,137,l),
(507,130,o),
(485,127,o),
(463,127,cs),
(395,127,o),
(361,147,o),
(361,204,cs),
(361,833,ls),
(361,990,o),
(473,1097,o),
(637,1097,cs),
(801,1097,o),
(913,990,o),
(913,833,cs),
(913,0,l),
(1081,0,l),
(1081,842,ls),
(1081,1084,o),
(901,1248,o),
(637,1248,cs),
(373,1248,o),
(193,1084,o),
(193,842,cs),
(193,200,ls),
(193,75,o),
(260,-15,o),
(429,-15,cs)
);
}
);
};
layerId = "C698F293-3EC0-4A5A-A3A0-0FDB1F5CF265";
shapes = (
{
closed = 1;
nodes = (
(1309,-559,ls),
(1513,-559,o),
(1644,-449,o),
(1644,-262,cs),
(1644,1453,ls),
(1644,1660,o),
(1512,1799,o),
(1309,1799,cs),
(1189,1799,o),
(1095,1752,o),
(1050,1676,c),
(1041,1676,l),
(1041,1862,l),
(879,1862,l),
(879,1475,l),
(1043,1446,l),
(1054,1575,o),
(1155,1655,o),
(1266,1655,cs),
(1399,1655,o),
(1476,1543,o),
(1476,1430,cs),
(1476,-253,ls),
(1476,-371,o),
(1413,-433,o),
(1309,-433,cs),
(981,-433,l),
(981,-559,l)
);
},
{
closed = 1;
nodes = (
(538,-573,o),
(562,-569,o),
(604,-559,c),
(604,-447,l),
(569,-456,o),
(553,-457,o),
(545,-457,cs),
(493,-457,o),
(455,-426,o),
(455,-366,cs),
(455,-279,o),
(542,-221,o),
(671,-221,cs),
(816,-221,o),
(895,-283,o),
(895,-385,cs),
(895,-559,l),
(1053,-559,l),
(1053,-375,ls),
(1053,-209,o),
(932,-90,o),
(672,-90,cs),
(433,-90,o),
(295,-199,o),
(295,-366,cs),
(295,-460,o),
(339,-573,o),
(505,-573,cs)
);
},
{
closed = 1;
nodes = (
(461,-15,o),
(518,-7,o),
(537,1,c),
(537,137,l),
(516,130,o),
(494,127,o),
(471,127,cs),
(404,127,o),
(369,147,o),
(369,204,cs),
(369,833,ls),
(369,990,o),
(481,1097,o),
(646,1097,cs),
(810,1097,o),
(922,990,o),
(922,833,cs),
(922,0,l),
(1089,0,l),
(1089,842,ls),
(1089,1084,o),
(910,1248,o),
(646,1248,cs),
(382,1248,o),
(202,1084,o),
(202,842,cs),
(202,200,ls),
(202,75,o),
(269,-15,o),
(438,-15,cs)
);
}
);
width = 1846;
},
{
layerId = "5C20EF92-B63D-42A8-8878-93C2863E0093";
shapes = (
{
closed = 1;
nodes = (
(1466,-559,ls),
(1718,-559,o),
(1863,-449,o),
(1863,-233,cs),
(1863,1436,ls),
(1863,1677,o),
(1727,1815,o),
(1507,1815,cs),
(1372,1815,o),
(1281,1766,o),
(1221,1678,c),
(1209,1678,l),
(1209,1878,l),
(838,1878,l),
(838,1529,l),
(1212,1427,l),
(1239,1500,o),
(1283,1543,o),
(1356,1543,cs),
(1428,1543,o),
(1471,1500,o),
(1471,1423,cs),
(1471,-231,ls),
(1471,-332,o),
(1417,-359,o),
(1339,-359,cs),
(1039,-359,l),
(1039,-559,l)
);
},
{
closed = 1;
nodes = (
(547,-573,o),
(611,-561,o),
(630,-552,c),
(630,-399,l),
(620,-401,o),
(608,-404,o),
(600,-404,cs),
(582,-404,o),
(564,-392,o),
(564,-361,cs),
(564,-320,o),
(599,-286,o),
(668,-286,cs),
(748,-286,o),
(785,-327,o),
(785,-401,cs),
(785,-559,l),
(1149,-559,l),
(1149,-383,ls),
(1149,-175,o),
(973,-78,o),
(663,-78,cs),
(315,-78,o),
(199,-199,o),
(199,-358,cs),
(199,-496,o),
(287,-573,o),
(473,-573,cs)
);
},
{
closed = 1;
nodes = (
(524,-7,o),
(603,1,o),
(667,27,c),
(667,282,l),
(639,276,o),
(617,273,o),
(601,273,cs),
(554,273,o),
(531,296,o),
(531,334,cs),
(531,815,ls),
(531,898,o),
(586,954,o),
(671,954,cs),
(756,954,o),
(813,898,o),
(813,815,cs),
(813,0,l),
(1207,0,l),
(1207,831,ls),
(1207,1089,o),
(1020,1248,o),
(671,1248,cs),
(324,1248,o),
(137,1089,o),
(137,831,cs),
(137,260,ls),
(137,87,o),
(257,-7,o),
(465,-7,cs)
);
}
);
width = 2000;
}
);
script = khmer;
subCategory = Other;
unicode = 6054;
}
{
category = Letter;
glyphname = "qu-khmer";
layers = (
{
layerId = "B1F27B51-9973-4381-9301-4FE46FE1CA59";
shapes = (
{
closed = 1;
nodes = (
(724,-15,o),
(836,92,o),
(889,241,c),
(896,241,l),
(896,0,l),
(943,0,l),
(943,469,l),
(898,469,l),
(898,446,ls),
(898,249,o),
(787,31,o),
(529,31,cs),
(342,31,o),
(225,144,o),
(225,343,cs),
(225,572,l),
(561,572,ls),
(839,572,o),
(980,680,o),
(980,893,cs),
(980,1117,o),
(817,1248,o),
(580,1248,cs),
(340,1248,o),
(176,1104,o),
(176,894,c),
(223,894,l),
(223,1078,o),
(368,1203,o),
(580,1203,cs),
(790,1203,o),
(934,1089,o),
(934,895,cs),
(934,709,o),
(808,615,o),
(561,615,cs),
(178,615,l),
(178,343,ls),
(178,116,o),
(311,-15,o),
(529,-15,cs)
);
}
);
width = 1148;
},
{
layerId = "C698F293-3EC0-4A5A-A3A0-0FDB1F5CF265";
shapes = (
{
closed = 1;
nodes = (
(708,-15,o),
(814,47,o),
(867,155,c),
(876,155,l),
(876,1,l),
(1041,1,l),
(1041,423,l),
(874,423,l),
(874,407,ls),
(874,262,o),
(769,135,o),
(592,135,cs),
(444,135,o),
(336,222,o),
(336,372,cs),
(336,509,l),
(613,509,ls),
(897,509,o),
(1076,634,o),
(1076,861,cs),
(1076,1090,o),
(895,1248,o),
(630,1248,cs),
(355,1248,o),
(171,1077,o),
(171,832,c),
(338,832,l),
(338,993,o),
(455,1105,o),
(630,1105,cs),
(801,1105,o),
(907,997,o),
(907,861,cs),
(907,722,o),
(797,644,o),
(613,644,cs),
(169,644,l),
(169,345,ls),
(169,124,o),
(322,-15,o),
(556,-15,cs)
);
}
);
width = 1261;
},
{
layerId = "5C20EF92-B63D-42A8-8878-93C2863E0093";
shapes = (
{
closed = 1;
nodes = (
(643,-15,o),
(732,29,o),
(786,126,c),
(799,126,l),
(799,0,l),
(1169,0,l),
(1169,403,l),
(799,403,l),
(796,391,ls),
(777,290,o),
(730,227,o),
(649,227,cs),
(563,227,o),
(506,282,o),
(506,365,cs),
(506,466,l),
(671,466,ls),
(1021,466,o),
(1207,596,o),
(1207,841,cs),
(1207,1084,o),
(1023,1248,o),
(657,1248,cs),
(310,1248,o),
(113,1101,o),
(113,796,c),
(508,796,l),
(508,902,o),
(572,954,o),
(661,954,cs),
(753,954,o),
(809,900,o),
(809,823,cs),
(809,739,o),
(744,683,o),
(625,683,cs),
(113,683,l),
(113,347,ls),
(113,127,o),
(259,-15,o),
(488,-15,cs)
);
}
);
width = 1321;
}
);
script = khmer;
subCategory = Other;
unicode = 6055;
}
{
category = Letter;
glyphname = "quk-khmer";
layers = (
{
layerId = "B1F27B51-9973-4381-9301-4FE46FE1CA59";
shapes = (
{
closed = 1;
nodes = (
(960,1466,l),
(960,1513,l),
(217,1513,l),
(217,1466,l)
);
},
{
ref = "qu-khmer";
}
);
width = 1148;
},
{
layerId = "C698F293-3EC0-4A5A-A3A0-0FDB1F5CF265";
shapes = (
{
closed = 1;
nodes = (
(1057,1466,l),
(1057,1617,l),
(220,1617,l),
(220,1466,l)
);
},
{
ref = "qu-khmer";
}
);
width = 1261;
},
{
layerId = "5C20EF92-B63D-42A8-8878-93C2863E0093";
shapes = (
{
closed = 1;
nodes = (
(1183,1394,l),
(1183,1642,l),
(161,1642,l),
(161,1394,l)
);
},
{
ref = "qu-khmer";
}
);
width = 1321;
}
);
metricWidth = "qu-khmer";
script = khmer;
subCategory = Other;
unicode = 6056;
}
{
category = Letter;
glyphname = "quu-khmer";
layers = (
{
layerId = "B1F27B51-9973-4381-9301-4FE46FE1CA59";
shapes = (
{
closed = 1;
nodes = (
(672,-15,o),
(783,97,o),
(831,241,c),
(838,241,l),
(838,0,l),
(883,0,l),
(883,469,l),
(840,469,l),
(840,446,ls),
(840,249,o),
(732,31,o),
(500,31,cs),
(327,31,o),
(225,139,o),
(225,328,cs),
(225,572,l),
(561,572,ls),
(839,572,o),
(980,681,o),
(980,896,cs),
(980,1116,o),
(817,1248,o),
(580,1248,cs),
(340,1248,o),
(175,1104,o),
(175,894,c),
(222,894,l),
(222,1078,o),
(367,1203,o),
(580,1203,cs),
(789,1203,o),
(934,1088,o),
(934,897,cs),
(934,710,o),
(808,615,o),
(561,615,cs),
(178,615,l),
(178,328,ls),
(178,111,o),
(298,-15,o),
(500,-15,cs)
);
},
{
closed = 1;
nodes = (
(1072,0,l),
(1072,469,l),
(1028,469,l),
(1028,0,l)
);
}
);
width = 1148;
},
{
background = {
shapes = (
{
closed = 1;
nodes = (
(663,-15,o),
(747,70,o),
(793,169,c),
(801,169,l),
(801,1,l),
(967,1,l),
(967,423,l),
(800,423,l),
(800,417,ls),
(800,262,o),
(684,135,o),
(530,135,cs),
(408,135,o),
(327,215,o),
(327,336,cs),
(327,509,l),
(604,509,ls),
(917,509,o),
(1067,655,o),
(1067,860,cs),
(1067,1111,o),
(879,1248,o),
(620,1248,cs),
(342,1248,o),
(162,1097,o),
(162,832,c),
(329,832,l),
(329,1010,o),
(439,1105,o),
(620,1105,cs),
(784,1105,o),
(898,1020,o),
(898,858,cs),
(898,737,o),
(809,640,o),
(604,640,cs),
(160,640,l),
(160,316,ls),
(160,117,o),
(284,-15,o),
(490,-15,cs)
);
},
{
closed = 1;
nodes = (
(1183,0,l),
(1183,423,l),
(1046,423,l),
(1046,0,l)
);
}
);
};
layerId = "C698F293-3EC0-4A5A-A3A0-0FDB1F5CF265";
shapes = (
{
closed = 1;
nodes = (
(638,-15,o),
(745,32,o),
(801,140,c),
(810,140,l),
(810,1,l),
(963,1,l),
(963,423,l),
(809,423,l),
(809,407,ls),
(809,284,o),
(708,135,o),
(545,135,cs),
(434,135,o),
(336,211,o),
(336,343,cs),
(336,509,l),
(613,509,ls),
(897,509,o),
(1076,634,o),
(1076,861,cs),
(1076,1090,o),
(895,1248,o),
(630,1248,cs),
(355,1248,o),
(171,1077,o),
(171,832,c),
(338,832,l),
(338,993,o),
(455,1105,o),
(630,1105,cs),
(801,1105,o),
(907,997,o),
(907,861,cs),
(907,722,o),
(797,644,o),
(613,644,cs),
(169,644,l),
(169,316,ls),
(169,100,o),
(340,-15,o),
(511,-15,cs)
);
},
{
closed = 1;
nodes = (
(1213,0,l),
(1213,423,l),
(1076,423,l),
(1076,0,l)
);
}
);
width = 1261;
},
{
background = {
shapes = (
{
closed = 1;
nodes = (
(1261,0,l),
(1261,404,l),
(1073,404,l),
(1073,0,l)
);
},
{
closed = 1;
nodes = (
(814,404,l),
(811,392,ls),
(791,308,o),
(744,258,o),
(659,258,cs),
(567,258,o),
(512,314,o),
(512,400,cs),
(512,468,l),
(681,468,ls),
(1029,468,o),
(1215,597,o),
(1215,841,cs),
(1215,1085,o),
(1031,1248,o),
(668,1248,cs),
(324,1248,o),
(128,1101,o),
(128,799,c),
(513,799,l),
(513,906,o),
(580,960,o),
(672,960,cs),
(764,960,o),
(820,905,o),
(820,825,cs),
(820,738,o),
(756,681,o),
(637,681,cs),
(128,681,l),
(128,347,ls),
(128,127,o),
(273,-15,o),
(524,-15,cs),
(660,-15,o),
(748,36,o),
(801,142,c),
(815,142,l),
(815,0,l),
(1025,0,l),
(1025,404,l)
);
}
);
};
layerId = "5C20EF92-B63D-42A8-8878-93C2863E0093";
shapes = (
{
closed = 1;
nodes = (
(631,-15,o),
(731,32,o),
(788,140,c),
(801,140,l),
(801,0,l),
(1031,0,l),
(1031,403,l),
(801,403,l),
(799,391,ls),
(783,329,o),
(756,233,o),
(646,233,cs),
(572,233,o),
(529,279,o),
(529,357,cs),
(529,466,l),
(694,466,ls),
(1044,466,o),
(1231,596,o),
(1231,840,cs),
(1231,1084,o),
(1047,1248,o),
(685,1248,cs),
(335,1248,o),
(137,1101,o),
(137,796,c),
(531,796,l),
(531,902,o),
(598,954,o),
(689,954,cs),
(778,954,o),
(832,900,o),
(832,823,cs),
(832,739,o),
(767,683,o),
(649,683,cs),
(137,683,l),
(137,311,ls),
(137,103,o),
(265,-15,o),
(493,-15,cs)
);
},
{
closed = 1;
nodes = (
(1342,0,l),
(1342,402,l),
(1121,402,l),
(1121,0,l)
);
}
);
width = 1367;
}
);
script = khmer;
subCategory = Other;
unicode = 6057;
}
{
category = Letter;
glyphname = "quuv-khmer";
layers = (
{
layerId = "B1F27B51-9973-4381-9301-4FE46FE1CA59";
shapes = (
{
closed = 1;
nodes = (
(176,1373,l),
(221,1373,l),
(221,1404,ls),
(221,1535,o),
(293,1584,o),
(377,1584,cs),
(527,1584,o),
(645,1425,o),
(809,1425,cs),
(905,1425,o),
(953,1477,o),
(953,1585,cs),
(953,1699,l),
(907,1699,l),
(907,1585,ls),
(907,1554,o),
(907,1471,o),
(806,1471,cs),
(670,1471,o),
(548,1629,o),
(377,1629,cs),
(245,1629,o),
(176,1537,o),
(176,1404,cs)
);
},
{
ref = "qu-khmer";
}
);
width = 1148;
},
{
layerId = "C698F293-3EC0-4A5A-A3A0-0FDB1F5CF265";
shapes = (
{
closed = 1;
nodes = (
(169,1327,l),
(329,1327,l),
(329,1384,ls),
(329,1457,o),
(367,1500,o),
(439,1500,cs),
(556,1500,o),
(676,1373,o),
(838,1373,cs),
(973,1373,o),
(1059,1453,o),
(1059,1591,cs),
(1059,1722,l),
(899,1722,l),
(899,1601,ls),
(899,1544,o),
(873,1519,o),
(826,1519,cs),
(727,1519,o),
(613,1645,o),
(427,1645,cs),
(268,1645,o),
(169,1565,o),
(169,1393,cs)
);
},
{
ref = "qu-khmer";
}
);
width = 1261;
},
{
layerId = "5C20EF92-B63D-42A8-8878-93C2863E0093";
shapes = (
{
closed = 1;
nodes = (
(137,1303,l),
(500,1303,l),
(500,1327,ls),
(500,1388,o),
(527,1430,o),
(592,1430,cs),
(682,1430,o),
(825,1374,o),
(948,1374,cs),
(1101,1374,o),
(1185,1444,o),
(1185,1607,cs),
(1185,1795,l),
(826,1795,l),
(826,1712,ls),
(826,1686,o),
(815,1671,o),
(789,1671,cs),
(692,1671,o),
(598,1719,o),
(456,1719,cs),
(242,1719,o),
(137,1601,o),
(137,1384,cs)
);
},
{
ref = "qu-khmer";
}
);
width = 1321;
}
);
metricWidth = "qu-khmer";
script = khmer;
subCategory = Other;
unicode = 6058;
}
{
category = Letter;
glyphname = "ry-khmer";
layers = (
{
anchors = (
{
name = _indpTail;
pos = (998,73);
}
);
layerId = "B1F27B51-9973-4381-9301-4FE46FE1CA59";
shapes = (
{
closed = 1;
nodes = (
(864,-543,o),
(998,-423,o),
(998,-204,cs),
(998,-105,l),
(954,-105,l),
(954,-204,ls),
(954,-397,o),
(837,-499,o),
(644,-499,cs),
(505,-499,o),
(376,-455,o),
(244,-359,c),
(244,-414,l),
(350,-484,o),
(487,-543,o),
(644,-543,cs)
);
},
{
ref = "ba-khmer";
}
);
width = 1219;
},
{
anchors = (
{
name = _indpTail;
pos = (1092,73);
}
);
layerId = "C698F293-3EC0-4A5A-A3A0-0FDB1F5CF265";
shapes = (
{
closed = 1;
nodes = (
(948,-566,o),
(1092,-463,o),
(1092,-224,cs),
(1092,-105,l),
(927,-105,l),
(927,-215,ls),
(927,-361,o),
(844,-419,o),
(676,-419,cs),
(537,-419,o),
(389,-375,o),
(240,-281,c),
(240,-448,l),
(361,-514,o),
(504,-566,o),
(685,-566,cs)
);
},
{
ref = "ba-khmer";
}
);
width = 1295;
},
{
anchors = (
{
name = _indpTail;
pos = (1230,73);
}
);
layerId = "5C20EF92-B63D-42A8-8878-93C2863E0093";
shapes = (
{
closed = 1;
nodes = (
(1078,-566,o),
(1230,-438,o),
(1230,-196,cs),
(1230,-93,l),
(840,-93,l),
(840,-166,ls),
(840,-229,o),
(801,-271,o),
(647,-271,cs),
(508,-271,o),
(366,-243,o),
(207,-183,c),
(207,-493,l),
(343,-540,o),
(487,-566,o),
(689,-566,cs)
);
},
{
ref = "ba-khmer";
}
);
width = 1366;
}
);
production = uni17AB;
script = khmer;
subCategory = Other;
unicode = 6059;
}
{
category = Letter;
glyphname = "ryy-khmer";
layers = (
{
anchors = (
{
name = _indpTail;
pos = (998,73);
}
);
layerId = "B1F27B51-9973-4381-9301-4FE46FE1CA59";
shapes = (
{
closed = 1;
nodes = (
(809,-543,o),
(929,-475,o),
(972,-348,c),
(975,-348,l),
(1004,-416,o),
(1042,-469,o),
(1133,-524,c),
(1162,-489,l),
(1072,-439,o),
(998,-355,o),
(998,-252,cs),
(998,-105,l),
(954,-105,l),
(954,-204,ls),
(954,-397,o),
(841,-499,o),
(644,-499,cs),
(505,-499,o),
(375,-455,o),
(244,-359,c),
(244,-414,l),
(349,-484,o),
(486,-543,o),
(644,-543,cs)
);
},
{
ref = "ba-khmer";
}
);
width = 1219;
},
{
anchors = (
{
name = _indpTail;
pos = (1092,73);
}
);
layerId = "C698F293-3EC0-4A5A-A3A0-0FDB1F5CF265";
shapes = (
{
closed = 1;
nodes = (
(845,-566,o),
(942,-512,o),
(997,-426,c),
(1003,-426,l),
(1020,-487,o),
(1066,-532,o),
(1140,-566,c),
(1245,-459,l),
(1157,-415,o),
(1092,-359,o),
(1092,-282,cs),
(1092,-105,l),
(927,-105,l),
(927,-230,ls),
(927,-348,o),
(820,-419,o),
(665,-419,cs),
(532,-419,o),
(391,-375,o),
(240,-281,c),
(240,-448,l),
(356,-514,o),
(487,-566,o),
(654,-566,cs)
);
},
{
ref = "ba-khmer";
}
);
width = 1295;
},
{
anchors = (
{
name = _indpTail;
pos = (1230,73);
}
);
layerId = "5C20EF92-B63D-42A8-8878-93C2863E0093";
shapes = (
{
closed = 1;
nodes = (
(767,-566,o),
(888,-529,o),
(974,-443,c),
(983,-443,l),
(1001,-478,o),
(1025,-511,o),
(1065,-545,c),
(1343,-428,l),
(1282,-366,o),
(1230,-265,o),
(1230,-224,cs),
(1230,-93,l),
(839,-93,l),
(839,-166,ls),
(839,-229,o),
(801,-271,o),
(647,-271,cs),
(508,-271,o),
(366,-243,o),
(207,-183,c),
(207,-493,l),
(329,-540,o),
(455,-566,o),
(599,-566,cs)
);
},
{
ref = "ba-khmer";
}
);
width = 1366;
}
);
production = uni17AC;
script = khmer;
subCategory = Other;
unicode = 6060;
}
{
category = Letter;
glyphname = "ly-khmer";
layers = (
{
anchors = (
{
name = _indpTail;
pos = (993,73);
}
);
layerId = "B1F27B51-9973-4381-9301-4FE46FE1CA59";
shapes = (
{
closed = 1;
nodes = (
(860,-543,o),
(993,-423,o),
(993,-204,cs),
(993,-105,l),
(950,-105,l),
(950,-204,ls),
(950,-397,o),
(833,-499,o),
(640,-499,cs),
(501,-499,o),
(372,-455,o),
(240,-359,c),
(240,-414,l),
(345,-484,o),
(482,-543,o),
(640,-543,cs)
);
},
{
ref = "po-khmer";
}
);
width = 1215;
},
{
anchors = (
{
name = _indpTail;
pos = (1089,73);
}
);
layerId = "C698F293-3EC0-4A5A-A3A0-0FDB1F5CF265";
shapes = (
{
closed = 1;
nodes = (
(945,-566,o),
(1089,-463,o),
(1089,-224,cs),
(1089,-105,l),
(924,-105,l),
(924,-215,ls),
(924,-361,o),
(841,-419,o),
(673,-419,cs),
(534,-419,o),
(386,-375,o),
(237,-281,c),
(237,-448,l),
(358,-514,o),
(501,-566,o),
(682,-566,cs)
);
},
{
ref = "po-khmer";
}
);
width = 1292;
},
{
anchors = (
{
name = _indpTail;
pos = (1215,73);
}
);
layerId = "5C20EF92-B63D-42A8-8878-93C2863E0093";
shapes = (
{
closed = 1;
nodes = (
(1063,-566,o),
(1215,-438,o),
(1215,-196,cs),
(1215,-93,l),
(825,-93,l),
(825,-166,ls),
(825,-229,o),
(785,-271,o),
(631,-271,cs),
(492,-271,o),
(351,-243,o),
(192,-183,c),
(192,-493,l),
(328,-540,o),
(471,-566,o),
(674,-566,cs)
);
},
{
ref = "po-khmer";
}
);
width = 1351;
}
);
production = uni17AD;
script = khmer;
subCategory = Other;
unicode = 6061;
}
{
category = Letter;
glyphname = "lyy-khmer";
layers = (
{
anchors = (
{
name = _indpTail;
pos = (993,73);
}
);
layerId = "B1F27B51-9973-4381-9301-4FE46FE1CA59";
shapes = (
{
closed = 1;
nodes = (
(805,-543,o),
(924,-475,o),
(967,-348,c),
(970,-348,l),
(1000,-416,o),
(1038,-469,o),
(1129,-524,c),
(1158,-489,l),
(1068,-439,o),
(993,-355,o),
(993,-252,cs),
(993,-105,l),
(950,-105,l),
(950,-204,ls),
(950,-397,o),
(836,-499,o),
(639,-499,cs),
(500,-499,o),
(371,-455,o),
(239,-359,c),
(239,-414,l),
(345,-484,o),
(481,-543,o),
(639,-543,cs)
);
},
{
ref = "po-khmer";
}
);
width = 1215;
},
{
anchors = (
{
name = _indpTail;
pos = (1089,73);
}
);
layerId = "C698F293-3EC0-4A5A-A3A0-0FDB1F5CF265";
shapes = (
{
closed = 1;
nodes = (
(842,-566,o),
(939,-512,o),
(994,-426,c),
(1000,-426,l),
(1017,-487,o),
(1063,-532,o),
(1137,-566,c),
(1242,-459,l),
(1154,-415,o),
(1089,-359,o),
(1089,-282,cs),
(1089,-105,l),
(924,-105,l),
(924,-230,ls),
(924,-348,o),
(817,-419,o),
(663,-419,cs),
(529,-419,o),
(388,-375,o),
(237,-281,c),
(237,-448,l),
(353,-514,o),
(484,-566,o),
(651,-566,cs)
);
},
{
ref = "po-khmer";
}
);
width = 1292;
},
{
anchors = (
{
name = _indpTail;
pos = (1215,73);
}
);
layerId = "5C20EF92-B63D-42A8-8878-93C2863E0093";
shapes = (
{
closed = 1;
nodes = (
(751,-566,o),
(873,-529,o),
(959,-443,c),
(967,-443,l),
(986,-478,o),
(1009,-511,o),
(1050,-545,c),
(1327,-428,l),
(1267,-366,o),
(1215,-265,o),
(1215,-224,cs),
(1215,-93,l),
(824,-93,l),
(824,-166,ls),
(824,-229,o),
(785,-271,o),
(631,-271,cs),
(492,-271,o),
(351,-243,o),
(192,-183,c),
(192,-493,l),
(313,-540,o),
(440,-566,o),
(584,-566,cs)
);
},
{
ref = "po-khmer";
}
);
width = 1351;
}
);
production = uni17AE;
script = khmer;
subCategory = Other;
unicode = 6062;
}
{
category = Letter;
glyphname = "qe-khmer";
layers = (
{
layerId = "B1F27B51-9973-4381-9301-4FE46FE1CA59";
shapes = (
{
closed = 1;
nodes = (
(266,0,l),
(606,374,l),
(609,374,l),
(948,0,l),
(993,0,l),
(993,874,ls),
(993,1102,o),
(836,1222,o),
(627,1222,cs),
(444,1222,o),
(329,1131,o),
(273,1017,c),
(268,1017,l),
(268,1373,l),
(221,1373,l),
(221,899,l),
(266,889,l),
(287,1038,o),
(421,1177,o),
(628,1177,cs),
(799,1177,o),
(947,1082,o),
(947,874,cs),
(947,71,l),
(944,71,l),
(622,424,l),
(593,424,l),
(271,71,l),
(268,71,l),
(268,609,ls),
(268,636,o),
(253,652,o),
(223,652,cs),
(108,652,l),
(108,608,l),
(221,608,l),
(221,0,l)
);
}
);
width = 1215;
},
{
layerId = "C698F293-3EC0-4A5A-A3A0-0FDB1F5CF265";
shapes = (
{
closed = 1;
nodes = (
(368,0,l),
(643,284,l),
(649,284,l),
(924,0,l),
(1089,0,l),
(1089,852,ls),
(1089,1071,o),
(927,1220,o),
(690,1220,cs),
(516,1220,o),
(422,1148,o),
(374,1075,c),
(365,1075,l),
(365,1373,l),
(202,1373,l),
(202,881,l),
(367,845,l),
(380,978,o),
(493,1069,o),
(647,1069,cs),
(810,1069,o),
(922,972,o),
(922,829,cs),
(922,204,l),
(913,204,l),
(667,459,l),
(625,459,l),
(378,204,l),
(369,204,l),
(369,516,ls),
(369,599,o),
(326,640,o),
(237,640,cs),
(102,640,l),
(102,503,l),
(202,503,l),
(202,0,l)
);
}
);
width = 1292;
},
{
layerId = "5C20EF92-B63D-42A8-8878-93C2863E0093";
shapes = (
{
closed = 1;
nodes = (
(529,0,l),
(667,179,l),
(676,179,l),
(814,0,l),
(1207,0,l),
(1207,869,ls),
(1207,1113,o),
(1052,1247,o),
(810,1247,cs),
(655,1247,o),
(561,1188,o),
(507,1097,c),
(495,1097,l),
(495,1335,l),
(119,1335,l),
(119,940,l),
(506,843,l),
(521,920,o),
(576,968,o),
(660,968,cs),
(757,968,o),
(812,908,o),
(812,804,cs),
(812,366,l),
(804,366,l),
(703,489,l),
(639,489,l),
(539,366,l),
(530,366,l),
(530,532,ls),
(530,623,o),
(463,689,o),
(372,689,cs),
(57,689,l),
(57,488,l),
(136,488,l),
(136,0,l)
);
}
);
width = 1343;
}
);
script = khmer;
subCategory = Other;
unicode = 6063;
}
{
category = Letter;
glyphname = "qai-khmer";
layers = (
{
layerId = "B1F27B51-9973-4381-9301-4FE46FE1CA59";
shapes = (
{
closed = 1;
nodes = (
(541,-570,o),
(600,-479,o),
(630,-380,c),
(611,-378,l),
(746,-516,l),
(811,-516,ls),
(916,-516,o),
(979,-457,o),
(979,-359,cs),
(979,-265,l),
(934,-265,l),
(934,-359,ls),
(934,-429,o),
(888,-473,o),
(811,-473,cs),
(761,-473,l),
(635,-345,l),
(596,-345,l),
(570,-452,o),
(516,-525,o),
(423,-525,cs),
(342,-525,o),
(286,-465,o),
(286,-377,cs),
(286,-283,o),
(352,-219,o),
(465,-209,cs),
(843,-174,ls),
(946,-164,o),
(993,-104,o),
(993,6,cs),
(993,1051,ls),
(993,1165,o),
(921,1241,o),
(817,1241,cs),
(726,1241,o),
(647,1180,o),
(609,1089,c),
(605,1089,l),
(569,1180,o),
(489,1241,o),
(398,1241,cs),
(294,1241,o),
(221,1165,o),
(221,1051,cs),
(221,158,ls),
(221,53,o),
(278,-7,o),
(386,-7,cs),
(413,-7,o),
(433,-4,o),
(462,3,c),
(462,48,l),
(429,39,o),
(415,36,o),
(392,36,cs),
(311,36,o),
(268,79,o),
(268,158,cs),
(268,1051,ls),
(268,1140,o),
(324,1197,o),
(401,1197,cs),
(483,1197,o),
(549,1136,o),
(592,1027,c),
(623,1027,l),
(665,1136,o),
(735,1197,o),
(814,1197,cs),
(890,1197,o),
(947,1140,o),
(947,1051,cs),
(947,7,ls),
(947,-84,o),
(913,-122,o),
(838,-129,cs),
(457,-164,ls),
(320,-177,o),
(239,-257,o),
(239,-377,cs),
(239,-492,o),
(314,-570,o),
(422,-570,cs)
);
}
);
width = 1215;
},
{
layerId = "C698F293-3EC0-4A5A-A3A0-0FDB1F5CF265";
shapes = (
{
closed = 1;
nodes = (
(596,-573,o),
(687,-485,o),
(689,-344,c),
(633,-366,l),
(756,-519,l),
(840,-519,ls),
(977,-519,o),
(1055,-454,o),
(1055,-340,cs),
(1055,-279,l),
(897,-279,l),
(897,-319,ls),
(897,-367,o),
(871,-399,o),
(825,-399,cs),
(780,-399,l),
(699,-304,l),
(609,-304,l),
(594,-398,o),
(552,-450,o),
(473,-450,cs),
(407,-450,o),
(372,-400,o),
(372,-345,cs),
(372,-291,o),
(398,-249,o),
(450,-242,cs),
(879,-183,ls),
(1049,-159,o),
(1089,-88,o),
(1089,21,cs),
(1089,989,ls),
(1089,1147,o),
(996,1241,o),
(848,1241,cs),
(749,1241,o),
(681,1199,o),
(649,1127,c),
(642,1127,l),
(608,1199,o),
(540,1241,o),
(443,1241,cs),
(297,1241,o),
(202,1147,o),
(202,989,cs),
(202,200,ls),
(202,75,o),
(269,-15,o),
(438,-15,cs),
(461,-15,o),
(518,-7,o),
(537,1,c),
(537,137,l),
(516,130,o),
(494,127,o),
(471,127,cs),
(404,127,o),
(369,147,o),
(369,204,cs),
(369,971,ls),
(369,1041,o),
(405,1091,o),
(470,1091,cs),
(543,1091,o),
(595,1039,o),
(616,951,c),
(676,951,l),
(697,1039,o),
(753,1091,o),
(822,1091,cs),
(887,1091,o),
(922,1047,o),
(922,971,cs),
(922,36,ls),
(922,-22,o),
(903,-56,o),
(838,-65,cs),
(414,-124,ls),
(271,-143,o),
(213,-241,o),
(213,-350,cs),
(213,-485,o),
(308,-573,o),
(449,-573,cs)
);
}
);
width = 1292;
},
{
layerId = "5C20EF92-B63D-42A8-8878-93C2863E0093";
shapes = (
{
closed = 1;
nodes = (
(627,-566,o),
(724,-484,o),
(745,-380,c),
(697,-377,l),
(813,-537,l),
(926,-537,ls),
(1114,-537,o),
(1182,-452,o),
(1182,-300,cs),
(1182,-256,l),
(847,-256,l),
(847,-292,ls),
(847,-314,o),
(838,-326,o),
(820,-326,cs),
(799,-326,l),
(740,-269,l),
(659,-269,l),
(647,-318,o),
(625,-346,o),
(579,-346,cs),
(535,-346,o),
(511,-324,o),
(511,-293,cs),
(511,-266,o),
(529,-243,o),
(564,-239,cs),
(1007,-191,ls),
(1197,-171,o),
(1215,-84,o),
(1215,-4,cs),
(1215,967,ls),
(1215,1143,o),
(1108,1241,o),
(937,1241,cs),
(819,1241,o),
(735,1194,o),
(681,1114,c),
(671,1114,l),
(617,1194,o),
(533,1241,o),
(415,1241,cs),
(243,1241,o),
(137,1143,o),
(137,967,cs),
(137,260,ls),
(137,72,o),
(277,-7,o),
(462,-7,cs),
(518,-7,o),
(599,0,o),
(667,27,c),
(667,282,l),
(639,276,o),
(617,273,o),
(601,273,cs),
(555,273,o),
(531,296,o),
(531,334,cs),
(531,865,ls),
(531,903,o),
(553,930,o),
(585,930,cs),
(614,930,o),
(642,908,o),
(649,868,c),
(702,868,l),
(710,911,o),
(739,930,o),
(767,930,cs),
(799,930,o),
(820,903,o),
(820,865,cs),
(820,51,ls),
(820,-17,o),
(797,-40,o),
(748,-45,cs),
(385,-85,ls),
(220,-103,o),
(154,-193,o),
(154,-320,cs),
(154,-460,o),
(271,-566,o),
(452,-566,cs)
);
}
);
width = 1351;
}
);
production = uni17B0;
script = khmer;
subCategory = Other;
unicode = 6064;
}
{
category = Letter;
glyphname = "qoo-khmer";
layers = (
{
layerId = "B1F27B51-9973-4381-9301-4FE46FE1CA59";
shapes = (
{
closed = 1;
nodes = (
(176,1373,l),
(223,1373,l),
(223,1387,ls),
(223,1524,o),
(328,1606,o),
(506,1606,cs),
(663,1606,o),
(785,1553,o),
(948,1454,c),
(967,1495,l),
(824,1585,o),
(677,1652,o),
(506,1652,cs),
(299,1652,o),
(176,1554,o),
(176,1387,cs)
);
},
{
ref = "qu-khmer";
}
);
width = 1148;
},
{
layerId = "C698F293-3EC0-4A5A-A3A0-0FDB1F5CF265";
shapes = (
{
closed = 1;
nodes = (
(169,1327,l),
(329,1327,l),
(329,1364,ls),
(329,1479,o),
(369,1546,o),
(523,1546,cs),
(645,1546,o),
(820,1503,o),
(981,1413,c),
(1041,1548,l),
(861,1649,o),
(692,1699,o),
(537,1699,cs),
(297,1699,o),
(169,1580,o),
(169,1377,cs)
);
},
{
alignment = -1;
ref = "qu-khmer";
}
);
width = 1261;
},
{
background = {
shapes = (
{
closed = 1;
nodes = (
(499,1304,l),
(499,1341,ls),
(499,1378,o),
(516,1396,o),
(550,1396,cs),
(1126,1396,l),
(1126,1690,l),
(459,1690,ls),
(250,1690,o),
(143,1603,o),
(143,1420,cs),
(143,1304,l)
);
},
{
ref = "qu-khmer";
}
);
};
layerId = "5C20EF92-B63D-42A8-8878-93C2863E0093";
shapes = (
{
closed = 1;
nodes = (
(137,1303,l),
(500,1303,l),
(500,1316,ls),
(500,1398,o),
(550,1440,o),
(649,1440,cs),
(802,1440,o),
(971,1380,o),
(1111,1311,c),
(1199,1604,l),
(1023,1676,o),
(827,1729,o),
(619,1729,cs),
(255,1729,o),
(137,1577,o),
(137,1340,cs)
);
},
{
ref = "qu-khmer";
}
);
width = 1321;
}
);
metricWidth = "qu-khmer";
production = uni17B1;
script = khmer;
subCategory = Other;
unicode = 6065;
}
{
category = Letter;
glyphname = "qooVariant-khmer";
layers = (
{
layerId = "B1F27B51-9973-4381-9301-4FE46FE1CA59";
shapes = (
{
closed = 1;
nodes = (
(852,-15,o),
(1008,99,o),
(1008,292,cs),
(1008,476,o),
(871,545,o),
(791,566,c),
(791,572,l),
(876,604,o),
(993,675,o),
(993,827,cs),
(993,962,o),
(900,1069,o),
(716,1069,cs),
(647,1069,o),
(585,1055,o),
(535,1031,c),
(549,991,l),
(588,1008,o),
(654,1024,o),
(719,1024,cs),
(865,1024,o),
(947,943,o),
(947,830,cs),
(947,681,o),
(806,591,o),
(684,591,cs),
(586,591,l),
(586,546,l),
(684,546,ls),
(812,546,o),
(961,464,o),
(961,291,cs),
(961,135,o),
(833,32,o),
(615,32,cs),
(410,32,o),
(268,138,o),
(268,308,cs),
(268,1023,ls),
(268,1211,o),
(380,1338,o),
(604,1338,cs),
(703,1338,o),
(825,1314,o),
(916,1270,c),
(916,1324,l),
(820,1358,o),
(721,1385,o),
(609,1385,cs),
(359,1385,o),
(221,1251,o),
(221,1023,cs),
(221,308,ls),
(221,104,o),
(387,-15,o),
(613,-15,cs)
);
}
);
width = 1204;
},
{
layerId = "C698F293-3EC0-4A5A-A3A0-0FDB1F5CF265";
shapes = (
{
closed = 1;
nodes = (
(927,-15,o),
(1091,103,o),
(1091,301,cs),
(1091,466,o),
(975,528,o),
(897,553,c),
(897,561,l),
(977,596,o),
(1084,660,o),
(1084,806,cs),
(1084,969,o),
(971,1062,o),
(783,1062,cs),
(719,1062,o),
(641,1042,o),
(589,1013,c),
(640,883,l),
(671,903,o),
(715,915,o),
(764,915,cs),
(857,915,o),
(920,868,o),
(920,788,cs),
(920,693,o),
(839,629,o),
(723,629,cs),
(614,629,l),
(614,485,l),
(723,485,ls),
(844,485,o),
(927,414,o),
(927,310,cs),
(927,198,o),
(825,134,o),
(649,134,cs),
(466,134,o),
(352,231,o),
(352,375,cs),
(352,932,ls),
(352,1130,o),
(462,1235,o),
(664,1235,cs),
(773,1235,o),
(898,1215,o),
(987,1180,c),
(987,1341,l),
(887,1368,o),
(787,1385,o),
(657,1385,cs),
(351,1385,o),
(185,1237,o),
(185,951,cs),
(185,370,ls),
(185,134,o),
(345,-15,o),
(641,-15,cs)
);
}
);
width = 1210;
},
{
background = {
shapes = (
{
closed = 1;
nodes = (
(1017,-15,o),
(1209,98,o),
(1209,308,cs),
(1209,413,o),
(1155,506,o),
(1024,535,c),
(1024,543,l),
(1109,566,o),
(1196,639,o),
(1196,774,cs),
(1196,940,o),
(1079,1035,o),
(852,1035,cs),
(746,1035,o),
(655,1014,o),
(591,981,c),
(650,763,l),
(675,775,o),
(708,783,o),
(737,783,cs),
(804,783,o),
(831,744,o),
(831,703,cs),
(831,652,o),
(792,625,o),
(726,625,cs),
(638,625,l),
(638,441,l),
(695,441,ls),
(802,441,o),
(832,399,o),
(832,349,cs),
(832,287,o),
(784,254,o),
(681,254,cs),
(561,254,o),
(483,308,o),
(483,415,cs),
(483,907,ls),
(483,1056,o),
(579,1132,o),
(780,1132,cs),
(861,1132,o),
(950,1117,o),
(1059,1097,c),
(1059,1377,l),
(943,1396,o),
(814,1411,o),
(709,1411,cs),
(322,1411,o),
(102,1259,o),
(102,924,cs),
(102,380,ls),
(102,123,o),
(289,-15,o),
(678,-15,cs)
);
}
);
};
layerId = "5C20EF92-B63D-42A8-8878-93C2863E0093";
shapes = (
{
closed = 1;
nodes = (
(1033,-15,o),
(1225,98,o),
(1225,308,cs),
(1225,411,o),
(1174,505,o),
(1041,534,c),
(1041,542,l),
(1127,565,o),
(1212,639,o),
(1212,772,cs),
(1212,940,o),
(1095,1034,o),
(867,1034,cs),
(759,1034,o),
(667,1012,o),
(603,980,c),
(664,757,l),
(688,769,o),
(721,776,o),
(749,776,cs),
(814,776,o),
(839,738,o),
(839,700,cs),
(839,652,o),
(803,626,o),
(738,626,cs),
(651,626,l),
(651,438,l),
(706,438,ls),
(813,438,o),
(840,397,o),
(840,351,cs),
(840,292,o),
(795,259,o),
(695,259,cs),
(577,259,o),
(500,312,o),
(500,417,cs),
(500,905,ls),
(500,1052,o),
(597,1126,o),
(797,1126,cs),
(876,1126,o),
(967,1111,o),
(1074,1092,c),
(1074,1378,l),
(958,1397,o),
(823,1411,o),
(724,1411,cs),
(334,1411,o),
(111,1259,o),
(111,922,cs),
(111,383,ls),
(111,124,o),
(299,-15,o),
(692,-15,cs)
);
}
);
width = 1323;
}
);
production = uni17B2;
script = khmer;
subCategory = Other;
unicode = 6066;
}
{
category = Letter;
glyphname = "qau-khmer";
layers = (
{
layerId = "B1F27B51-9973-4381-9301-4FE46FE1CA59";
shapes = (
{
closed = 1;
nodes = (
(176,1373,l),
(221,1373,l),
(221,1387,ls),
(221,1518,o),
(307,1584,o),
(441,1584,cs),
(602,1584,o),
(723,1497,o),
(821,1389,c),
(866,1389,l),
(866,1556,ls),
(866,1626,o),
(897,1654,o),
(959,1654,cs),
(998,1654,l),
(998,1699,l),
(959,1699,ls),
(866,1699,o),
(821,1653,o),
(821,1558,cs),
(821,1447,l),
(818,1447,l),
(719,1554,o),
(596,1629,o),
(441,1629,cs),
(273,1629,o),
(176,1537,o),
(176,1387,cs)
);
},
{
ref = "qu-khmer";
}
);
width = 1148;
},
{
layerId = "C698F293-3EC0-4A5A-A3A0-0FDB1F5CF265";
shapes = (
{
closed = 1;
nodes = (
(169,1327,l),
(327,1327,l),
(327,1362,ls),
(327,1476,o),
(408,1536,o),
(519,1536,cs),
(637,1536,o),
(729,1470,o),
(810,1359,c),
(1007,1359,l),
(1007,1498,ls),
(1007,1570,o),
(1033,1591,o),
(1081,1591,cs),
(1115,1591,l),
(1115,1722,l),
(1063,1722,ls),
(932,1722,o),
(861,1655,o),
(861,1521,cs),
(861,1475,l),
(854,1475,l),
(762,1617,o),
(651,1689,o),
(497,1689,cs),
(309,1689,o),
(169,1581,o),
(169,1377,cs)
);
},
{
ref = "qu-khmer";
}
);
width = 1261;
},
{
background = {
shapes = (
{
closed = 1;
nodes = (
(711,1644,o),
(609,1690,o),
(471,1690,cs),
(260,1690,o),
(157,1586,o),
(157,1398,cs),
(157,1275,l),
(499,1275,l),
(499,1308,ls),
(499,1361,o),
(529,1385,o),
(588,1385,cs),
(650,1385,o),
(695,1363,o),
(759,1308,c),
(1092,1308,l),
(1092,1481,ls),
(1092,1508,o),
(1103,1525,o),
(1129,1525,cs),
(1230,1525,l),
(1230,1794,l),
(971,1794,ls),
(852,1794,o),
(789,1727,o),
(789,1611,cs),
(789,1562,l),
(780,1562,l)
);
},
{
ref = "qu-khmer";
}
);
};
layerId = "5C20EF92-B63D-42A8-8878-93C2863E0093";
shapes = (
{
closed = 1;
nodes = (
(137,1302,l),
(500,1302,l),
(500,1329,ls),
(500,1392,o),
(544,1431,o),
(613,1431,cs),
(688,1431,o),
(768,1390,o),
(805,1327,c),
(1107,1327,l),
(1107,1472,ls),
(1107,1529,o),
(1124,1547,o),
(1177,1547,cs),
(1238,1547,l),
(1238,1795,l),
(1047,1795,ls),
(880,1795,o),
(842,1713,o),
(842,1607,cs),
(842,1551,l),
(833,1551,l),
(772,1649,o),
(672,1721,o),
(495,1721,cs),
(257,1721,o),
(137,1593,o),
(137,1376,cs)
);
},
{
ref = "qu-khmer";
}
);
width = 1321;
}
);
metricWidth = "qu-khmer";
script = khmer;
subCategory = Other;
unicode = 6067;
}
{
category = Letter;
glyphname = "aaSign-khmer";
layers = (
{
anchors = (
{
name = auStroke;
pos = (377,1161);
}
);
background = {
anchors = (
{
name = auStroke;
pos = (368,1161);
}
);
shapes = (
{
closed = 1;
nodes = (
(321,0,l),
(368,0,l),
(368,939,ls),
(368,1135,o),
(294,1233,o),
(79,1233,cs),
(-223,1233,l),
(-223,1187,l),
(79,1187,ls),
(264,1187,o),
(321,1104,o),
(321,939,cs)
);
}
);
};
layerId = "B1F27B51-9973-4381-9301-4FE46FE1CA59";
shapes = (
{
closed = 1;
nodes = (
(330,0,l),
(377,0,l),
(377,993,ls),
(377,1156,o),
(268,1248,o),
(116,1248,cs),
(42,1248,o),
(-39,1224,o),
(-112,1172,c),
(-112,1123,l),
(-111,1123,l),
(-33,1175,o),
(43,1201,o),
(116,1201,cs),
(246,1201,o),
(330,1124,o),
(330,993,cs)
);
}
);
width = 598;
},
{
anchors = (
{
name = auStroke;
pos = (420,1161);
}
);
background = {
anchors = (
{
name = auStroke;
pos = (412,1161);
}
);
shapes = (
{
closed = 1;
nodes = (
(244,0,l),
(412,0,l),
(412,902,ls),
(412,1116,o),
(281,1233,o),
(62,1233,cs),
(-198,1233,l),
(-198,1076,l),
(55,1076,ls),
(174,1076,o),
(244,1013,o),
(244,892,cs)
);
}
);
};
layerId = "C698F293-3EC0-4A5A-A3A0-0FDB1F5CF265";
shapes = (
{
closed = 1;
nodes = (
(253,0,l),
(420,0,l),
(420,964,ls),
(420,1153,o),
(304,1248,o),
(135,1248,cs),
(46,1248,o),
(-39,1224,o),
(-103,1185,c),
(-103,1035,l),
(-98,1035,l),
(-39,1073,o),
(20,1095,o),
(84,1095,cs),
(188,1095,o),
(253,1036,o),
(253,929,cs)
);
}
);
width = 623;
},
{
anchors = (
{
name = auStroke;
pos = (540,1161);
}
);
background = {
anchors = (
{
name = auStroke;
pos = (531,1161);
}
);
shapes = (
{
closed = 1;
nodes = (
(137,0,l),
(531,0,l),
(531,801,ls),
(531,1131,o),
(356,1233,o),
(62,1233,cs),
(-151,1233,l),
(-151,894,l),
(0,894,ls),
(107,894,o),
(137,847,o),
(137,767,cs)
);
}
);
};
layerId = "5C20EF92-B63D-42A8-8878-93C2863E0093";
shapes = (
{
closed = 1;
nodes = (
(145,0,l),
(540,0,l),
(540,875,ls),
(540,1109,o),
(401,1248,o),
(139,1248,cs),
(7,1248,o),
(-89,1223,o),
(-144,1198,c),
(-144,881,l),
(-135,881,l),
(-101,899,o),
(-52,915,o),
(7,915,cs),
(94,915,o),
(145,865,o),
(145,782,cs)
);
}
);
width = 676;
}
);
script = khmer;
subCategory = Other;
unicode = 6070;
}
{
category = Mark;
glyphname = "iMark-khmer";
layers = (
{
anchors = (
{
name = _topright;
pos = (762,1233);
}
);
layerId = "B1F27B51-9973-4381-9301-4FE46FE1CA59";
shapes = (
{
closed = 1;
nodes = (
(762,1466,l),
(762,1495,l),
(727,1504,o),
(688,1513,o),
(624,1513,cs),
(50,1513,l),
(50,1466,l)
);
}
);
width = 812;
},
{
anchors = (
{
name = _topright;
pos = (850,1233);
}
);
layerId = "C698F293-3EC0-4A5A-A3A0-0FDB1F5CF265";
shapes = (
{
closed = 1;
nodes = (
(850,1466,l),
(850,1564,l),
(792,1604,o),
(721,1629,o),
(585,1629,cs),
(50,1629,l),
(50,1466,l)
);
}
);
width = 900;
},
{
anchors = (
{
name = _topright;
pos = (1040,1233);
}
);
layerId = "5C20EF92-B63D-42A8-8878-93C2863E0093";
shapes = (
{
closed = 1;
nodes = (
(1040,1396,l),
(1040,1510,l),
(969,1649,o),
(858,1721,o),
(650,1721,cs),
(50,1721,l),
(50,1396,l)
);
}
);
width = 1090;
}
);
metricRight = "=|";
script = khmer;
subCategory = Nonspacing;
unicode = 6071;
}
{
category = Mark;
glyphname = "iiMark-khmer";
layers = (
{
anchors = (
{
name = _topright;
pos = (762,1233);
}
);
layerId = "B1F27B51-9973-4381-9301-4FE46FE1CA59";
shapes = (
{
closed = 1;
nodes = (
(762,1466,l),
(762,1815,l),
(717,1815,l),
(717,1503,l),
(716,1503,l),
(695,1509,o),
(670,1513,o),
(640,1513,cs),
(50,1513,l),
(50,1466,l)
);
}
);
width = 812;
},
{
anchors = (
{
name = _topright;
pos = (850,1233);
}
);
background = {
anchors = (
{
name = _topright;
pos = (762,1233);
}
);
shapes = (
{
closed = 1;
nodes = (
(763,1466,l),
(763,1876,l),
(600,1876,l),
(600,1589,l),
(596,1589,l),
(567,1608,o),
(524,1619,o),
(479,1619,cs),
(50,1619,l),
(50,1466,l)
);
}
);
};
layerId = "C698F293-3EC0-4A5A-A3A0-0FDB1F5CF265";
shapes = (
{
closed = 1;
nodes = (
(850,1466,l),
(850,1885,l),
(692,1885,l),
(692,1587,l),
(686,1587,l),
(637,1619,o),
(595,1629,o),
(531,1629,cs),
(50,1629,l),
(50,1466,l)
);
}
);
width = 900;
},
{
anchors = (
{
name = _topright;
pos = (1040,1236);
}
);
background = {
anchors = (
{
name = _topright;
pos = (1033,1233);
}
);
shapes = (
{
closed = 1;
nodes = (
(1033,1396,l),
(1033,1885,l),
(684,1885,l),
(684,1655,l),
(677,1655,l),
(624,1701,o),
(576,1721,o),
(493,1721,cs),
(42,1721,l),
(42,1396,l)
);
}
);
};
layerId = "5C20EF92-B63D-42A8-8878-93C2863E0093";
shapes = (
{
closed = 1;
nodes = (
(1040,1396,l),
(1040,1885,l),
(684,1885,l),
(684,1655,l),
(676,1655,l),
(624,1701,o),
(574,1721,o),
(490,1721,cs),
(50,1721,l),
(50,1396,l)
);
}
);
width = 1090;
}
);
metricRight = "=|";
script = khmer;
subCategory = Nonspacing;
unicode = 6072;
}
{
category = Mark;
glyphname = "yMark-khmer";
layers = (
{
anchors = (
{
name = _topright;
pos = (762,1233);
}
);
background = {
anchors = (
{
name = _topright;
pos = (762,1233);
}
);
shapes = (
{
closed = 1;
nodes = (
(612,1466,ls),
(724,1466,o),
(796,1535,o),
(796,1641,cs),
(796,1737,o),
(723,1811,o),
(626,1811,cs),
(530,1811,o),
(457,1737,o),
(457,1641,cs),
(457,1563,o),
(497,1504,o),
(570,1479,c),
(554,1496,l),
(532,1508,o),
(506,1513,o),
(464,1513,cs),
(50,1513,l),
(50,1466,l)
);
},
{
closed = 1;
nodes = (
(555,1512,o),
(500,1567,o),
(500,1641,cs),
(500,1713,o),
(555,1767,o),
(626,1767,cs),
(698,1767,o),
(752,1713,o),
(752,1641,cs),
(752,1563,o),
(702,1512,o),
(626,1512,cs)
);
}
);
};
layerId = "B1F27B51-9973-4381-9301-4FE46FE1CA59";
shapes = (
{
closed = 1;
nodes = (
(612,1466,ls),
(724,1466,o),
(796,1536,o),
(796,1643,cs),
(796,1741,o),
(723,1815,o),
(626,1815,cs),
(530,1815,o),
(457,1741,o),
(457,1643,cs),
(457,1564,o),
(497,1504,o),
(570,1479,c),
(554,1496,l),
(532,1508,o),
(506,1513,o),
(464,1513,cs),
(50,1513,l),
(50,1466,l)
);
},
{
closed = 1;
nodes = (
(555,1512,o),
(500,1568,o),
(500,1643,cs),
(500,1716,o),
(555,1772,o),
(626,1772,cs),
(698,1772,o),
(752,1716,o),
(752,1643,cs),
(752,1564,o),
(702,1512,o),
(626,1512,cs)
);
}
);
width = 846;
},
{
anchors = (
{
name = _topright;
pos = (850,1233);
}
);
background = {
anchors = (
{
name = _topright;
pos = (850,1233);
}
);
shapes = (
{
closed = 1;
nodes = (
(670,1466,ls),
(812,1466,o),
(901,1551,o),
(901,1679,cs),
(901,1801,o),
(807,1892,o),
(684,1892,cs),
(560,1892,o),
(466,1801,o),
(466,1680,cs),
(466,1637,o),
(476,1601,o),
(503,1564,c),
(518,1571,l),
(481,1612,o),
(444,1629,o),
(360,1629,cs),
(50,1629,l),
(50,1466,l)
);
},
{
closed = 1;
nodes = (
(634,1590,o),
(597,1628,o),
(597,1679,cs),
(597,1730,o),
(634,1769,o),
(684,1769,cs),
(733,1769,o),
(770,1730,o),
(770,1679,cs),
(770,1628,o),
(733,1590,o),
(684,1590,cs)
);
}
);
};
layerId = "C698F293-3EC0-4A5A-A3A0-0FDB1F5CF265";
shapes = (
{
closed = 1;
nodes = (
(684,1466,ls),
(826,1466,o),
(914,1549,o),
(914,1675,cs),
(914,1795,o),
(821,1885,o),
(698,1885,cs),
(575,1885,o),
(482,1795,o),
(482,1676,cs),
(482,1635,o),
(491,1599,o),
(518,1564,c),
(532,1571,l),
(495,1612,o),
(459,1629,o),
(375,1629,cs),
(50,1629,l),
(50,1466,l)
);
},
{
closed = 1;
nodes = (
(650,1590,o),
(613,1627,o),
(613,1676,cs),
(613,1724,o),
(650,1761,o),
(698,1761,cs),
(747,1761,o),
(783,1724,o),
(783,1676,cs),
(783,1627,o),
(747,1590,o),
(698,1590,cs)
);
}
);
width = 964;
},
{
anchors = (
{
name = _topright;
pos = (1040,1233);
}
);
layerId = "5C20EF92-B63D-42A8-8878-93C2863E0093";
shapes = (
{
closed = 1;
nodes = (
(809,1396,ls),
(973,1396,o),
(1090,1504,o),
(1090,1647,cs),
(1090,1793,o),
(978,1904,o),
(813,1904,cs),
(651,1904,o),
(543,1794,o),
(543,1653,cs),
(543,1617,o),
(546,1594,o),
(566,1553,c),
(632,1583,l),
(564,1693,o),
(483,1716,o),
(396,1716,cs),
(50,1716,l),
(50,1396,l)
);
},
{
closed = 1;
nodes = (
(774,1578,o),
(745,1609,o),
(745,1650,cs),
(745,1691,o),
(774,1722,o),
(813,1722,cs),
(851,1722,o),
(880,1691,o),
(880,1650,cs),
(880,1609,o),
(851,1578,o),
(813,1578,cs)
);
}
);
width = 1140;
}
);
metricRight = "=|";
script = khmer;
subCategory = Nonspacing;
unicode = 6073;
}
{
category = Mark;
glyphname = "yyMark-khmer";
layers = (
{
anchors = (
{
name = _topright;
pos = (762,1233);
}
);
layerId = "B1F27B51-9973-4381-9301-4FE46FE1CA59";
shapes = (
{
closed = 1;
nodes = (
(762,1466,l),
(762,1815,l),
(717,1815,l),
(717,1498,l),
(716,1498,l),
(695,1508,o),
(670,1513,o),
(640,1513,cs),
(50,1513,l),
(50,1466,l)
);
},
{
closed = 1;
nodes = (
(463,1503,l),
(463,1815,l),
(418,1815,l),
(418,1503,l)
);
}
);
width = 812;
},
{
anchors = (
{
name = _topright;
pos = (850,1233);
}
);
background = {
anchors = (
{
name = _topright;
pos = (762,1233);
}
);
shapes = (
{
closed = 1;
nodes = (
(763,1466,l),
(763,1862,l),
(600,1862,l),
(600,1589,l),
(596,1589,l),
(567,1608,o),
(524,1619,o),
(479,1619,cs),
(50,1619,l),
(50,1466,l)
);
},
{
closed = 1;
nodes = (
(444,1570,l),
(444,1862,l),
(282,1862,l),
(282,1570,l)
);
}
);
};
layerId = "C698F293-3EC0-4A5A-A3A0-0FDB1F5CF265";
shapes = (
{
closed = 1;
nodes = (
(850,1466,l),
(850,1885,l),
(695,1885,l),
(695,1587,l),
(689,1587,l),
(643,1619,o),
(609,1629,o),
(560,1629,cs),
(50,1629,l),
(50,1466,l)
);
},
{
closed = 1;
nodes = (
(522,1596,l),
(522,1885,l),
(366,1885,l),
(366,1596,l)
);
}
);
width = 900;
},
{
anchors = (
{
name = _topright;
pos = (1048,1233);
}
);
background = {
anchors = (
{
name = _topright;
pos = (1048,1233);
}
);
shapes = (
{
closed = 1;
nodes = (
(1048,1396,l),
(1048,1908,l),
(726,1908,l),
(726,1670,l),
(618,1684,l),
(618,1908,l),
(297,1908,l),
(297,1699,l),
(50,1699,l),
(50,1396,l)
);
}
);
};
layerId = "5C20EF92-B63D-42A8-8878-93C2863E0093";
shapes = (
{
closed = 1;
nodes = (
(1040,1396,l),
(1040,1885,l),
(728,1885,l),
(728,1670,l),
(720,1670,l),
(664,1701,o),
(611,1715,o),
(522,1715,cs),
(50,1715,l),
(50,1396,l)
);
},
{
closed = 1;
nodes = (
(582,1631,l),
(582,1885,l),
(269,1885,l),
(269,1631,l)
);
}
);
width = 1090;
}
);
metricRight = "=|";
script = khmer;
subCategory = Nonspacing;
unicode = 6074;
}
{
category = Mark;
glyphname = "uMark-khmer";
layers = (
{
anchors = (
{
name = _bottomright;
pos = (221,0);
}
);
background = {
anchors = (
{
name = _bottomright;
pos = (221,0);
}
);
shapes = (
{
closed = 1;
nodes = (
(221,-559,l),
(221,-105,l),
(50,-105,l),
(50,-147,l),
(176,-147,l),
(176,-559,l)
);
}
);
};
layerId = "B1F27B51-9973-4381-9301-4FE46FE1CA59";
shapes = (
{
closed = 1;
nodes = (
(176,-559,l),
(221,-559,l),
(221,-212,ls),
(221,-141,o),
(188,-105,o),
(122,-105,cs),
(50,-105,l),
(50,-147,l),
(116,-147,ls),
(156,-147,o),
(176,-169,o),
(176,-212,cs)
);
}
);
width = 271;
},
{
anchors = (
{
name = _bottomright;
pos = (312,0);
}
);
layerId = "C698F293-3EC0-4A5A-A3A0-0FDB1F5CF265";
shapes = (
{
closed = 1;
nodes = (
(157,-559,l),
(312,-559,l),
(312,-263,ls),
(312,-148,o),
(275,-105,o),
(175,-105,cs),
(50,-105,l),
(50,-225,l),
(118,-225,ls),
(146,-225,o),
(157,-238,o),
(157,-269,cs)
);
}
);
width = 362;
},
{
anchors = (
{
name = _bottomright;
pos = (524,0);
}
);
background = {
anchors = (
{
name = _bottomright;
pos = (524,0);
}
);
shapes = (
{
closed = 1;
nodes = (
(153,-559,l),
(524,-559,l),
(524,-93,l),
(49,-93,l),
(49,-261,l),
(153,-261,l)
);
}
);
};
layerId = "5C20EF92-B63D-42A8-8878-93C2863E0093";
shapes = (
{
closed = 1;
nodes = (
(152,-559,l),
(524,-559,l),
(524,-257,ls),
(524,-130,o),
(474,-93,o),
(345,-93,cs),
(50,-93,l),
(50,-262,l),
(124,-262,ls),
(148,-262,o),
(152,-271,o),
(152,-290,cs)
);
}
);
width = 574;
}
);
metricRight = "=|";
script = khmer;
subCategory = Nonspacing;
unicode = 6075;
}
{
category = Mark;
glyphname = "uuMark-khmer";
layers = (
{
anchors = (
{
name = _bottomright;
pos = (527,0);
}
);
layerId = "B1F27B51-9973-4381-9301-4FE46FE1CA59";
shapes = (
{
closed = 1;
nodes = (
(449,-570,o),
(527,-497,o),
(527,-390,cs),
(527,-105,l),
(482,-105,l),
(482,-390,ls),
(482,-470,o),
(422,-525,o),
(335,-525,cs),
(246,-525,o),
(185,-470,o),
(185,-390,cs),
(185,-105,l),
(50,-105,l),
(50,-147,l),
(140,-147,l),
(140,-390,ls),
(140,-497,o),
(219,-570,o),
(335,-570,cs)
);
}
);
width = 577;
},
{
anchors = (
{
name = _bottomright;
pos = (654,0);
}
);
layerId = "C698F293-3EC0-4A5A-A3A0-0FDB1F5CF265";
shapes = (
{
closed = 1;
nodes = (
(556,-570,o),
(653,-488,o),
(653,-345,cs),
(653,-105,l),
(499,-105,l),
(499,-341,ls),
(499,-407,o),
(458,-445,o),
(385,-445,cs),
(312,-445,o),
(271,-407,o),
(271,-341,cs),
(271,-105,l),
(50,-105,l),
(50,-218,l),
(117,-218,l),
(117,-345,ls),
(117,-488,o),
(214,-570,o),
(385,-570,cs)
);
}
);
width = 703;
},
{
anchors = (
{
name = _bottomright;
pos = (861,0);
}
);
layerId = "5C20EF92-B63D-42A8-8878-93C2863E0093";
shapes = (
{
closed = 1;
nodes = (
(734,-573,o),
(861,-491,o),
(861,-330,cs),
(861,-93,l),
(540,-93,l),
(540,-319,ls),
(540,-365,o),
(509,-391,o),
(457,-391,cs),
(405,-391,o),
(374,-365,o),
(374,-319,cs),
(374,-93,l),
(50,-93,l),
(50,-259,l),
(117,-259,l),
(117,-330,ls),
(117,-494,o),
(229,-573,o),
(458,-573,cs)
);
}
);
width = 911;
}
);
metricRight = "=|";
script = khmer;
subCategory = Nonspacing;
unicode = 6076;
}
{
category = Mark;
glyphname = "uaMark-khmer";
layers = (
{
anchors = (
{
name = _bottomright;
pos = (601,0);
}
);
background = {
anchors = (
{
name = _bottomright;
pos = (544,0);
}
);
shapes = (
{
closed = 1;
nodes = (
(198,-535,l),
(198,-368,l),
(308,-425,o),
(371,-535,o),
(442,-535,c),
(510,-535,o),
(544,-496,o),
(544,-419,c),
(544,-105,l),
(499,-105,l),
(499,-419,l),
(499,-467,o),
(480,-492,o),
(442,-492,c),
(387,-492,o),
(308,-375,o),
(198,-317,c),
(198,-193,ls),
(198,-137,o),
(164,-105,o),
(105,-105,cs),
(55,-105,l),
(55,-147,l),
(105,-147,ls),
(135,-147,o),
(153,-164,o),
(153,-194,cs),
(153,-535,l)
);
}
);
};
layerId = "B1F27B51-9973-4381-9301-4FE46FE1CA59";
shapes = (
{
closed = 1;
nodes = (
(185,-559,l),
(185,-379,l),
(188,-379,l),
(556,-559,l),
(601,-559,l),
(601,-105,l),
(556,-105,l),
(556,-511,l),
(553,-511,l),
(185,-331,l),
(185,-105,l),
(50,-105,l),
(50,-147,l),
(140,-147,l),
(140,-559,l)
);
}
);
width = 651;
},
{
anchors = (
{
name = _bottomright;
pos = (694,0);
}
);
layerId = "C698F293-3EC0-4A5A-A3A0-0FDB1F5CF265";
shapes = (
{
closed = 1;
nodes = (
(270,-559,l),
(270,-434,l),
(274,-434,l),
(541,-559,l),
(693,-559,l),
(693,-105,l),
(541,-105,l),
(541,-428,l),
(536,-428,l),
(270,-302,l),
(270,-105,l),
(50,-105,l),
(50,-218,l),
(117,-218,l),
(117,-559,l)
);
}
);
width = 743;
},
{
anchors = (
{
name = _bottomright;
pos = (866,0);
}
);
background = {
anchors = (
{
name = _bottomright;
pos = (840,0);
}
);
shapes = (
{
closed = 1;
nodes = (
(394,-535,l),
(479,-428,l),
(562,-535,l),
(840,-535,l),
(840,-93,l),
(539,-93,l),
(539,-334,l),
(533,-334,l),
(487,-281,l),
(471,-281,l),
(424,-334,l),
(418,-334,l),
(418,-93,l),
(71,-93,l),
(71,-259,l),
(159,-259,l),
(159,-535,l)
);
}
);
};
layerId = "5C20EF92-B63D-42A8-8878-93C2863E0093";
shapes = (
{
closed = 1;
nodes = (
(370,-559,l),
(370,-451,l),
(374,-451,l),
(562,-559,l),
(866,-559,l),
(866,-93,l),
(546,-93,l),
(546,-368,l),
(542,-368,l),
(373,-269,l),
(373,-93,l),
(50,-93,l),
(50,-259,l),
(117,-259,l),
(117,-559,l)
);
}
);
width = 916;
}
);
metricRight = "=|";
script = khmer;
subCategory = Nonspacing;
unicode = 6077;
}
{
category = Letter;
glyphname = "yaSign-khmer";
layers = (
{
layerId = "B1F27B51-9973-4381-9301-4FE46FE1CA59";
shapes = (
{
closed = 1;
nodes = (
(204,-570,o),
(308,-477,o),
(308,-314,cs),
(308,1223,ls),
(308,1415,o),
(207,1513,o),
(8,1513,cs),
(-358,1513,l),
(-358,1466,l),
(8,1466,ls),
(176,1466,o),
(262,1384,o),
(262,1223,cs),
(262,-314,ls),
(262,-448,o),
(174,-525,o),
(20,-525,cs),
(-133,-525,o),
(-221,-448,o),
(-221,-314,cs),
(-221,-105,l),
(-268,-105,l),
(-268,-314,ls),
(-268,-477,o),
(-163,-570,o),
(20,-570,cs)
);
},
{
closed = 1;
nodes = (
(-17,1503,l),
(-17,1815,l),
(-63,1815,l),
(-63,1503,l)
);
},
{
closed = 1;
nodes = (
(257,1485,o),
(282,1540,o),
(282,1635,cs),
(282,1815,l),
(237,1815,l),
(237,1635,ls),
(237,1555,o),
(216,1502,o),
(170,1465,c),
(201,1443,l)
);
}
);
width = 529;
},
{
background = {
shapes = (
{
closed = 1;
nodes = (
(215,-550,o),
(359,-426,o),
(359,-239,cs),
(359,1266,ls),
(359,1403,o),
(340,1463,o),
(279,1513,c),
(279,1516,l),
(316,1557,o),
(333,1599,o),
(333,1681,cs),
(333,1877,l),
(170,1877,l),
(170,1649,ls),
(170,1606,o),
(165,1580,o),
(151,1533,c),
(232,1536,l),
(191,1584,o),
(118,1619,o),
(15,1619,cs),
(-372,1619,l),
(-372,1466,l),
(-22,1466,ls),
(121,1466,o),
(192,1407,o),
(192,1288,cs),
(192,-230,ls),
(192,-341,o),
(114,-415,o),
(-4,-415,cs),
(-123,-415,o),
(-201,-341,o),
(-201,-230,cs),
(-201,-105,l),
(-368,-105,l),
(-368,-239,ls),
(-368,-426,o),
(-223,-550,o),
(-4,-550,cs)
);
},
{
closed = 1;
nodes = (
(20,1570,l),
(20,1877,l),
(-143,1877,l),
(-143,1570,l)
);
}
);
};
layerId = "C698F293-3EC0-4A5A-A3A0-0FDB1F5CF265";
shapes = (
{
closed = 1;
nodes = (
(244,-573,o),
(396,-444,o),
(396,-247,cs),
(396,1310,ls),
(396,1493,o),
(256,1619,o),
(52,1619,cs),
(-361,1619,l),
(-361,1466,l),
(36,1466,ls),
(165,1466,o),
(228,1407,o),
(228,1288,cs),
(228,-239,ls),
(228,-350,o),
(143,-423,o),
(13,-423,cs),
(-116,-423,o),
(-202,-350,o),
(-202,-239,cs),
(-202,-105,l),
(-369,-105,l),
(-369,-247,ls),
(-369,-444,o),
(-217,-573,o),
(13,-573,cs)
);
},
{
closed = 1;
nodes = (
(36,1570,l),
(36,1885,l),
(-121,1885,l),
(-121,1570,l)
);
},
{
closed = 1;
nodes = (
(359,1565,o),
(369,1636,o),
(369,1688,cs),
(369,1885,l),
(212,1885,l),
(212,1693,ls),
(212,1644,o),
(200,1604,o),
(172,1561,c),
(263,1501,l)
);
}
);
width = 598;
},
{
background = {
shapes = (
{
closed = 1;
nodes = (
(88,1901,l),
(-233,1901,l),
(-233,1699,l),
(-495,1699,l),
(-495,1396,l),
(503,1396,l),
(503,1901,l),
(181,1901,l),
(181,1670,l),
(88,1684,l)
);
}
);
};
layerId = "5C20EF92-B63D-42A8-8878-93C2863E0093";
shapes = (
{
closed = 1;
nodes = (
(349,-573,o),
(545,-445,o),
(545,-198,cs),
(545,1222,ls),
(545,1532,o),
(336,1715,o),
(-19,1715,cs),
(-487,1715,l),
(-487,1396,l),
(-41,1396,ls),
(103,1396,o),
(151,1333,o),
(151,1200,cs),
(151,-161,ls),
(151,-244,o),
(98,-291,o),
(6,-291,cs),
(-84,-291,o),
(-137,-244,o),
(-137,-161,cs),
(-137,-93,l),
(-531,-93,l),
(-531,-198,ls),
(-531,-445,o),
(-335,-573,o),
(6,-573,cs)
);
},
{
closed = 1;
nodes = (
(53,1561,l),
(53,1885,l),
(-260,1885,l),
(-260,1561,l)
);
},
{
closed = 1;
nodes = (
(482,1556,o),
(511,1602,o),
(511,1692,cs),
(511,1885,l),
(199,1885,l),
(199,1700,ls),
(199,1647,o),
(188,1604,o),
(170,1549,c),
(423,1508,l)
);
}
);
width = 682;
}
);
production = uni17BF;
script = khmer;
subCategory = Other;
unicode = 6079;
}
{
category = Letter;
glyphname = "ieSign-khmer";
layers = (
{
layerId = "B1F27B51-9973-4381-9301-4FE46FE1CA59";
shapes = (
{
closed = 1;
nodes = (
(191,-570,o),
(308,-466,o),
(308,-314,cs),
(308,1493,ls),
(308,1647,o),
(209,1769,o),
(36,1769,cs),
(-113,1769,o),
(-187,1687,o),
(-215,1629,c),
(-221,1629,l),
(-221,1815,l),
(-266,1815,l),
(-266,1473,l),
(-223,1466,l),
(-217,1624,o),
(-121,1724,o),
(33,1724,cs),
(180,1724,o),
(262,1623,o),
(262,1493,cs),
(262,-314,ls),
(262,-439,o),
(164,-525,o),
(20,-525,cs),
(-124,-525,o),
(-221,-439,o),
(-221,-314,cs),
(-221,-105,l),
(-268,-105,l),
(-268,-314,ls),
(-268,-466,o),
(-151,-570,o),
(20,-570,cs)
);
}
);
width = 529;
},
{
layerId = "C698F293-3EC0-4A5A-A3A0-0FDB1F5CF265";
shapes = (
{
closed = 1;
nodes = (
(244,-573,o),
(396,-444,o),
(396,-247,cs),
(396,1475,ls),
(396,1677,o),
(260,1801,o),
(60,1801,cs),
(-51,1801,o),
(-148,1753,o),
(-198,1661,c),
(-207,1661,l),
(-207,1885,l),
(-369,1885,l),
(-369,1489,l),
(-205,1460,l),
(-192,1574,o),
(-97,1655,o),
(27,1655,cs),
(147,1655,o),
(228,1572,o),
(228,1452,cs),
(228,-239,ls),
(228,-350,o),
(143,-423,o),
(13,-423,cs),
(-116,-423,o),
(-202,-350,o),
(-202,-239,cs),
(-202,-105,l),
(-369,-105,l),
(-369,-247,ls),
(-369,-444,o),
(-217,-573,o),
(13,-573,cs)
);
}
);
width = 598;
},
{
layerId = "5C20EF92-B63D-42A8-8878-93C2863E0093";
shapes = (
{
closed = 1;
nodes = (
(350,-573,o),
(545,-445,o),
(545,-198,cs),
(545,1437,ls),
(545,1676,o),
(409,1814,o),
(173,1814,cs),
(34,1814,o),
(-61,1764,o),
(-119,1677,c),
(-130,1677,l),
(-130,1885,l),
(-494,1885,l),
(-494,1469,l),
(-128,1428,l),
(-103,1503,o),
(-58,1547,o),
(23,1547,cs),
(100,1547,o),
(151,1497,o),
(151,1423,cs),
(151,-161,ls),
(151,-244,o),
(99,-291,o),
(7,-291,cs),
(-84,-291,o),
(-137,-244,o),
(-137,-161,cs),
(-137,-93,l),
(-531,-93,l),
(-531,-198,ls),
(-531,-445,o),
(-335,-573,o),
(7,-573,cs)
);
}
);
width = 682;
}
);
production = uni17C0;
script = khmer;
subCategory = Other;
unicode = 6080;
}
{
category = Letter;
glyphname = "eSign-khmer";
kernRight = KH_E;
layers = (
{
anchors = (
{
name = top_part;
pos = (319,1233);
}
);
layerId = "B1F27B51-9973-4381-9301-4FE46FE1CA59";
shapes = (
{
closed = 1;
nodes = (
(417,-7,o),
(436,-4,o),
(465,3,c),
(465,45,l),
(432,36,o),
(419,33,o),
(391,33,cs),
(315,33,o),
(271,79,o),
(271,158,cs),
(271,1049,ls),
(271,1145,o),
(317,1194,o),
(399,1194,cs),
(420,1194,o),
(452,1191,o),
(479,1187,c),
(479,1232,l),
(457,1236,o),
(424,1241,o),
(399,1241,cs),
(288,1241,o),
(224,1176,o),
(224,1049,cs),
(224,158,ls),
(224,53,o),
(282,-7,o),
(385,-7,cs)
);
}
);
width = 579;
},
{
anchors = (
{
name = top_part;
pos = (340,1233);
}
);
layerId = "C698F293-3EC0-4A5A-A3A0-0FDB1F5CF265";
shapes = (
{
closed = 1;
nodes = (
(457,-15,o),
(513,-7,o),
(532,1,c),
(532,144,l),
(511,137,o),
(489,135,o),
(467,135,cs),
(399,135,o),
(365,160,o),
(365,233,cs),
(365,972,ls),
(365,1047,o),
(400,1084,o),
(481,1084,cs),
(509,1084,o),
(528,1080,o),
(554,1075,c),
(554,1231,l),
(528,1236,o),
(493,1241,o),
(452,1241,cs),
(298,1241,o),
(198,1161,o),
(198,977,cs),
(198,222,ls),
(198,84,o),
(265,-15,o),
(433,-15,cs)
);
}
);
width = 647;
},
{
anchors = (
{
name = top_part;
pos = (379,1233);
}
);
background = {
anchors = (
{
name = top_part;
pos = (366,1233);
}
);
shapes = (
{
closed = 1;
nodes = (
(487,-7,o),
(567,1,o),
(631,26,c),
(631,276,l),
(602,270,o),
(580,268,o),
(565,268,cs),
(517,268,o),
(493,290,o),
(493,329,cs),
(493,852,ls),
(493,902,o),
(519,931,o),
(563,931,cs),
(590,931,o),
(612,927,o),
(636,920,c),
(636,1219,l),
(567,1235,o),
(509,1241,o),
(435,1241,cs),
(224,1241,o),
(108,1124,o),
(108,911,cs),
(108,257,ls),
(108,87,o),
(225,-7,o),
(432,-7,cs)
);
}
);
};
layerId = "5C20EF92-B63D-42A8-8878-93C2863E0093";
shapes = (
{
closed = 1;
nodes = (
(497,-7,o),
(579,0,o),
(647,27,c),
(647,282,l),
(618,276,o),
(598,273,o),
(581,273,cs),
(535,273,o),
(511,295,o),
(511,334,cs),
(511,824,ls),
(511,873,o),
(537,902,o),
(579,902,cs),
(607,902,o),
(628,900,o),
(652,896,c),
(652,1228,l),
(582,1237,o),
(522,1241,o),
(447,1241,cs),
(234,1241,o),
(116,1123,o),
(116,908,cs),
(116,260,ls),
(116,87,o),
(236,-7,o),
(444,-7,cs)
);
}
);
width = 716;
}
);
production = uni17C1;
script = khmer;
subCategory = Other;
unicode = 6081;
}
{
category = Letter;
glyphname = "aeSign-khmer";
kernRight = KH_E;
layers = (
{
anchors = (
{
name = _top_part;
pos = (319,1233);
}
);
layerId = "B1F27B51-9973-4381-9301-4FE46FE1CA59";
shapes = (
{
closed = 1;
nodes = (
(463,1373,o),
(551,1466,o),
(551,1603,cs),
(551,1815,l),
(505,1815,l),
(505,1603,ls),
(505,1493,o),
(436,1418,o),
(334,1418,cs),
(259,1418,o),
(193,1457,o),
(153,1525,c),
(116,1495,l),
(164,1417,o),
(244,1373,o),
(333,1373,cs)
);
},
{
ref = "eSign-khmer";
}
);
width = 579;
},
{
anchors = (
{
name = _top_part;
pos = (340,1233);
}
);
layerId = "C698F293-3EC0-4A5A-A3A0-0FDB1F5CF265";
shapes = (
{
closed = 1;
nodes = (
(497,1373,o),
(596,1457,o),
(596,1603,cs),
(596,1885,l),
(435,1885,l),
(435,1610,ls),
(435,1551,o),
(396,1518,o),
(337,1518,cs),
(285,1518,o),
(244,1543,o),
(223,1601,c),
(93,1525,l),
(136,1434,o),
(215,1373,o),
(339,1373,cs)
);
},
{
ref = "eSign-khmer";
}
);
width = 647;
},
{
anchors = (
{
name = _top_part;
pos = (379,1233);
}
);
layerId = "5C20EF92-B63D-42A8-8878-93C2863E0093";
shapes = (
{
closed = 1;
nodes = (
(554,1337,o),
(694,1440,o),
(694,1621,cs),
(694,1908,l),
(335,1908,l),
(335,1692,ls),
(335,1638,o),
(309,1608,o),
(264,1608,cs),
(231,1608,o),
(204,1628,o),
(181,1666,c),
(15,1472,l),
(82,1394,o),
(188,1337,o),
(337,1337,cs)
);
},
{
ref = "eSign-khmer";
}
);
width = 716;
}
);
metricWidth = "eSign-khmer";
production = uni17C2;
script = khmer;
subCategory = Other;
unicode = 6082;
}
{
category = Letter;
glyphname = "aiSign-khmer";
kernRight = KH_E;
layers = (
{
anchors = (
{
name = _top_part;
pos = (319,1233);
}
);
layerId = "B1F27B51-9973-4381-9301-4FE46FE1CA59";
shapes = (
{
closed = 1;
nodes = (
(433,1373,o),
(512,1452,o),
(512,1562,cs),
(512,1669,o),
(437,1743,o),
(312,1743,cs),
(207,1743,l),
(207,1885,l),
(161,1885,l),
(161,1697,l),
(312,1697,ls),
(410,1697,o),
(467,1643,o),
(467,1562,cs),
(467,1477,o),
(409,1418,o),
(316,1418,cs),
(281,1418,o),
(243,1428,o),
(212,1447,c),
(191,1407,l),
(229,1385,o),
(275,1373,o),
(316,1373,cs)
);
},
{
ref = "eSign-khmer";
}
);
width = 579;
},
{
anchors = (
{
name = _top_part;
pos = (340,1233);
}
);
layerId = "C698F293-3EC0-4A5A-A3A0-0FDB1F5CF265";
shapes = (
{
closed = 1;
nodes = (
(484,1373,o),
(580,1465,o),
(580,1604,cs),
(580,1744,o),
(486,1830,o),
(339,1830,cs),
(279,1830,l),
(279,1955,l),
(116,1955,l),
(116,1692,l),
(316,1692,ls),
(373,1692,o),
(412,1657,o),
(412,1605,cs),
(412,1553,o),
(375,1517,o),
(321,1517,cs),
(283,1517,o),
(242,1533,o),
(216,1551,c),
(163,1426,l),
(198,1398,o),
(268,1373,o),
(338,1373,cs)
);
},
{
ref = "eSign-khmer";
}
);
width = 647;
},
{
anchors = (
{
name = _top_part;
pos = (379,1233);
}
);
layerId = "5C20EF92-B63D-42A8-8878-93C2863E0093";
shapes = (
{
closed = 1;
nodes = (
(578,1337,o),
(679,1428,o),
(679,1601,cs),
(679,1756,o),
(576,1840,o),
(407,1840,cs),
(398,1840,l),
(398,1955,l),
(59,1955,l),
(59,1658,l),
(246,1658,ls),
(292,1658,o),
(318,1639,o),
(318,1606,cs),
(318,1572,o),
(300,1548,o),
(260,1548,cs),
(244,1548,o),
(225,1551,o),
(199,1561,c),
(153,1377,l),
(235,1345,o),
(315,1337,o),
(380,1337,cs)
);
},
{
ref = "eSign-khmer";
}
);
width = 716;
}
);
metricWidth = "eSign-khmer";
production = uni17C3;
script = khmer;
subCategory = Other;
unicode = 6083;
}
{
category = Letter;
glyphname = "auSign-khmer";
layers = (
{
anchors = (
{
name = _auStroke;
pos = (377,1161);
}
);
layerId = "B1F27B51-9973-4381-9301-4FE46FE1CA59";
shapes = (
{
closed = 1;
nodes = (
(335,1215,o),
(391,1301,o),
(391,1452,cs),
(391,1676,l),
(346,1676,l),
(346,1452,ls),
(346,1321,o),
(311,1262,o),
(258,1190,c),
(287,1165,l)
);
},
{
ref = "aaSign-khmer";
}
);
width = 598;
},
{
anchors = (
{
name = _auStroke;
pos = (420,1161);
}
);
layerId = "C698F293-3EC0-4A5A-A3A0-0FDB1F5CF265";
shapes = (
{
closed = 1;
nodes = (
(407,1175,o),
(435,1255,o),
(435,1369,cs),
(435,1676,l),
(272,1676,l),
(272,1362,ls),
(272,1279,o),
(251,1211,o),
(208,1156,c),
(310,1113,l)
);
},
{
ref = "aaSign-khmer";
}
);
width = 623;
},
{
anchors = (
{
name = _auStroke;
pos = (540,1161);
}
);
layerId = "5C20EF92-B63D-42A8-8878-93C2863E0093";
shapes = (
{
closed = 1;
nodes = (
(524,1209,o),
(554,1312,o),
(554,1433,cs),
(554,1676,l),
(182,1676,l),
(182,1383,ls),
(182,1289,o),
(171,1216,o),
(137,1132,c),
(423,1117,l)
);
},
{
ref = "aaSign-khmer";
}
);
width = 676;
}
);
script = khmer;
subCategory = Other;
unicode = 6085;
}
{
category = Mark;
glyphname = "nikahit-khmer";
layers = (
{
anchors = (
{
name = _top;
pos = (220,1233);
}
);
background = {
shapes = (
{
closed = 1;
nodes = (
(-455,1457,o),
(-386,1528,o),
(-386,1631,cs),
(-386,1733,o),
(-455,1804,o),
(-555,1804,cs),
(-656,1804,o),
(-725,1733,o),
(-725,1631,cs),
(-725,1528,o),
(-656,1457,o),
(-555,1457,cs)
);
},
{
closed = 1;
nodes = (
(-630,1500,o),
(-681,1553,o),
(-681,1631,cs),
(-681,1708,o),
(-630,1761,o),
(-555,1761,cs),
(-480,1761,o),
(-430,1708,o),
(-430,1631,cs),
(-430,1553,o),
(-480,1500,o),
(-555,1500,cs)
);
}
);
};
layerId = "B1F27B51-9973-4381-9301-4FE46FE1CA59";
shapes = (
{
closed = 1;
nodes = (
(320,1443,o),
(389,1513,o),
(389,1616,cs),
(389,1719,o),
(320,1789,o),
(220,1789,cs),
(120,1789,o),
(50,1719,o),
(50,1616,cs),
(50,1513,o),
(120,1443,o),
(220,1443,cs)
);
},
{
closed = 1;
nodes = (
(145,1485,o),
(94,1538,o),
(94,1616,cs),
(94,1694,o),
(145,1747,o),
(220,1747,cs),
(295,1747,o),
(346,1694,o),
(346,1616,cs),
(346,1538,o),
(295,1485,o),
(220,1485,cs)
);
}
);
width = 439;
},
{
anchors = (
{
name = _top;
pos = (289,1233);
}
);
layerId = "C698F293-3EC0-4A5A-A3A0-0FDB1F5CF265";
shapes = (
{
closed = 1;
nodes = (
(427,1443,o),
(528,1546,o),
(528,1679,cs),
(528,1811,o),
(427,1914,o),
(289,1914,cs),
(151,1914,o),
(50,1811,o),
(50,1679,cs),
(50,1546,o),
(151,1443,o),
(289,1443,cs)
);
},
{
closed = 1;
nodes = (
(229,1569,o),
(185,1617,o),
(185,1679,cs),
(185,1740,o),
(229,1788,o),
(289,1788,cs),
(349,1788,o),
(393,1740,o),
(393,1679,cs),
(393,1617,o),
(349,1569,o),
(289,1569,cs)
);
}
);
width = 578;
},
{
anchors = (
{
name = _top;
pos = (365,1233);
}
);
background = {
shapes = (
{
closed = 1;
nodes = (
(-455,1382,o),
(-350,1495,o),
(-350,1653,cs),
(-350,1812,o),
(-455,1924,o),
(-665,1924,cs),
(-875,1924,o),
(-980,1812,o),
(-980,1653,cs),
(-980,1495,o),
(-875,1382,o),
(-665,1382,cs)
);
},
{
closed = 1;
nodes = (
(-710,1573,o),
(-742,1605,o),
(-742,1653,cs),
(-742,1701,o),
(-710,1733,o),
(-665,1733,cs),
(-621,1733,o),
(-589,1701,o),
(-589,1653,cs),
(-589,1605,o),
(-621,1573,o),
(-665,1573,cs)
);
}
);
};
layerId = "5C20EF92-B63D-42A8-8878-93C2863E0093";
shapes = (
{
closed = 1;
nodes = (
(581,1380,o),
(687,1497,o),
(687,1662,cs),
(687,1826,o),
(581,1943,o),
(368,1943,cs),
(156,1943,o),
(50,1827,o),
(50,1662,cs),
(50,1497,o),
(155,1380,o),
(368,1380,cs)
);
},
{
closed = 1;
nodes = (
(323,1575,o),
(290,1610,o),
(290,1662,cs),
(290,1713,o),
(323,1748,o),
(368,1748,cs),
(413,1748,o),
(447,1713,o),
(447,1662,cs),
(447,1610,o),
(413,1575,o),
(368,1575,cs)
);
}
);
width = 737;
}
);
metricRight = "=|";
script = khmer;
subCategory = Nonspacing;
unicode = 6086;
}
{
category = Letter;
glyphname = "reahmuk-khmer";
layers = (
{
layerId = "B1F27B51-9973-4381-9301-4FE46FE1CA59";
shapes = (
{
closed = 1;
nodes = (
(407,873,o),
(484,952,o),
(484,1053,cs),
(484,1154,o),
(407,1233,o),
(308,1233,cs),
(209,1233,o),
(131,1154,o),
(131,1053,cs),
(131,952,o),
(209,873,o),
(308,873,cs)
);
},
{
closed = 1;
nodes = (
(233,915,o),
(175,976,o),
(175,1053,cs),
(175,1130,o),
(233,1191,o),
(308,1191,cs),
(382,1191,o),
(441,1130,o),
(441,1053,cs),
(441,976,o),
(382,915,o),
(308,915,cs)
);
},
{
closed = 1;
nodes = (
(407,0,o),
(484,79,o),
(484,180,cs),
(484,281,o),
(407,361,o),
(308,361,cs),
(209,361,o),
(131,281,o),
(131,180,cs),
(131,79,o),
(209,0,o),
(308,0,cs)
);
},
{
closed = 1;
nodes = (
(233,42,o),
(175,103,o),
(175,180,cs),
(175,257,o),
(233,319,o),
(308,319,cs),
(382,319,o),
(441,257,o),
(441,180,cs),
(441,103,o),
(382,42,o),
(308,42,cs)
);
}
);
width = 630;
},
{
layerId = "C698F293-3EC0-4A5A-A3A0-0FDB1F5CF265";
shapes = (
{
closed = 1;
nodes = (
(449,810,o),
(548,905,o),
(548,1025,cs),
(548,1145,o),
(449,1239,o),
(323,1239,cs),
(196,1239,o),
(97,1145,o),
(97,1025,cs),
(97,905,o),
(196,810,o),
(323,810,cs)
);
},
{
closed = 1;
nodes = (
(272,930,o),
(233,972,o),
(233,1025,cs),
(233,1078,o),
(272,1119,o),
(323,1119,cs),
(373,1119,o),
(413,1078,o),
(413,1025,cs),
(413,972,o),
(373,930,o),
(323,930,cs)
);
},
{
closed = 1;
nodes = (
(449,-6,o),
(548,89,o),
(548,209,cs),
(548,329,o),
(449,423,o),
(323,423,cs),
(196,423,o),
(97,329,o),
(97,209,cs),
(97,89,o),
(196,-6,o),
(323,-6,cs)
);
},
{
closed = 1;
nodes = (
(272,114,o),
(233,156,o),
(233,209,cs),
(233,262,o),
(272,303,o),
(323,303,cs),
(373,303,o),
(413,262,o),
(413,209,cs),
(413,156,o),
(373,114,o),
(323,114,cs)
);
}
);
width = 652;
},
{
layerId = "5C20EF92-B63D-42A8-8878-93C2863E0093";
shapes = (
{
closed = 1;
nodes = (
(580,705,o),
(687,818,o),
(687,977,cs),
(687,1135,o),
(580,1248,o),
(379,1248,cs),
(178,1248,o),
(71,1135,o),
(71,977,cs),
(71,818,o),
(178,705,o),
(379,705,cs)
);
},
{
closed = 1;
nodes = (
(336,895,o),
(305,928,o),
(305,977,cs),
(305,1025,o),
(336,1058,o),
(379,1058,cs),
(422,1058,o),
(452,1025,o),
(452,977,cs),
(452,928,o),
(422,895,o),
(379,895,cs)
);
},
{
closed = 1;
nodes = (
(580,-15,o),
(687,98,o),
(687,257,cs),
(687,415,o),
(580,528,o),
(379,528,cs),
(178,528,o),
(71,415,o),
(71,257,cs),
(71,98,o),
(178,-15,o),
(379,-15,cs)
);
},
{
closed = 1;
nodes = (
(335,175,o),
(305,208,o),
(305,257,cs),
(305,305,o),
(335,338,o),
(379,338,cs),
(423,338,o),
(452,305,o),
(452,257,cs),
(452,208,o),
(423,175,o),
(379,175,cs)
);
}
);
width = 772;
}
);
script = khmer;
subCategory = Other;
unicode = 6087;
}
{
category = Letter;
glyphname = "yuukaleapintu-khmer";
layers = (
{
layerId = "B1F27B51-9973-4381-9301-4FE46FE1CA59";
shapes = (
{
closed = 1;
nodes = (
(239,1012,o),
(271,1046,o),
(271,1088,cs),
(271,1130,o),
(239,1164,o),
(198,1164,cs),
(157,1164,o),
(125,1130,o),
(125,1088,cs),
(125,1046,o),
(157,1012,o),
(198,1012,cs)
);
},
{
closed = 1;
nodes = (
(239,70,o),
(271,103,o),
(271,145,cs),
(271,188,o),
(239,221,o),
(198,221,cs),
(157,221,o),
(125,188,o),
(125,145,cs),
(125,103,o),
(157,70,o),
(198,70,cs)
);
}
);
width = 431;
},
{
layerId = "C698F293-3EC0-4A5A-A3A0-0FDB1F5CF265";
shapes = (
{
closed = 1;
nodes = (
(300,945,o),
(355,1001,o),
(355,1071,cs),
(355,1141,o),
(300,1196,o),
(231,1196,cs),
(162,1196,o),
(108,1141,o),
(108,1071,cs),
(108,1000,o),
(162,945,o),
(231,945,cs)
);
},
{
closed = 1;
nodes = (
(300,37,o),
(355,92,o),
(355,163,cs),
(355,233,o),
(300,289,o),
(231,289,cs),
(162,289,o),
(108,233,o),
(108,163,cs),
(108,92,o),
(162,37,o),
(231,37,cs)
);
}
);
width = 486;
},
{
layerId = "5C20EF92-B63D-42A8-8878-93C2863E0093";
shapes = (
{
closed = 1;
nodes = (
(406,851,o),
(490,935,o),
(490,1042,cs),
(490,1149,o),
(406,1233,o),
(299,1233,cs),
(192,1233,o),
(108,1149,o),
(108,1042,cs),
(108,935,o),
(192,851,o),
(299,851,cs)
);
},
{
closed = 1;
nodes = (
(406,0,o),
(490,84,o),
(490,191,cs),
(490,298,o),
(406,383,o),
(299,383,cs),
(192,383,o),
(108,298,o),
(108,191,cs),
(108,84,o),
(192,0,o),
(299,0,cs)
);
}
);
width = 612;
}
);
script = khmer;
subCategory = Other;
unicode = 6088;
}
{
category = Mark;
glyphname = "muusikatoan-khmer";
layers = (
{
anchors = (
{
name = _top;
pos = (201,1233);
}
);
layerId = "B1F27B51-9973-4381-9301-4FE46FE1CA59";
shapes = (
{
closed = 1;
nodes = (
(352,1466,l),
(352,1815,l),
(309,1815,l),
(309,1466,l)
);
},
{
closed = 1;
nodes = (
(93,1466,l),
(93,1815,l),
(50,1815,l),
(50,1466,l)
);
}
);
width = 402;
},
{
anchors = (
{
name = _top;
pos = (289,1233);
}
);
layerId = "C698F293-3EC0-4A5A-A3A0-0FDB1F5CF265";
shapes = (
{
closed = 1;
nodes = (
(527,1466,l),
(527,1885,l),
(367,1885,l),
(367,1466,l)
);
},
{
closed = 1;
nodes = (
(210,1466,l),
(210,1885,l),
(50,1885,l),
(50,1466,l)
);
}
);
width = 577;
},
{
anchors = (
{
name = _top;
pos = (412,1233);
}
);
background = {
anchors = (
{
name = _top;
pos = (574,1233);
}
);
shapes = (
{
closed = 1;
nodes = (
(195,1396,l),
(508,1396,l),
(508,1908,l),
(195,1908,l)
);
},
{
closed = 1;
nodes = (
(639,1396,l),
(952,1396,l),
(952,1908,l),
(639,1908,l)
);
}
);
};
layerId = "5C20EF92-B63D-42A8-8878-93C2863E0093";
shapes = (
{
closed = 1;
nodes = (
(774,1396,l),
(774,1876,l),
(483,1876,l),
(483,1396,l)
);
},
{
closed = 1;
nodes = (
(341,1396,l),
(341,1876,l),
(50,1876,l),
(50,1396,l)
);
}
);
width = 824;
}
);
metricRight = "=|";
script = khmer;
subCategory = Nonspacing;
unicode = 6089;
}
{
category = Mark;
glyphname = "triisap-khmer";
layers = (
{
anchors = (
{
name = _top;
pos = (422,1233);
},
{
name = top;
pos = (422,1513);
},
{
name = topright;
pos = (793,1513);
}
);
background = {
anchors = (
{
name = _top;
pos = (422,1233);
},
{
name = top;
pos = (422,1466);
},
{
name = topright;
pos = (793,1466);
}
);
shapes = (
{
closed = 1;
nodes = (
(793,1466,l),
(793,1513,l),
(497,1513,ls),
(467,1513,o),
(441,1510,o),
(423,1487,c),
(420,1487,l),
(398,1508,o),
(377,1513,o),
(347,1513,cs),
(50,1513,l),
(50,1466,l)
);
}
);
};
layerId = "B1F27B51-9973-4381-9301-4FE46FE1CA59";
shapes = (
{
closed = 1;
nodes = (
(445,1443,l),
(419,1494,o),
(385,1513,o),
(325,1513,cs),
(50,1513,l),
(50,1466,l),
(318,1466,ls),
(369,1466,o),
(395,1455,o),
(407,1423,c)
);
},
{
closed = 1;
nodes = (
(414,1466,l),
(793,1466,l),
(793,1513,l),
(474,1513,ls),
(449,1513,o),
(427,1495,o),
(414,1469,c)
);
}
);
width = 843;
},
{
anchors = (
{
name = _top;
pos = (479,1233);
},
{
name = top;
pos = (480,1619);
},
{
name = topright;
pos = (909,1619);
}
);
background = {
anchors = (
{
name = _top;
pos = (479,1233);
},
{
name = top;
pos = (480,1632);
},
{
name = topright;
pos = (909,1632);
}
);
shapes = (
{
closed = 1;
nodes = (
(909,1466,l),
(909,1619,l),
(647,1619,ls),
(565,1619,o),
(519,1594,o),
(485,1549,c),
(474,1549,l),
(439,1594,o),
(391,1619,o),
(311,1619,cs),
(50,1619,l),
(50,1466,l)
);
}
);
};
layerId = "C698F293-3EC0-4A5A-A3A0-0FDB1F5CF265";
shapes = (
{
closed = 1;
nodes = (
(527,1428,l),
(490,1571,o),
(439,1619,o),
(319,1619,cs),
(50,1619,l),
(50,1466,l),
(314,1466,ls),
(373,1466,o),
(399,1447,o),
(410,1396,c)
);
},
{
closed = 1;
nodes = (
(461,1466,l),
(909,1466,l),
(909,1619,l),
(633,1619,ls),
(527,1619,o),
(487,1570,o),
(461,1510,c)
);
}
);
width = 959;
},
{
anchors = (
{
name = _top;
pos = (567,1233);
},
{
name = top;
pos = (567,1683);
},
{
name = topright;
pos = (1084,1683);
}
);
background = {
anchors = (
{
name = _top;
pos = (567,1233);
},
{
name = top;
pos = (567,1639);
},
{
name = topright;
pos = (1084,1639);
}
);
shapes = (
{
closed = 1;
nodes = (
(1084,1396,l),
(1084,1683,l),
(757,1683,ls),
(667,1683,o),
(607,1651,o),
(572,1591,c),
(562,1591,l),
(526,1651,o),
(464,1683,o),
(370,1683,cs),
(50,1683,l),
(50,1396,l)
);
}
);
};
layerId = "5C20EF92-B63D-42A8-8878-93C2863E0093";
shapes = (
{
closed = 1;
nodes = (
(638,1382,l),
(592,1607,o),
(524,1683,o),
(366,1683,cs),
(50,1683,l),
(50,1420,l),
(369,1420,ls),
(421,1420,o),
(444,1401,o),
(455,1350,c)
);
},
{
closed = 1;
nodes = (
(524,1420,l),
(1084,1420,l),
(1084,1683,l),
(759,1683,ls),
(614,1683,o),
(560,1601,o),
(524,1498,c)
);
}
);
width = 1134;
}
);
metricRight = "=|";
script = khmer;
subCategory = Nonspacing;
unicode = 6090;
}
{
category = Mark;
glyphname = "bantoc-khmer";
layers = (
{
anchors = (
{
name = _top;
pos = (71,1233);
}
);
layerId = "B1F27B51-9973-4381-9301-4FE46FE1CA59";
shapes = (
{
closed = 1;
nodes = (
(93,1466,l),
(93,1815,l),
(50,1815,l),
(50,1466,l)
);
}
);
width = 143;
},
{
anchors = (
{
name = _top;
pos = (132,1233);
}
);
layerId = "C698F293-3EC0-4A5A-A3A0-0FDB1F5CF265";
shapes = (
{
closed = 1;
nodes = (
(213,1466,l),
(213,1885,l),
(50,1885,l),
(50,1466,l)
);
}
);
width = 263;
},
{
anchors = (
{
name = _top;
pos = (206,1233);
}
);
layerId = "5C20EF92-B63D-42A8-8878-93C2863E0093";
shapes = (
{
closed = 1;
nodes = (
(362,1396,l),
(362,1876,l),
(50,1876,l),
(50,1396,l)
);
}
);
width = 412;
}
);
metricRight = "=|";
script = khmer;
subCategory = Nonspacing;
unicode = 6091;
}
{
category = Mark;
glyphname = "robat-khmer";
layers = (
{
anchors = (
{
name = _topright;
pos = (703,1233);
}
);
layerId = "B1F27B51-9973-4381-9301-4FE46FE1CA59";
shapes = (
{
closed = 1;
nodes = (
(50,1466,l),
(703,1466,l),
(703,1508,l),
(223,1508,l),
(223,1511,l),
(348,1563,o),
(447,1673,o),
(447,1862,cs),
(447,1885,l),
(401,1885,l),
(401,1862,ls),
(401,1657,o),
(264,1535,o),
(50,1504,c)
);
}
);
width = 753;
},
{
anchors = (
{
name = _topright;
pos = (784,1233);
}
);
layerId = "C698F293-3EC0-4A5A-A3A0-0FDB1F5CF265";
shapes = (
{
closed = 1;
nodes = (
(50,1466,l),
(784,1466,l),
(784,1606,l),
(379,1606,l),
(379,1612,l),
(504,1673,o),
(575,1753,o),
(575,1940,cs),
(575,1955,l),
(410,1955,l),
(410,1935,ls),
(410,1734,o),
(322,1643,o),
(50,1590,c)
);
}
);
width = 834;
},
{
anchors = (
{
name = _topright;
pos = (946,1233);
}
);
layerId = "5C20EF92-B63D-42A8-8878-93C2863E0093";
shapes = (
{
closed = 1;
nodes = (
(50,1396,l),
(946,1396,l),
(946,1616,l),
(528,1616,l),
(528,1623,l),
(680,1682,o),
(730,1763,o),
(730,1925,cs),
(730,1955,l),
(370,1955,l),
(370,1932,ls),
(370,1708,o),
(273,1638,o),
(50,1595,c)
);
}
);
width = 996;
}
);
metricRight = "=|";
script = khmer;
subCategory = Nonspacing;
unicode = 6092;
}
{
category = Mark;
glyphname = "toandakhiat-khmer";
layers = (
{
anchors = (
{
name = _topright;
pos = (593,1233);
}
);
background = {
anchors = (
{
name = _topright;
pos = (579,1233);
}
);
shapes = (
{
closed = 1;
nodes = (
(296,1457,o),
(340,1481,o),
(389,1543,c),
(353,1572,l),
(329,1538,o),
(297,1503,o),
(225,1503,cs),
(148,1503,o),
(95,1552,o),
(95,1624,cs),
(95,1697,o),
(150,1747,o),
(230,1747,cs),
(372,1747,ls),
(420,1747,o),
(448,1773,o),
(448,1822,cs),
(448,1908,l),
(403,1908,l),
(403,1822,ls),
(403,1801,o),
(391,1792,o),
(372,1792,cs),
(230,1792,ls),
(123,1792,o),
(50,1724,o),
(50,1624,cs),
(50,1525,o),
(121,1457,o),
(226,1457,cs)
);
}
);
};
layerId = "B1F27B51-9973-4381-9301-4FE46FE1CA59";
shapes = (
{
closed = 1;
nodes = (
(329,1466,l),
(329,1511,l),
(241,1511,ls),
(154,1511,o),
(95,1559,o),
(95,1634,cs),
(95,1703,o),
(148,1753,o),
(233,1753,cs),
(286,1753,o),
(347,1732,o),
(396,1687,c),
(432,1687,l),
(476,1885,l),
(432,1885,l),
(393,1712,l),
(408,1728,l),
(357,1775,o),
(302,1798,o),
(236,1798,cs),
(124,1798,o),
(50,1728,o),
(50,1633,cs),
(50,1529,o),
(132,1466,o),
(241,1466,cs)
);
}
);
width = 526;
},
{
anchors = (
{
name = _topright;
pos = (711,1233);
}
);
background = {
anchors = (
{
name = _topright;
pos = (711,1233);
}
);
shapes = (
{
closed = 1;
nodes = (
(375,1455,o),
(428,1492,o),
(473,1550,c),
(386,1636,l),
(364,1604,o),
(327,1585,o),
(290,1585,cs),
(250,1585,o),
(206,1609,o),
(206,1663,cs),
(206,1706,o),
(235,1735,o),
(282,1735,cs),
(410,1735,ls),
(495,1735,o),
(548,1773,o),
(548,1863,cs),
(548,1955,l),
(390,1955,l),
(390,1894,ls),
(390,1876,o),
(381,1868,o),
(363,1868,cs),
(268,1868,ls),
(126,1868,o),
(50,1782,o),
(50,1661,cs),
(50,1535,o),
(141,1455,o),
(282,1455,cs)
);
}
);
};
layerId = "C698F293-3EC0-4A5A-A3A0-0FDB1F5CF265";
shapes = (
{
closed = 1;
nodes = (
(382,1466,l),
(382,1591,l),
(303,1591,ls),
(243,1591,o),
(207,1624,o),
(207,1671,cs),
(207,1717,o),
(244,1748,o),
(303,1748,cs),
(344,1748,o),
(383,1733,o),
(415,1696,c),
(532,1696,l),
(578,1955,l),
(440,1955,l),
(413,1779,l),
(450,1780,l),
(428,1841,o),
(367,1876,o),
(276,1876,cs),
(133,1876,o),
(50,1788,o),
(50,1671,cs),
(50,1554,o),
(134,1466,o),
(291,1466,cs)
);
}
);
width = 628;
},
{
anchors = (
{
name = _topright;
pos = (915,1233);
}
);
background = {
anchors = (
{
name = _topright;
pos = (826,1233);
}
);
shapes = (
{
closed = 1;
nodes = (
(473,1382,o),
(553,1400,o),
(622,1433,c),
(551,1610,l),
(525,1595,o),
(491,1586,o),
(462,1586,cs),
(424,1586,o),
(402,1605,o),
(402,1638,cs),
(402,1667,o),
(422,1684,o),
(466,1684,cs),
(593,1684,ls),
(763,1684,o),
(803,1746,o),
(803,1884,cs),
(803,1955,l),
(440,1955,l),
(440,1904,ls),
(440,1886,o),
(430,1876,o),
(409,1876,cs),
(313,1876,ls),
(145,1876,o),
(50,1786,o),
(50,1640,cs),
(50,1472,o),
(176,1382,o),
(374,1382,cs)
);
}
);
};
layerId = "5C20EF92-B63D-42A8-8878-93C2863E0093";
shapes = (
{
closed = 1;
nodes = (
(505,1382,l),
(505,1577,l),
(447,1577,ls),
(399,1577,o),
(371,1599,o),
(371,1635,cs),
(371,1673,o),
(400,1695,o),
(447,1695,cs),
(486,1695,o),
(526,1683,o),
(547,1652,c),
(733,1652,l),
(785,1955,l),
(494,1955,l),
(462,1751,l),
(574,1751,l),
(546,1836,o),
(436,1892,o),
(310,1892,cs),
(150,1892,o),
(50,1791,o),
(50,1648,cs),
(50,1487,o),
(164,1382,o),
(373,1382,cs)
);
}
);
width = 835;
}
);
metricRight = "=|";
script = khmer;
subCategory = Nonspacing;
unicode = 6093;
}
{
category = Mark;
glyphname = "ahsda-khmer";
layers = (
{
anchors = (
{
name = _top;
pos = (306,1233);
}
);
background = {
anchors = (
{
name = _top;
pos = (306,1233);
}
);
shapes = (
{
closed = 1;
nodes = (
(95,1466,l),
(306,1591,l),
(517,1466,l),
(562,1466,l),
(562,1668,l),
(517,1668,l),
(517,1516,l),
(511,1516,l),
(319,1629,l),
(293,1629,l),
(101,1516,l),
(95,1516,l),
(95,1679,ls),
(95,1748,o),
(133,1789,o),
(198,1789,cs),
(485,1789,ls),
(534,1789,o),
(562,1815,o),
(562,1864,cs),
(562,1908,l),
(516,1908,l),
(516,1864,ls),
(516,1844,o),
(505,1834,o),
(485,1834,cs),
(198,1834,ls),
(105,1834,o),
(50,1777,o),
(50,1679,cs),
(50,1466,l)
);
}
);
};
layerId = "B1F27B51-9973-4381-9301-4FE46FE1CA59";
shapes = (
{
closed = 1;
nodes = (
(50,1466,l),
(95,1466,l),
(95,1665,ls),
(95,1735,o),
(132,1775,o),
(198,1775,cs),
(289,1775,o),
(380,1760,o),
(471,1760,cs),
(529,1760,o),
(562,1791,o),
(562,1849,cs),
(562,1885,l),
(516,1885,l),
(516,1849,ls),
(516,1819,o),
(500,1805,o),
(471,1805,cs),
(380,1805,o),
(289,1820,o),
(198,1820,cs),
(104,1820,o),
(50,1763,o),
(50,1665,cs)
);
},
{
closed = 1;
nodes = (
(524,1462,o),
(562,1502,o),
(562,1570,cs),
(562,1652,l),
(517,1652,l),
(517,1571,ls),
(517,1529,o),
(496,1504,o),
(460,1504,cs),
(364,1504,o),
(308,1594,o),
(108,1594,cs),
(85,1594,l),
(85,1552,l),
(109,1552,ls),
(302,1552,o),
(343,1462,o),
(460,1462,cs)
);
}
);
width = 612;
},
{
anchors = (
{
name = _top;
pos = (356,1233);
}
);
background = {
anchors = (
{
name = _top;
pos = (356,1233);
}
);
shapes = (
{
closed = 1;
nodes = (
(205,1466,l),
(356,1559,l),
(507,1466,l),
(659,1466,l),
(659,1676,l),
(507,1676,l),
(507,1581,l),
(501,1581,l),
(369,1662,l),
(343,1662,l),
(211,1581,l),
(205,1581,l),
(205,1701,ls),
(205,1741,o),
(232,1770,o),
(275,1770,cs),
(520,1770,ls),
(616,1770,o),
(659,1813,o),
(659,1896,cs),
(659,1955,l),
(504,1955,l),
(504,1904,ls),
(504,1892,o),
(499,1887,o),
(487,1887,cs),
(275,1887,ls),
(133,1887,o),
(50,1815,o),
(50,1694,cs),
(50,1466,l)
);
}
);
};
layerId = "C698F293-3EC0-4A5A-A3A0-0FDB1F5CF265";
shapes = (
{
closed = 1;
nodes = (
(50,1466,l),
(205,1466,l),
(205,1707,ls),
(205,1751,o),
(232,1776,o),
(275,1776,cs),
(363,1776,o),
(451,1763,o),
(539,1763,cs),
(622,1763,o),
(659,1804,o),
(659,1879,cs),
(659,1955,l),
(504,1955,l),
(504,1898,ls),
(504,1886,o),
(499,1881,o),
(487,1881,cs),
(409,1881,o),
(331,1892,o),
(253,1892,cs),
(125,1892,o),
(50,1826,o),
(50,1713,cs)
);
},
{
closed = 1;
nodes = (
(613,1459,o),
(659,1503,o),
(659,1594,cs),
(659,1664,l),
(507,1664,l),
(507,1615,ls),
(507,1592,o),
(495,1581,o),
(476,1581,cs),
(425,1581,o),
(367,1648,o),
(232,1648,cs),
(200,1648,l),
(200,1540,l),
(232,1540,ls),
(352,1540,o),
(389,1459,o),
(521,1459,cs)
);
}
);
width = 709;
},
{
anchors = (
{
name = _top;
pos = (487,1233);
}
);
background = {
anchors = (
{
name = _top;
pos = (487,1233);
}
);
shapes = (
{
closed = 1;
nodes = (
(392,1396,l),
(392,1662,ls),
(392,1694,o),
(404,1708,o),
(425,1708,cs),
(783,1708,ls),
(865,1708,o),
(901,1747,o),
(901,1822,cs),
(901,1955,l),
(576,1955,l),
(576,1913,ls),
(576,1892,o),
(566,1885,o),
(550,1885,cs),
(255,1885,ls),
(132,1885,o),
(57,1819,o),
(57,1706,cs),
(57,1396,l)
);
},
{
closed = 1;
nodes = (
(842,1389,o),
(901,1436,o),
(901,1527,cs),
(901,1629,l),
(611,1629,l),
(611,1594,ls),
(611,1577,o),
(604,1569,o),
(594,1569,cs),
(569,1569,o),
(500,1609,o),
(395,1609,cs),
(386,1609,l),
(386,1465,l),
(395,1465,ls),
(532,1465,o),
(566,1389,o),
(729,1389,cs)
);
}
);
};
layerId = "5C20EF92-B63D-42A8-8878-93C2863E0093";
shapes = (
{
closed = 1;
nodes = (
(50,1396,l),
(392,1396,l),
(392,1655,ls),
(392,1700,o),
(413,1722,o),
(454,1722,cs),
(558,1722,o),
(664,1708,o),
(769,1708,cs),
(868,1708,o),
(908,1752,o),
(908,1836,cs),
(908,1955,l),
(576,1955,l),
(576,1913,ls),
(576,1892,o),
(566,1885,o),
(550,1885,cs),
(462,1885,o),
(373,1900,o),
(284,1900,cs),
(126,1900,o),
(50,1820,o),
(50,1663,cs)
);
},
{
closed = 1;
nodes = (
(847,1389,o),
(908,1436,o),
(908,1527,cs),
(908,1629,l),
(611,1629,l),
(611,1594,ls),
(611,1577,o),
(604,1569,o),
(594,1569,cs),
(569,1569,o),
(500,1600,o),
(395,1600,cs),
(386,1600,l),
(386,1463,l),
(395,1463,ls),
(532,1463,o),
(566,1389,o),
(729,1389,cs)
);
}
);
width = 958;
}
);
metricRight = "=|";
script = khmer;
subCategory = Nonspacing;
unicode = 6095;
}
{
category = Mark;
glyphname = "samyoksannya-khmer";
layers = (
{
anchors = (
{
name = _topright;
pos = (489,1233);
}
);
background = {
anchors = (
{
name = _topright;
pos = (477,1233);
}
);
shapes = (
{
closed = 1;
nodes = (
(535,1459,o),
(671,1623,o),
(703,1908,c),
(657,1908,l),
(627,1655,o),
(514,1504,o),
(308,1504,cs),
(168,1504,o),
(88,1570,o),
(88,1668,cs),
(88,1757,o),
(149,1819,o),
(245,1819,cs),
(272,1819,o),
(302,1814,o),
(331,1807,c),
(331,1852,l),
(303,1859,o),
(273,1864,o),
(245,1864,cs),
(126,1864,o),
(43,1784,o),
(43,1668,cs),
(43,1545,o),
(144,1459,o),
(308,1459,cs)
);
}
);
};
layerId = "B1F27B51-9973-4381-9301-4FE46FE1CA59";
shapes = (
{
closed = 1;
nodes = (
(553,1459,o),
(703,1622,o),
(703,1868,cs),
(703,1885,l),
(657,1885,l),
(657,1868,ls),
(657,1649,o),
(525,1504,o),
(326,1504,cs),
(188,1504,o),
(95,1569,o),
(95,1679,cs),
(95,1769,o),
(152,1819,o),
(230,1819,cs),
(257,1819,o),
(287,1814,o),
(316,1807,c),
(316,1852,l),
(288,1859,o),
(259,1864,o),
(229,1864,cs),
(129,1864,o),
(50,1796,o),
(50,1678,cs),
(50,1541,o),
(162,1459,o),
(326,1459,cs)
);
}
);
width = 753;
},
{
anchors = (
{
name = _topright;
pos = (565,1233);
}
);
layerId = "C698F293-3EC0-4A5A-A3A0-0FDB1F5CF265";
shapes = (
{
closed = 1;
nodes = (
(664,1452,o),
(833,1636,o),
(833,1947,cs),
(833,1955,l),
(660,1955,l),
(660,1947,ls),
(660,1721,o),
(558,1587,o),
(385,1587,cs),
(277,1587,o),
(214,1632,o),
(214,1710,cs),
(214,1775,o),
(262,1807,o),
(328,1807,cs),
(352,1807,o),
(376,1801,o),
(401,1794,c),
(401,1920,l),
(368,1929,o),
(329,1934,o),
(294,1934,cs),
(155,1934,o),
(50,1852,o),
(50,1709,cs),
(50,1545,o),
(169,1452,o),
(378,1452,cs)
);
}
);
width = 883;
},
{
anchors = (
{
name = _topright;
pos = (734,1233);
}
);
background = {
anchors = (
{
name = _top;
pos = (559,1233);
}
);
shapes = (
{
closed = 1;
nodes = (
(576,1893,l),
(537,1901,o),
(494,1907,o),
(445,1907,cs),
(253,1907,o),
(168,1812,o),
(168,1679,cs),
(168,1488,o),
(320,1375,o),
(598,1375,cs),
(925,1375,o),
(1112,1545,o),
(1112,1844,cs),
(1112,1955,l),
(749,1955,l),
(749,1786,ls),
(749,1679,o),
(701,1614,o),
(612,1614,cs),
(544,1614,o),
(517,1639,o),
(517,1674,cs),
(517,1707,o),
(537,1724,o),
(576,1727,c)
);
}
);
};
layerId = "5C20EF92-B63D-42A8-8878-93C2863E0093";
shapes = (
{
closed = 1;
nodes = (
(805,1382,o),
(1059,1537,o),
(1059,1876,cs),
(1059,1955,l),
(693,1955,l),
(693,1888,ls),
(693,1675,o),
(605,1604,o),
(505,1604,cs),
(442,1604,o),
(403,1635,o),
(403,1679,cs),
(403,1724,o),
(428,1745,o),
(463,1745,cs),
(477,1745,o),
(493,1740,o),
(508,1732,c),
(508,1919,l),
(461,1932,o),
(395,1937,o),
(352,1937,cs),
(179,1937,o),
(50,1862,o),
(50,1676,cs),
(50,1494,o),
(185,1382,o),
(467,1382,cs)
);
}
);
width = 1109;
}
);
metricRight = "=|";
script = khmer;
subCategory = Nonspacing;
unicode = 6096;
}
{
category = Mark;
glyphname = "viriam-khmer";
layers = (
{
anchors = (
{
name = _top;
pos = (422,1233);
}
);
layerId = "B1F27B51-9973-4381-9301-4FE46FE1CA59";
shapes = (
{
closed = 1;
nodes = (
(793,1466,l),
(793,1511,l),
(50,1511,l),
(50,1466,l)
);
}
);
width = 843;
},
{
anchors = (
{
name = _top;
pos = (476,1233);
}
);
layerId = "C698F293-3EC0-4A5A-A3A0-0FDB1F5CF265";
shapes = (
{
closed = 1;
nodes = (
(902,1466,l),
(902,1588,l),
(50,1588,l),
(50,1466,l)
);
}
);
width = 952;
},
{
anchors = (
{
name = _top;
pos = (574,1233);
}
);
layerId = "5C20EF92-B63D-42A8-8878-93C2863E0093";
shapes = (
{
closed = 1;
nodes = (
(1098,1396,l),
(1098,1626,l),
(50,1626,l),
(50,1396,l)
);
}
);
width = 1148;
}
);
metricRight = "=|";
script = khmer;
subCategory = Nonspacing;
unicode = 6097;
}
{
category = Mark;
glyphname = "coeng-khmer";
layers = (
{
anchors = (
{
name = _bottom;
pos = (233,0);
}
);
background = {
shapes = (
{
closed = 1;
nodes = (
(416,-307,l),
(416,-263,l),
(50,-263,l),
(50,-307,l)
);
},
{
closed = 1;
nodes = (
(255,-465,l),
(255,-105,l),
(211,-105,l),
(211,-465,l)
);
}
);
};
layerId = "B1F27B51-9973-4381-9301-4FE46FE1CA59";
shapes = (
{
closed = 1;
nodes = (
(416,-307,l),
(416,-263,l),
(50,-263,l),
(50,-307,l)
);
},
{
closed = 1;
nodes = (
(255,-465,l),
(255,-105,l),
(211,-105,l),
(211,-465,l)
);
}
);
width = 466;
},
{
anchors = (
{
name = _bottom;
pos = (269,0);
}
);
layerId = "C698F293-3EC0-4A5A-A3A0-0FDB1F5CF265";
shapes = (
{
closed = 1;
nodes = (
(488,-377,l),
(488,-263,l),
(50,-263,l),
(50,-377,l)
);
},
{
closed = 1;
nodes = (
(332,-535,l),
(332,-105,l),
(207,-105,l),
(207,-535,l)
);
}
);
width = 538;
},
{
anchors = (
{
name = _bottom;
pos = (308,0);
}
);
background = {
shapes = (
{
closed = 1;
nodes = (
(114,-708,l),
(383,-708,l),
(383,-93,l),
(114,-93,l)
);
},
{
closed = 1;
nodes = (
(-94,-280,l),
(-94,-520,l),
(586,-520,l),
(586,-280,l)
);
}
);
};
layerId = "5C20EF92-B63D-42A8-8878-93C2863E0093";
shapes = (
{
closed = 1;
nodes = (
(565,-399,l),
(565,-230,l),
(50,-230,l),
(50,-399,l)
);
},
{
closed = 1;
nodes = (
(399,-535,l),
(399,-93,l),
(216,-93,l),
(216,-535,l)
);
}
);
width = 615;
}
);
metricRight = "=|";
script = khmer;
subCategory = Nonspacing;
unicode = 6098;
}
{
category = Mark;
glyphname = "bathamasat-khmer";
layers = (
{
anchors = (
{
name = _top;
pos = (220,1233);
}
);
layerId = "B1F27B51-9973-4381-9301-4FE46FE1CA59";
shapes = (
{
closed = 1;
nodes = (
(322,1457,o),
(389,1546,o),
(389,1671,cs),
(389,1796,o),
(322,1885,o),
(220,1885,cs),
(118,1885,o),
(50,1796,o),
(50,1671,cs),
(50,1546,o),
(118,1457,o),
(220,1457,cs)
);
},
{
closed = 1;
nodes = (
(142,1500,o),
(94,1570,o),
(94,1671,cs),
(94,1772,o),
(142,1843,o),
(220,1843,cs),
(298,1843,o),
(346,1772,o),
(346,1671,cs),
(346,1570,o),
(298,1500,o),
(220,1500,cs)
);
}
);
width = 439;
},
{
anchors = (
{
name = _top;
pos = (266,1233);
}
);
layerId = "C698F293-3EC0-4A5A-A3A0-0FDB1F5CF265";
shapes = (
{
closed = 1;
nodes = (
(395,1452,o),
(482,1553,o),
(482,1703,cs),
(482,1853,o),
(395,1955,o),
(266,1955,cs),
(138,1955,o),
(50,1853,o),
(50,1703,cs),
(50,1553,o),
(138,1452,o),
(266,1452,cs)
);
},
{
closed = 1;
nodes = (
(210,1558,o),
(171,1609,o),
(171,1703,cs),
(171,1797,o),
(210,1849,o),
(266,1849,cs),
(323,1849,o),
(362,1797,o),
(362,1703,cs),
(362,1609,o),
(323,1558,o),
(266,1558,cs)
);
}
);
width = 532;
},
{
anchors = (
{
name = _top;
pos = (343,1233);
}
);
background = {
shapes = (
{
closed = 1;
nodes = (
(546,1382,o),
(636,1500,o),
(636,1668,cs),
(636,1835,o),
(546,1953,o),
(343,1953,cs),
(140,1953,o),
(50,1835,o),
(50,1668,cs),
(50,1500,o),
(140,1382,o),
(343,1382,cs)
);
},
{
closed = 1;
nodes = (
(297,1540,o),
(262,1583,o),
(262,1668,cs),
(262,1752,o),
(297,1795,o),
(343,1795,cs),
(390,1795,o),
(424,1752,o),
(424,1668,cs),
(424,1583,o),
(390,1540,o),
(343,1540,cs)
);
}
);
};
layerId = "5C20EF92-B63D-42A8-8878-93C2863E0093";
shapes = (
{
closed = 1;
nodes = (
(546,1382,o),
(636,1500,o),
(636,1668,cs),
(636,1835,o),
(546,1953,o),
(343,1953,cs),
(140,1953,o),
(50,1835,o),
(50,1668,cs),
(50,1500,o),
(140,1382,o),
(343,1382,cs)
);
},
{
closed = 1;
nodes = (
(297,1540,o),
(262,1583,o),
(262,1668,cs),
(262,1752,o),
(297,1795,o),
(343,1795,cs),
(390,1795,o),
(424,1752,o),
(424,1668,cs),
(424,1583,o),
(390,1540,o),
(343,1540,cs)
);
}
);
width = 686;
}
);
metricRight = "=|";
script = khmer;
subCategory = Nonspacing;
unicode = 6099;
}
